<svg width="60" height="60" viewBox="0 0 60 60" fill="none" xmlns="http://www.w3.org/2000/svg">
<path d="M44.208 1.44531H27.4962C25.1854 1.44531 23.2568 3.1075 22.8404 5.29891H15.7923C13.178 5.29891 11.0518 7.42539 11.0518 10.0395V17.4539C11.0518 19.9004 12.9145 21.9197 15.2961 22.1686L14.7856 25.7739C14.7347 26.1297 14.9063 26.4808 15.2178 26.66C15.3544 26.7387 15.5063 26.7775 15.6572 26.7775C15.8506 26.7775 16.043 26.7139 16.2017 26.5888L21.7845 22.1945H32.5041C34.813 22.1945 36.7428 20.532 37.16 18.3409H38.2162L43.7984 22.7352C43.9571 22.8603 44.1495 22.9238 44.3428 22.9238H44.3525C44.8386 22.9238 45.2332 22.5298 45.2332 22.0435C45.2332 21.9556 45.2203 21.8711 45.1964 21.7908L44.7046 18.3152C47.086 18.0662 48.9488 16.0469 48.9488 13.6004V6.1859C48.9484 3.5718 46.8222 1.44531 44.208 1.44531ZM32.5039 20.4339H21.4796C21.2818 20.4339 21.0903 20.5002 20.9351 20.6226L16.8362 23.8485L17.1779 21.4374C17.2138 21.1852 17.1382 20.9296 16.971 20.7367C16.8038 20.5442 16.5612 20.4339 16.3062 20.4339H15.7922C14.1491 20.4339 12.8123 19.097 12.8123 17.4539V10.0395C12.8123 8.39641 14.1491 7.05941 15.7922 7.05941H22.7557V9.89465H16.718C16.264 9.89465 15.8963 10.2625 15.8963 10.7162C15.8963 11.17 16.264 11.5377 16.718 11.5377H22.7557V13.6002C22.7557 14.1677 22.8562 14.7119 23.0398 15.2166H16.718C16.264 15.2166 15.8963 15.5845 15.8963 16.0382C15.8963 16.492 16.264 16.8597 16.718 16.8597H24.0589C24.9232 17.7709 26.144 18.3409 27.4962 18.3409H35.3489C34.9701 19.552 33.8373 20.4339 32.5039 20.4339ZM47.1878 13.6002C47.1878 15.2433 45.8511 16.5803 44.208 16.5803H43.694C43.4389 16.5803 43.1963 16.6906 43.0291 16.8831C42.8619 17.076 42.7865 17.3316 42.8222 17.5838L43.1632 19.9948L39.0651 16.7689C38.9098 16.6466 38.7183 16.5803 38.5206 16.5803H27.4961C25.8531 16.5803 24.5162 15.2434 24.5162 13.6002V6.18578C24.5162 4.5427 25.8531 3.20582 27.4961 3.20582H44.208C45.8511 3.20582 47.1878 4.5427 47.1878 6.18578V13.6002Z" fill="#336AEA"/>
<path d="M43.282 7.6841H28.4222C27.9684 7.6841 27.6006 7.31637 27.6006 6.86262C27.6006 6.40887 27.9684 6.04102 28.4222 6.04102H43.282C43.7358 6.04102 44.1036 6.40887 44.1036 6.86262C44.1036 7.31637 43.7358 7.6841 43.282 7.6841Z" fill="#336AEA"/>
<path d="M43.282 13.0059H28.4222C27.9684 13.0059 27.6006 12.6381 27.6006 12.1844C27.6006 11.7306 27.9684 11.3628 28.4222 11.3628H43.282C43.7358 11.3628 44.1036 11.7306 44.1036 12.1844C44.1036 12.6381 43.7358 13.0059 43.282 13.0059Z" fill="#336AEA"/>
<path d="M54.8218 35.6739C52.1408 35.6739 49.9595 33.4927 49.9595 30.8116C49.9595 28.1308 52.1408 25.9492 54.8218 25.9492C57.5028 25.9492 59.6842 28.1307 59.6842 30.8116C59.6843 33.4927 57.5028 35.6739 54.8218 35.6739ZM54.8218 27.5924C53.0469 27.5924 51.6026 29.0368 51.6026 30.8116C51.6026 32.5865 53.0468 34.0311 54.8218 34.0311C56.5969 34.0311 58.041 32.5866 58.041 30.8116C58.041 29.0368 56.5969 27.5924 54.8218 27.5924Z" fill="#336AEA"/>
<path d="M54.9109 36.8813C52.7811 36.8813 50.9274 38.3883 49.9606 40.8916L47.8758 45.8771H40.7628C39.1354 45.8771 37.8115 47.2012 37.8115 48.8286C37.8115 49.5561 38.0765 50.2223 38.5146 50.7372H21.4861C21.9239 50.2222 22.1888 49.5561 22.1888 48.8286C22.1888 47.2012 20.8653 45.8771 19.2381 45.8771H12.1247L10.0482 40.9127C9.07299 38.3884 7.21908 36.8815 5.08955 36.8815C2.28748 36.8815 0.00830078 39.1602 0.00830078 41.9615V57.7333C0.00830078 58.187 0.37627 58.5548 0.829902 58.5548H9.34814H50.6522H59.1704C59.6243 58.5548 59.992 58.187 59.992 57.7333V41.9613C59.9921 39.1601 57.7127 36.8813 54.9109 36.8813ZM10.1695 52.3803H49.8308V56.9115H10.1695V52.3803ZM1.65139 56.9115V41.9613C1.65139 40.0662 3.19369 38.5244 5.08955 38.5244C7.14244 38.5244 8.16924 40.6088 8.52373 41.5257L10.8198 47.0157C10.9478 47.3215 11.2462 47.5202 11.5778 47.5202H19.2382C19.9594 47.5202 20.5459 48.1073 20.5459 48.8285C20.5459 49.5497 19.9594 50.1363 19.2382 50.1363H10.1644C9.99068 50.1363 9.82193 50.1029 9.66291 50.0369C9.64756 50.0305 9.63174 50.0263 9.61627 50.0209C9.60068 50.0115 9.58521 50.0019 9.56881 49.9935C9.50295 49.9596 9.44096 49.9197 9.38342 49.8774C9.17107 49.7188 9.01393 49.5038 8.92791 49.2555C8.92217 49.2392 8.91584 49.2231 8.90928 49.2072L6.29939 42.9672C6.1242 42.5489 5.64408 42.3506 5.2242 42.5264C4.80584 42.7017 4.60791 43.1829 4.78322 43.6017L7.38408 49.8196C7.5799 50.3685 7.93041 50.8431 8.40103 51.1946C8.44193 51.2251 8.48447 51.2522 8.52654 51.2803V56.9114L1.65139 56.9115ZM58.3489 56.9115H51.4738V51.2845C51.995 50.9378 52.3991 50.4296 52.6163 49.8196L55.2171 43.6017C55.3924 43.1829 55.1947 42.7017 54.7762 42.5264C54.3568 42.3497 53.8758 42.5488 53.7009 42.9672L51.0912 49.2072C51.0844 49.2235 51.0783 49.2392 51.0725 49.2555C50.9482 49.6154 50.6666 49.9047 50.3175 50.0441C50.3035 50.0496 50.2894 50.054 50.2754 50.0591C50.243 50.0708 50.2099 50.0812 50.1763 50.0903C50.066 50.12 49.9524 50.1363 49.8365 50.1363H40.7627C40.0414 50.1363 39.4544 49.5497 39.4544 48.8285C39.4544 48.1073 40.0414 47.5202 40.7627 47.5202H48.4227C48.7541 47.5202 49.0526 47.3216 49.1806 47.0157L51.4853 41.5047C51.831 40.6088 52.858 38.5244 54.9108 38.5244C56.8066 38.5244 58.3488 40.0662 58.3488 41.9613V56.9115H58.3489Z" fill="#336AEA"/>
<path d="M5.17828 35.6739C2.49727 35.6739 0.316406 33.4927 0.316406 30.8116C0.316406 28.1308 2.49727 25.9492 5.17828 25.9492C7.85918 25.9492 10.0406 28.1307 10.0406 30.8116C10.0406 33.4927 7.85906 35.6739 5.17828 35.6739ZM5.17828 27.5924C3.40336 27.5924 1.95949 29.0368 1.95949 30.8116C1.95949 32.5865 3.40324 34.0311 5.17828 34.0311C6.9532 34.0311 8.39754 32.5866 8.39754 30.8116C8.39742 29.0368 6.95309 27.5924 5.17828 27.5924Z" fill="#336AEA"/>
<path d="M29.9824 41.8317C28.1617 41.8317 26.3184 40.5827 26.3184 38.1954V37.1583H25.281C22.9167 37.1583 21.6797 35.3138 21.6797 33.4917C21.6797 32.5487 21.9982 31.6635 22.5762 30.9993C23.2416 30.234 24.1772 29.8294 25.281 29.8294H26.3184V28.792C26.3184 26.4047 28.1617 25.1558 29.9824 25.1558C31.8036 25.1558 33.647 26.4047 33.647 28.792V29.8294H34.6845C37.0717 29.8294 38.3208 31.6727 38.3208 33.4939C38.3208 35.3151 37.0717 37.1583 34.6845 37.1583H33.647V38.1954C33.6469 40.5827 31.8036 41.8317 29.9824 41.8317ZM25.281 31.4726C24.6581 31.4726 24.1652 31.6761 23.816 32.0778C23.5027 32.4378 23.3231 32.9533 23.3231 33.4915C23.3231 34.2427 23.7354 35.5154 25.281 35.5154H27.1399C27.5936 35.5154 27.9615 35.883 27.9615 36.3369V38.1953C27.9615 39.5718 28.9764 40.188 29.9823 40.188C30.9887 40.188 32.0037 39.5718 32.0037 38.1953V36.3369C32.0037 35.883 32.3715 35.5154 32.8253 35.5154H34.6842C36.0606 35.5154 36.6769 34.4998 36.6769 33.4939C36.6769 32.4879 36.0606 31.4726 34.6842 31.4726H32.8253C32.3715 31.4726 32.0037 31.1048 32.0037 30.6509V28.792C32.0037 27.4155 30.9887 26.7993 29.9823 26.7993C28.9764 26.7993 27.9615 27.4155 27.9615 28.792V30.6509C27.9615 31.1048 27.5936 31.4726 27.1399 31.4726H25.281Z" fill="#336AEA"/>
</svg>
