<svg width="25" height="25" viewBox="0 0 25 25" fill="none" xmlns="http://www.w3.org/2000/svg">
<path d="M21.1484 0.898438H3.85156C3.06835 0.898438 2.31721 1.20957 1.76339 1.76339C1.20957 2.31721 0.898438 3.06835 0.898438 3.85156V21.1484C0.898438 21.9317 1.20957 22.6828 1.76339 23.2366C2.31721 23.7904 3.06835 24.1016 3.85156 24.1016H12.3244V14.4472H10.3935V10.5854H12.3084V8.84023C12.3084 7.26073 13.0608 4.79308 16.3721 4.79308L19.355 4.80505V8.11366H17.1888C16.8366 8.11366 16.3354 8.28905 16.3354 9.04136V10.5857H19.4042L19.052 14.4474H16.1861V24.1016H21.1484C21.5362 24.1016 21.9203 24.0252 22.2785 23.8768C22.6368 23.7284 22.9624 23.5108 23.2366 23.2366C23.5108 22.9624 23.7284 22.6368 23.8768 22.2785C24.0252 21.9203 24.1016 21.5362 24.1016 21.1484V3.85156C24.1016 3.46375 24.0252 3.07974 23.8768 2.72145C23.7284 2.36316 23.5108 2.03761 23.2366 1.76339C22.9624 1.48916 22.6368 1.27164 22.2785 1.12323C21.9203 0.974822 21.5362 0.898437 21.1484 0.898438Z" fill="#5A6A85"/>
</svg>
