<svg width="15" height="15" viewBox="0 0 15 15" fill="none" xmlns="http://www.w3.org/2000/svg">
<g clip-path="url(#clip0_9849_464)">
<path d="M14.4887 5.83693L11.3188 9.08371L12.064 13.6789C12.1296 14.0455 11.7316 14.314 11.4134 14.1402L7.51611 11.9816V0.0175781C7.6817 0.0175781 7.8473 0.0944598 7.91826 0.254137L9.87579 4.42349L14.2344 5.08586C14.5987 5.15091 14.7329 5.57968 14.4887 5.83693Z" fill="#ECEFF1"/>
<path d="M7.51614 0.0175781V11.9816L3.61883 14.1402C3.30598 14.3158 2.90205 14.0497 2.96829 13.6789L3.71345 9.08371L0.543559 5.83693C0.299311 5.57967 0.432967 5.15091 0.79786 5.08586L5.15646 4.42349L7.11399 0.254137C7.18496 0.0944598 7.35055 0.0175781 7.51614 0.0175781Z" fill="#FFAB31"/>
</g>
<defs>
<clipPath id="clip0_9849_464">
<rect width="14.1935" height="14.1935" fill="white" transform="translate(0.419434)"/>
</clipPath>
</defs>
</svg>
