<svg width="35" height="35" viewBox="0 0 35 35" fill="none" xmlns="http://www.w3.org/2000/svg">
<g clip-path="url(#clip0_9988_171)">
<path d="M34.9576 19.5111C34.699 17.7192 33.2914 16.3116 31.4995 16.053V14.9925C31.4995 12.0665 29.2753 9.68423 26.5413 9.68423C23.886 9.68423 21.6629 11.9942 21.583 14.8338H21.6168L21.583 14.8397V26.3352C21.583 30.0102 18.8356 32.9945 15.4581 32.9945C12.0807 32.9945 9.3332 30.0061 9.3332 26.3352V25.3395C10.179 25.3395 11.0832 24.7264 11.0832 23.0062V21.5391C14.827 20.5819 17.4997 17.3672 17.4997 13.7226V12.5064H16.3331L16.3086 4.91439C16.3001 3.50908 15.2917 2.30918 13.9088 2.05901C13.6105 1.14516 12.6278 0.646125 11.7139 0.944496C10.8 1.24279 10.301 2.22548 10.5994 3.1394C10.8977 4.05325 11.8804 4.55229 12.7943 4.25392C13.2836 4.09416 13.6771 3.72601 13.8691 3.24841C14.6164 3.46103 15.1341 4.1409 15.1402 4.91789L15.1664 12.5064H13.9998V13.7395C13.9533 15.7685 12.593 17.5318 10.6422 18.0917C9.59839 18.4229 8.47768 18.4229 7.43389 18.0917C5.48537 17.5299 4.12812 15.7669 4.08327 13.7395V12.5064H2.3333V4.92314C2.33665 4.1347 2.8669 3.44579 3.62828 3.24083C3.98331 4.14462 5.00376 4.5894 5.90755 4.23438C6.81134 3.87935 7.25612 2.85882 6.9011 1.95511C6.54607 1.05139 5.52554 0.606532 4.62183 0.961558C4.13213 1.15398 3.75428 1.55553 3.59211 2.05609C2.1941 2.29497 1.17051 3.50485 1.16665 4.92314V12.5064H0V13.7197C0 17.3684 2.67454 20.5842 6.41657 21.5391V23.0062C6.41657 24.7264 7.32073 25.3395 8.16655 25.3395V26.3352C8.16655 30.6518 11.4372 34.1611 15.4581 34.1611C19.479 34.1611 22.7497 30.6478 22.7497 26.3352V14.8677C22.808 12.6539 24.5101 10.8526 26.5413 10.8526C28.6319 10.8526 30.3329 12.7099 30.3329 14.9942V16.053C28.1009 16.3751 26.5527 18.4457 26.8748 20.6777C27.1969 22.9097 29.2675 24.458 31.4995 24.1358C33.7316 23.8137 35.2798 21.743 34.9576 19.5111ZM12.2498 3.17316C11.9277 3.17316 11.6665 2.91198 11.6665 2.58984C11.6665 2.2677 11.9277 2.00651 12.2498 2.00651C12.572 2.00651 12.8331 2.2677 12.8331 2.58984C12.8331 2.91198 12.572 3.17316 12.2498 3.17316ZM5.24992 2.00651C5.57206 2.00651 5.83325 2.2677 5.83325 2.58984C5.83325 2.91198 5.57206 3.17316 5.24992 3.17316C4.92778 3.17316 4.6666 2.91198 4.6666 2.58984C4.6666 2.2677 4.92778 2.00651 5.24992 2.00651ZM1.16665 13.7197V13.673H2.91662V13.7395C2.96037 16.2749 4.64713 18.4875 7.0804 19.2012C8.35547 19.6049 9.7241 19.6049 10.9992 19.2012C13.4336 18.4884 15.1219 16.2757 15.1664 13.7395V13.673H16.3331V13.7197C16.3331 16.9647 13.8318 19.8201 10.3832 20.5107C9.57338 20.6729 8.74389 20.7136 7.92213 20.6315C7.65162 20.6052 7.3827 20.5646 7.11656 20.5096C3.66795 19.8201 1.16665 16.9647 1.16665 13.7197ZM8.16655 24.1729C7.64155 24.1729 7.58322 23.3562 7.58322 23.0062V21.7684C7.62989 21.7742 7.67772 21.7766 7.72497 21.7812C7.7833 21.7876 7.84164 21.7923 7.89997 21.7976C8.17588 21.8221 8.45413 21.8384 8.7347 21.839H8.76387C9.04387 21.839 9.32153 21.8221 9.59569 21.7976C9.65403 21.7923 9.71586 21.7876 9.77594 21.7812C9.82202 21.776 9.86986 21.7742 9.91594 21.7684V23.0062C9.91594 23.3562 9.8576 24.1729 9.33261 24.1729H8.16655ZM30.9162 23.0062C29.3054 23.0062 27.9996 21.7004 27.9996 20.0896C27.9996 18.4788 29.3054 17.173 30.9162 17.173C32.527 17.173 33.8328 18.4788 33.8328 20.0896C33.8309 21.6996 32.5262 23.0043 30.9162 23.0062Z" fill="#336AEA"/>
<path d="M30.916 18.3394C29.9495 18.3394 29.166 19.1228 29.166 20.0893C29.166 21.0558 29.9495 21.8393 30.916 21.8393C31.8825 21.8393 32.666 21.0558 32.666 20.0893C32.666 19.1228 31.8825 18.3394 30.916 18.3394ZM30.916 20.6727C30.5938 20.6727 30.3327 20.4115 30.3327 20.0893C30.3327 19.7672 30.5938 19.506 30.916 19.506C31.2381 19.506 31.4993 19.7672 31.4993 20.0893C31.4993 20.4115 31.2381 20.6727 30.916 20.6727Z" fill="#336AEA"/>
</g>
<defs>
<clipPath id="clip0_9988_171">
<rect width="35" height="35" fill="white"/>
</clipPath>
</defs>
</svg>
