<svg width="46" height="46" viewBox="0 0 46 46" fill="none" xmlns="http://www.w3.org/2000/svg">
<g clip-path="url(#clip0_9905_1196)">
<path d="M42.7697 20.0551C42.5936 15.0375 40.5617 10.3455 36.9938 6.77762C33.2542 3.03725 28.284 0.978027 22.9998 0.978027C12.327 0.978027 3.60645 9.47293 3.23054 20.0551C1.60185 20.7789 0.461914 22.409 0.461914 24.3036V29.5232C0.461914 32.0862 2.54701 34.1721 5.11079 34.1721C6.76966 34.1721 8.11876 32.823 8.11876 31.1641V22.662C8.11876 21.1045 6.9242 19.8344 5.40548 19.6835C5.9661 10.4641 13.6409 3.13428 22.9998 3.13428C27.709 3.13428 32.1372 4.96996 35.4701 8.30281C38.5305 11.3632 40.3216 15.3523 40.5912 19.6842C39.0739 19.8366 37.8815 21.1059 37.8815 22.662V31.1634C37.8815 32.7338 39.0947 34.0118 40.6314 34.1447V36.2931C40.6314 38.7124 38.6628 40.6803 36.2434 40.6803H32.994C32.8344 40.2247 32.5843 39.8035 32.2335 39.4542C31.619 38.8367 30.7996 38.4968 29.9271 38.4968H26.5777C26.0969 38.4968 25.6354 38.5988 25.2128 38.7958C24.0599 39.3255 23.3153 40.4884 23.3153 41.7585C23.3153 42.631 23.6553 43.4504 24.2712 44.0635C24.8872 44.6809 25.7066 45.0209 26.5777 45.0209H29.9271C31.3157 45.0209 32.5397 44.1231 32.9961 42.8366H36.2434C39.8523 42.8366 42.7877 39.9012 42.7877 36.2931V33.7609C44.4063 33.0328 45.5376 31.4085 45.5376 29.5217V24.3022C45.5376 22.409 44.3977 20.7789 42.7697 20.0551ZM5.96179 22.662V31.1634C5.96179 31.6327 5.58013 32.0151 5.11007 32.0151C3.73582 32.0151 2.61745 30.8967 2.61745 29.5225V24.3029C2.61745 22.9279 3.73582 21.8103 5.11007 21.8103C5.58013 21.8103 5.96179 22.1927 5.96179 22.662ZM31.0088 41.9899C30.9017 42.4973 30.446 42.8661 29.9264 42.8661H26.577C26.2823 42.8661 26.0056 42.7511 25.7943 42.5397C25.5858 42.332 25.4708 42.0546 25.4708 41.7599C25.4708 41.3294 25.7231 40.9362 26.1184 40.7544C26.2593 40.6882 26.4138 40.6545 26.577 40.6545H29.9264C30.221 40.6545 30.4978 40.7687 30.7083 40.9801C30.9168 41.1878 31.0318 41.4652 31.0318 41.7599C31.0325 41.839 31.0239 41.918 31.0088 41.9899ZM43.3813 29.5225C43.3813 30.8967 42.263 32.0151 40.8887 32.0151C40.4194 32.0151 40.037 31.6334 40.037 31.1634V22.662C40.037 22.1927 40.4187 21.8103 40.8887 21.8103C42.263 21.8103 43.3813 22.9287 43.3813 24.3029V29.5225Z" fill="#336AEA"/>
<path d="M29.981 29.894C32.5002 29.894 34.5494 27.8441 34.5494 25.3256V16.0171C34.5494 14.7995 34.0736 13.6524 33.2096 12.7885C32.3457 11.9245 31.1993 11.4487 29.981 11.4487H16.0186C13.4994 11.4487 11.4502 13.4979 11.4502 16.0171V25.3256C11.4502 27.8449 13.4994 29.894 16.0186 29.894H16.1041V32.3061C16.1041 33.2261 16.6525 34.0426 17.5006 34.3869C17.7745 34.4969 18.0591 34.5515 18.3409 34.5515C18.9281 34.5515 19.5002 34.3186 19.9192 33.8852L23.932 29.894H29.981ZM22.7281 28.0511L18.3854 32.3701C18.366 32.3902 18.3516 32.4053 18.3107 32.3874C18.2611 32.3672 18.2611 32.3349 18.2611 32.3061V28.8159C18.2611 28.2208 17.7788 27.7378 17.1829 27.7378H16.0193C14.6889 27.7378 13.6072 26.6553 13.6072 25.3256V16.0171C13.6072 14.6867 14.6889 13.605 16.0193 13.605H29.9817C30.6243 13.605 31.2288 13.8565 31.6859 14.3129C32.143 14.7701 32.3939 15.3753 32.3939 16.0171V25.3256C32.3939 26.656 31.3114 27.7378 29.9817 27.7378H23.4885C23.2032 27.7378 22.9301 27.8506 22.7281 28.0511Z" fill="#336AEA"/>
<path d="M17.7625 19.2529C16.8856 19.2529 16.1719 19.9674 16.1719 20.8435C16.1719 21.7197 16.8863 22.4341 17.7625 22.4341C18.6401 22.4341 19.3545 21.7197 19.3545 20.8435C19.3545 19.9674 18.6408 19.2529 17.7625 19.2529Z" fill="#336AEA"/>
<path d="M22.9988 19.2529C22.1219 19.2529 21.4082 19.9674 21.4082 20.8435C21.4082 21.7197 22.1226 22.4341 22.9988 22.4341C23.8771 22.4341 24.5908 21.7197 24.5908 20.8435C24.5908 19.9674 23.8771 19.2529 22.9988 19.2529Z" fill="#336AEA"/>
<path d="M28.2356 19.2529C27.3587 19.2529 26.645 19.9674 26.645 20.8435C26.645 21.7197 27.3595 22.4341 28.2356 22.4341C29.1132 22.4341 29.8276 21.7197 29.8276 20.8435C29.8276 19.9674 29.1132 19.2529 28.2356 19.2529Z" fill="#336AEA"/>
</g>
<defs>
<clipPath id="clip0_9905_1196">
<rect width="46" height="46" fill="white"/>
</clipPath>
</defs>
</svg>
