<svg width="30" height="35" viewBox="0 0 30 35" fill="none" xmlns="http://www.w3.org/2000/svg">
<path d="M26.3521 22.9547C24.2478 21.8923 21.9357 21.1608 19.659 20.7013C19.1206 20.1234 18.7502 19.4094 18.5878 18.6363C19.9971 17.5341 21.0761 15.8809 21.6672 13.9114C23.2994 13.6643 23.7239 11.1562 23.0765 9.78279C26.0489 -3.24267 3.36067 -3.26969 6.26246 9.75439C5.5813 11.1271 6.00514 13.6691 7.65633 13.9127C8.23966 15.8822 9.3264 17.5355 10.7357 18.6376C10.5672 19.4448 10.1734 20.1876 9.6 20.7801C8.52236 20.9685 7.85898 21.1272 7.84475 21.1428C3.4297 22.3581 -0.488291 23.7239 0.0496073 29.1588C-0.174528 36.9434 29.4953 36.9507 29.2831 29.159C29.5163 26.7068 28.7245 24.0729 26.3521 22.9547ZM14.6811 1.04533C19.8028 0.974789 22.8192 4.34339 22.155 8.88966C21.8522 8.7438 21.4885 8.73744 21.1626 8.81092C21.0335 8.42374 20.8231 7.80292 20.4618 6.79499C20.4158 6.70571 20.3408 6.62491 20.2811 6.54336C15.6657 3.47251 13.739 9.16655 9.5948 6.52659C9.57031 6.51113 9.55348 6.4969 9.53158 6.48014C9.3199 6.42616 9.0827 6.46201 8.94826 6.6531C8.51928 7.51694 8.29391 8.47437 8.15195 8.81098C7.83894 8.73087 7.49548 8.7375 7.19951 8.8742C6.53511 4.33176 9.56107 0.976226 14.6811 1.04533ZM8.55458 13.1887C8.29172 12.5238 7.85549 12.9966 7.56985 12.7783C6.92194 12.3379 6.76088 10.0861 7.59318 9.84984C8.02592 9.70746 8.40817 10.2589 8.81402 9.94275C8.92773 9.85319 9.00374 9.72422 9.02701 9.58137C9.06573 9.40711 9.34063 8.60436 9.64133 7.77453C14.3648 9.94227 15.3808 5.00088 19.5326 7.32797C20.0799 8.6643 20.0918 9.3731 20.5081 9.94151C20.9126 10.2596 21.2976 9.70253 21.7292 9.84854C22.0609 9.94145 22.3745 10.5725 22.2971 11.4231C22.2325 12.1316 21.9654 12.5846 21.7537 12.7769C21.4463 12.9765 20.9793 12.5258 20.7689 13.1874C18.8867 20.8347 10.4294 20.8366 8.55458 13.1887ZM11.6817 19.2687C13.5302 20.3184 15.7946 20.3184 17.6431 19.2687C17.872 20.0631 18.2844 20.7927 18.8472 21.3982C18.5723 22.2643 16.5938 23.9033 14.6656 25.0997C12.7297 23.9033 10.7512 22.2604 10.4828 21.3982C11.0431 20.7917 11.4537 20.0624 11.6817 19.2687ZM1.11288 29.1587C0.71832 24.8252 3.09391 23.7506 6.73482 22.5611C6.56706 23.2564 6.43782 23.9604 6.34764 24.6699C4.08993 25.3512 4.21199 27.4287 4.5666 29.3329C4.07112 30.0065 4.90862 30.9238 5.62365 30.4828C6.15669 30.1918 6.13623 29.3703 5.59909 29.0967C5.39855 27.7012 5.01672 25.9761 6.92768 25.6922C8.73835 25.6122 8.77194 27.3661 8.90953 28.6928C8.44518 29.0941 8.65461 29.8944 9.24649 30.037C10.0251 30.274 10.614 29.2082 9.97171 28.6928C9.85465 26.9016 9.5753 24.9038 7.42015 24.6145C7.53701 23.8045 7.7047 23.0028 7.9222 22.2139C8.26737 22.1232 8.4263 22.071 9.54452 21.8667C10.2299 23.4735 13.0821 25.3643 14.1365 26.0096V33.9314C7.93787 33.6775 1.11801 32.4096 1.11288 29.1587ZM28.2157 29.1587C28.2141 32.4032 21.3959 33.6791 15.1896 33.9314V26.0096C16.2608 25.3475 19.1518 23.4283 19.7983 21.8202C20.3212 21.9194 20.8265 22.0492 21.3251 22.1816C21.6283 23.2904 21.8338 24.4236 21.9394 25.5682C19.4713 26.4565 20.73 30.1493 23.2266 29.3455C25.1143 28.7674 24.9352 25.862 23.0029 25.5062C22.9089 24.5066 22.7455 23.5147 22.5138 22.5378C26.1733 23.7194 28.6244 24.7999 28.2157 29.1587ZM22.5848 26.5142C23.7975 26.5263 23.8005 28.3661 22.5839 28.3719C21.3666 28.3635 21.3748 26.5241 22.5874 26.5142H22.5848Z" fill="#336AEA"/>
</svg>
