<svg width="63" height="63" viewBox="0 0 63 63" fill="none" xmlns="http://www.w3.org/2000/svg">
<g clip-path="url(#clip0_10063_121)">
<path d="M6.67167 54.495L5.36337 59.3103C5.22208 59.8075 5.21617 60.3335 5.34623 60.8338C5.4763 61.3341 5.73762 61.7905 6.10319 62.156C6.46877 62.5215 6.92532 62.7827 7.42564 62.9126C7.92597 63.0425 8.45192 63.0364 8.94912 62.895L17.3271 60.6207C20.2188 61.508 23.2273 61.9561 26.2521 61.95C40.7263 61.95 52.5021 51.8217 52.5021 39.375C52.5021 38.9015 52.479 38.43 52.4454 37.967L55.3182 38.7471C55.5512 38.8131 55.7921 38.8467 56.0343 38.8469C56.433 38.8451 56.8259 38.7515 57.1826 38.5733C57.5393 38.3951 57.8501 38.1371 58.0909 37.8193C58.3317 37.5015 58.496 37.1325 58.5711 36.7409C58.6462 36.3493 58.63 35.9457 58.5238 35.5614L57.4665 31.647C59.2404 30.0544 60.6523 28.1 61.6072 25.9157C62.5621 23.7313 63.0377 21.3677 63.0021 18.984C63.0021 8.5155 53.11 0 40.9521 0C29.2057 0 19.7473 7.70805 18.9819 17.6873C8.03352 20.4067 0.00206919 29.0976 0.00206919 39.375C-0.0391316 42.2267 0.535385 45.0537 1.68641 47.663C2.83744 50.2724 4.53787 52.6028 6.67167 54.495ZM40.9521 2.1C51.9529 2.1 60.9021 9.6747 60.9021 18.984C60.9347 21.1759 60.4755 23.3472 59.5582 25.3383C58.6409 27.3293 57.2889 29.0893 55.6017 30.4889C55.4497 30.6179 55.3376 30.7875 55.2784 30.9779C55.2193 31.1683 55.2156 31.3716 55.2678 31.5641L56.4994 36.12C56.5251 36.2036 56.5271 36.2927 56.5053 36.3774C56.4834 36.4621 56.4385 36.5391 56.3755 36.5998C56.3117 36.6646 56.2314 36.7105 56.1432 36.7328C56.0551 36.755 55.9626 36.7526 55.8757 36.7259L52.1514 35.7126C50.1091 25.0005 39.2721 16.8 26.2521 16.8C24.5352 16.7999 22.8214 16.9453 21.1291 17.2347C22.1718 8.77695 30.7429 2.1 40.9521 2.1ZM26.2521 18.9C39.5692 18.9 50.4021 28.0854 50.4021 39.375C50.4021 50.6646 39.5692 59.85 26.2521 59.85C23.3394 59.8561 20.4435 59.4091 17.6683 58.5249C17.4752 58.4633 17.2685 58.459 17.073 58.5123L8.39262 60.8675C8.25352 60.9079 8.10612 60.9103 7.9658 60.8743C7.82548 60.8384 7.69737 60.7654 7.59483 60.6631C7.4923 60.5608 7.41909 60.4328 7.38286 60.2926C7.34662 60.1523 7.34868 60.0049 7.38882 59.8658L8.86932 54.4163C8.92194 54.2239 8.91868 54.0205 8.85992 53.8299C8.80116 53.6393 8.68933 53.4694 8.53752 53.34C6.49038 51.6403 4.84981 49.5038 3.7362 47.0873C2.6226 44.6707 2.06423 42.0355 2.10207 39.375C2.10207 28.0854 12.9349 18.9 26.2521 18.9Z" fill="white"/>
<path d="M12.6008 47.2498H17.8508C18.1293 47.2498 18.3963 47.1392 18.5932 46.9423C18.7902 46.7454 18.9008 46.4783 18.9008 46.1998C18.9008 45.9213 18.7902 45.6543 18.5932 45.4573C18.3963 45.2604 18.1293 45.1498 17.8508 45.1498H13.6508V33.5998C13.6508 33.3213 13.5402 33.0543 13.3432 32.8573C13.1463 32.6604 12.8793 32.5498 12.6008 32.5498C12.3223 32.5498 12.0552 32.6604 11.8583 32.8573C11.6614 33.0543 11.5508 33.3213 11.5508 33.5998V46.1998C11.5508 46.4783 11.6614 46.7454 11.8583 46.9423C12.0552 47.1392 12.3223 47.2498 12.6008 47.2498Z" fill="white"/>
<path d="M27.3319 46.4541C27.3888 46.6811 27.5199 46.8826 27.7044 47.0266C27.889 47.1706 28.1163 47.2488 28.3504 47.2488C28.5844 47.2488 28.8118 47.1706 28.9963 47.0266C29.1808 46.8826 29.312 46.6811 29.3689 46.4541L32.5189 33.8541C32.5559 33.7191 32.5655 33.5781 32.5473 33.4394C32.529 33.3006 32.4832 33.167 32.4126 33.0462C32.3419 32.9254 32.2478 32.8199 32.1358 32.736C32.0238 32.6521 31.8962 32.5915 31.7604 32.5576C31.6246 32.5237 31.4835 32.5173 31.3452 32.5388C31.2069 32.5603 31.0743 32.6091 30.9552 32.6826C30.8361 32.756 30.7329 32.8525 30.6516 32.9664C30.5703 33.0803 30.5126 33.2093 30.4819 33.3459L28.3504 41.8708L26.2189 33.3459C26.1463 33.0814 25.9732 32.8557 25.7365 32.7172C25.4997 32.5787 25.2182 32.5384 24.9521 32.6048C24.686 32.6712 24.4564 32.839 24.3125 33.0725C24.1685 33.306 24.1217 33.5865 24.1819 33.8541L27.3319 46.4541Z" fill="white"/>
<path d="M20.9992 47.2498C21.2777 47.2498 21.5448 47.1392 21.7417 46.9423C21.9386 46.7454 22.0492 46.4783 22.0492 46.1998V33.5998C22.0492 33.3213 21.9386 33.0543 21.7417 32.8573C21.5448 32.6604 21.2777 32.5498 20.9992 32.5498C20.7207 32.5498 20.4537 32.6604 20.2568 32.8573C20.0598 33.0543 19.9492 33.3213 19.9492 33.5998V46.1998C19.9492 46.4783 20.0598 46.7454 20.2568 46.9423C20.4537 47.1392 20.7207 47.2498 20.9992 47.2498Z" fill="white"/>
<path d="M35.6984 47.2498H40.9484C41.2269 47.2498 41.494 47.1392 41.6909 46.9423C41.8878 46.7454 41.9984 46.4783 41.9984 46.1998C41.9984 45.9213 41.8878 45.6543 41.6909 45.4573C41.494 45.2604 41.2269 45.1498 40.9484 45.1498H36.7484V40.9498H39.8984C40.1769 40.9498 40.444 40.8392 40.6409 40.6423C40.8378 40.4454 40.9484 40.1783 40.9484 39.8998C40.9484 39.6213 40.8378 39.3543 40.6409 39.1573C40.444 38.9604 40.1769 38.8498 39.8984 38.8498H36.7484V34.6498H40.9484C41.2269 34.6498 41.494 34.5392 41.6909 34.3423C41.8878 34.1454 41.9984 33.8783 41.9984 33.5998C41.9984 33.3213 41.8878 33.0543 41.6909 32.8573C41.494 32.6604 41.2269 32.5498 40.9484 32.5498H35.6984C35.42 32.5498 35.1529 32.6604 34.956 32.8573C34.7591 33.0543 34.6484 33.3213 34.6484 33.5998V46.1998C34.6484 46.4783 34.7591 46.7454 34.956 46.9423C35.1529 47.1392 35.42 47.2498 35.6984 47.2498Z" fill="white"/>
</g>
<defs>
<clipPath id="clip0_10063_121">
<rect width="63" height="63" fill="white"/>
</clipPath>
</defs>
</svg>
