<svg width="28" height="38" viewBox="0 0 28 38" fill="none" xmlns="http://www.w3.org/2000/svg">
<path d="M13.0737 37.5042C13.2802 37.8139 13.6278 38 14 38C14.3722 38 14.7198 37.814 14.9263 37.5042C17.561 33.5523 21.4417 28.6716 24.1459 23.7078C26.3082 19.7388 27.3594 16.3538 27.3594 13.3594C27.3594 5.99302 21.3664 0 14 0C6.63364 0 0.640625 5.99302 0.640625 13.3594C0.640625 16.3538 1.69178 19.7388 3.85407 23.7078C6.5563 28.6678 10.4444 33.5605 13.0737 37.5042ZM14 2.22656C20.1386 2.22656 25.1328 7.22074 25.1328 13.3594C25.1328 15.9722 24.1704 19.0088 22.1907 22.6426C19.8597 26.9212 16.5334 31.2615 14 34.9102C11.467 31.262 8.14043 26.9214 5.80929 22.6426C3.82958 19.0088 2.86719 15.9722 2.86719 13.3594C2.86719 7.22074 7.86137 2.22656 14 2.22656Z" fill="#336AEA"/>
<path d="M14 20.0391C17.6832 20.0391 20.6797 17.0426 20.6797 13.3594C20.6797 9.6762 17.6832 6.67969 14 6.67969C10.3168 6.67969 7.32031 9.6762 7.32031 13.3594C7.32031 17.0426 10.3168 20.0391 14 20.0391ZM14 8.90625C16.4555 8.90625 18.4531 10.9039 18.4531 13.3594C18.4531 15.8148 16.4555 17.8125 14 17.8125C11.5445 17.8125 9.54688 15.8148 9.54688 13.3594C9.54688 10.9039 11.5445 8.90625 14 8.90625Z" fill="#336AEA"/>
</svg>
