<svg width="38" height="38" viewBox="0 0 38 38" fill="none" xmlns="http://www.w3.org/2000/svg">
<path d="M7.74567 25.2598C11.4937 29.7402 16.0055 33.2677 21.1551 35.7638C23.1157 36.6929 25.7378 37.7953 28.6591 37.9843C28.8402 37.9921 29.0134 38 29.1945 38C31.1551 38 32.7299 37.3228 34.0134 35.9291C34.0213 35.9213 34.037 35.9055 34.0449 35.8898C34.5016 35.3386 35.0213 34.8425 35.5646 34.315C35.9346 33.9606 36.3126 33.5905 36.6748 33.2126C38.352 31.4646 38.352 29.2441 36.659 27.5512L31.9268 22.8189C31.1236 21.9843 30.163 21.5433 29.1551 21.5433C28.1472 21.5433 27.1787 21.9843 26.352 22.811L23.5331 25.6299C23.2732 25.4803 23.0055 25.3465 22.7535 25.2205C22.4386 25.063 22.1472 24.9134 21.8874 24.748C19.3205 23.1181 16.9898 20.9921 14.7614 18.2598C13.6354 16.8346 12.8795 15.6378 12.352 14.4173C13.0921 13.748 13.785 13.0472 14.4543 12.3622C14.6905 12.1181 14.9346 11.874 15.1787 11.6299C16.0291 10.7795 16.4858 9.79528 16.4858 8.79528C16.4858 7.79528 16.037 6.81102 15.1787 5.96063L12.8323 3.61417C12.5567 3.33858 12.2968 3.07087 12.0291 2.79528C11.5094 2.25984 10.9661 1.70866 10.4307 1.2126C9.61968 0.417323 8.66693 0 7.65905 0C6.65905 0 5.69842 0.417323 4.8559 1.22047L1.91102 4.16535C0.840155 5.23622 0.233856 6.53543 0.107872 8.03937C-0.0417347 9.92126 0.304722 11.9213 1.20236 14.3386C2.58031 18.0787 4.65905 21.5512 7.74567 25.2598ZM2.02913 8.20472C2.12362 7.15748 2.52519 6.28346 3.2811 5.52756L6.21023 2.59843C6.66693 2.15748 7.17086 1.92913 7.65905 1.92913C8.13937 1.92913 8.62756 2.15748 9.07638 2.61417C9.60393 3.10236 10.1 3.61417 10.6354 4.15748C10.9031 4.43307 11.1787 4.70866 11.4543 4.99213L13.8008 7.33858C14.289 7.82677 14.5409 8.32283 14.5409 8.81102C14.5409 9.29921 14.289 9.79528 13.8008 10.2835C13.5567 10.5276 13.3126 10.7795 13.0685 11.0236C12.3362 11.7638 11.6512 12.4646 10.8953 13.1339C10.8795 13.1496 10.8717 13.1575 10.8559 13.1732C10.2024 13.8268 10.3047 14.4488 10.4622 14.9213C10.4701 14.9449 10.478 14.9606 10.4858 14.9843C11.0921 16.4409 11.9346 17.8268 13.2496 19.4803C15.6118 22.3937 18.1 24.6535 20.8402 26.3937C21.1787 26.6142 21.5409 26.7874 21.8795 26.9606C22.1945 27.1181 22.4858 27.2677 22.7457 27.4331C22.7772 27.4488 22.8008 27.4646 22.8323 27.4803C23.0921 27.6142 23.3441 27.6772 23.5961 27.6772C24.226 27.6772 24.6354 27.2756 24.7693 27.1417L27.7142 24.1968C28.1709 23.7402 28.6669 23.4961 29.1551 23.4961C29.7535 23.4961 30.2417 23.8661 30.5488 24.1968L35.2968 28.937C36.2417 29.8819 36.2339 30.9055 35.2732 31.9055C34.9425 32.2598 34.5961 32.5984 34.226 32.9528C33.6748 33.4882 33.1 34.0394 32.5803 34.6614C31.6748 35.6378 30.5961 36.0945 29.2024 36.0945C29.0685 36.0945 28.9268 36.0866 28.7929 36.0787C26.2102 35.9134 23.8087 34.9055 22.0055 34.0472C17.1079 31.6772 12.8087 28.315 9.24173 24.0472C6.30472 20.5118 4.32834 17.2205 3.02126 13.6929C2.21023 11.5276 1.90315 9.7874 2.02913 8.20472Z" fill="#336AEA"/>
</svg>
