<svg width="60" height="60" viewBox="0 0 60 60" fill="none" xmlns="http://www.w3.org/2000/svg">
<path d="M50.8409 37.0343C48.5688 37.0342 46.457 38.0067 44.9916 39.6839C44.6802 39.3295 44.3382 39.009 43.9735 38.7206C46.3476 36.4611 48.0446 33.785 48.9744 30.8759C50.499 30.8474 51.9556 30.2841 53.0559 29.2766C54.1593 28.2663 54.7617 26.9374 54.7519 25.5409C54.7519 24.2948 54.2751 23.1057 53.4042 22.1527C53.3025 16.3726 50.7533 10.9267 46.1968 6.78293C45.8375 6.45633 45.2817 6.48281 44.9552 6.84188C44.6286 7.20094 44.6551 7.75687 45.0141 8.08348C49.0551 11.7584 51.3819 16.5314 51.6293 21.6083C50.8162 21.5632 50.0069 21.4573 49.2107 21.2916C47.7845 17.5459 43.9616 13.1696 38.5961 11.9709C38.1317 11.8672 37.6695 12.1515 37.5526 12.6127C37.2379 13.8529 36.663 15.1533 35.8899 16.3736C34.7814 18.1228 33.3914 19.5304 31.9755 20.3372C30.7512 21.035 29.6511 21.1828 28.9572 20.7434C28.213 20.2717 27.8865 19.1153 28.0618 17.5705C28.1011 17.2243 27.9322 16.8877 27.6311 16.7121C27.3302 16.5367 26.9538 16.5555 26.6721 16.7603C23.3662 19.1612 20.1093 19.4575 19.1415 18.228C18.3386 17.2082 18.8989 15.1468 20.5357 13.0988C20.7508 12.8293 20.7887 12.4591 20.6326 12.1519C20.4764 11.8446 20.1557 11.6558 19.8105 11.6719C16.7787 11.8045 13.861 12.9935 11.3727 15.1103C9.37062 16.8134 7.76598 19.0508 6.9132 21.3117C6.18781 21.4773 5.40055 21.5764 4.5016 21.6148C5.03691 10.5851 15.4016 1.75781 28.0654 1.75781C33.0596 1.75781 37.8329 3.11566 41.8691 5.68453C42.2787 5.94527 42.8218 5.82457 43.0824 5.415C43.343 5.00543 43.2223 4.46215 42.8129 4.20164C38.4942 1.45289 33.3945 0 28.0654 0C21.316 0 14.9657 2.32852 10.1841 6.55676C5.46793 10.7271 2.83015 16.2536 2.72691 22.1525C1.85574 23.1056 1.37902 24.2943 1.37902 25.5347C1.3693 26.9373 1.97152 28.266 3.07496 29.2764C4.17816 30.2866 5.63949 30.8503 7.16844 30.8761C8.87574 36.1644 13.0609 40.5301 18.5298 42.9135C14.2856 45.5589 11.2685 49.893 10.3189 54.8304C10.1138 55.8966 10.3928 56.988 11.0841 57.825C11.7751 58.6616 12.7937 59.1414 13.8785 59.1414H17.6769C18.1624 59.1414 18.5558 58.748 18.5558 58.2625C18.5558 57.777 18.1624 57.3836 17.6769 57.3836H13.8786C13.3198 57.3836 12.7953 57.1365 12.4394 56.7055C12.0832 56.2741 11.9394 55.7118 12.0452 55.1623C12.989 50.2541 16.1974 46.0053 20.6574 43.7269C20.4958 47.9048 23.8843 51.4186 28.0655 51.4096C29.8101 51.4096 31.4771 50.7966 32.7982 49.6989C34.3991 52.6073 37.1325 55.3516 39.8394 57.3836H21.7786C21.293 57.3836 20.8996 57.777 20.8996 58.2625C20.8996 58.748 21.293 59.1414 21.7786 59.1414H42.4659C42.6991 59.278 42.9289 59.4074 43.1544 59.5289C43.7376 59.8431 44.3769 59.9999 45.0161 59.9999C45.6591 59.9999 46.3023 59.841 46.888 59.5233C51.7652 56.8778 58.6298 50.5618 58.6213 44.803C58.6148 40.5169 55.1258 37.0343 50.8409 37.0343ZM52.1498 23.3855C52.6962 24.0054 52.994 24.7603 52.994 25.547C53.0003 26.4459 52.6007 27.3101 51.8689 27.9802C51.2056 28.5874 50.3552 28.9672 49.443 29.0824C49.6797 27.9311 49.8018 26.7512 49.8018 25.5527C49.8018 24.7529 49.745 23.9507 49.6339 23.1552C50.4655 23.2903 51.3068 23.3677 52.1498 23.3855ZM4.26207 27.9799C3.53023 27.3098 3.13062 26.4458 3.13695 25.5409C3.13695 24.7607 3.43402 24.0071 3.97894 23.3878C4.90215 23.3736 5.72773 23.3066 6.4932 23.1826C6.38469 23.9691 6.32926 24.7621 6.32926 25.5527C6.32926 26.7584 6.45535 27.9383 6.69418 29.0835C5.77965 28.9693 4.92687 28.5887 4.26207 27.9799ZM8.08695 25.5527C8.08695 24.4549 8.20508 23.3517 8.43699 22.2727C9.66769 18.624 13.3197 14.6855 18.03 13.6682C16.7983 15.8652 16.6728 17.9338 17.7601 19.3151C19.2931 21.2626 22.7976 21.1146 26.2995 19.0959C26.4536 20.5114 27.0462 21.6134 28.0162 22.2279C29.296 23.0391 31.0111 22.9097 32.8455 21.8643C34.5066 20.9176 36.1149 19.3017 37.3743 17.3141C38.073 16.2116 38.6298 15.0441 39.0083 13.8937C43.4844 15.2311 46.6146 19.0745 47.6921 22.2652C47.9252 23.3464 48.0438 24.4522 48.0438 25.5526C48.0269 30.2643 46.0154 34.487 42.4194 37.7646C41.415 37.3015 40.3072 37.0515 39.1576 37.0515C39.1537 37.0515 39.1497 37.0515 39.1456 37.0515C35.5498 37.0569 32.5207 39.5141 31.6379 42.8355C30.4626 43.0221 29.2636 43.1171 28.0651 43.1171C17.0493 43.1173 8.08695 35.2379 8.08695 25.5527ZM28.0654 49.6519C25.019 49.6519 22.529 47.2305 22.4151 44.2116C24.2177 44.6433 26.1116 44.8751 28.0654 44.8751C29.1757 44.8751 30.2867 44.7993 31.3817 44.6502C31.3482 45.7818 31.5888 46.9029 32.0197 48.0354C30.9659 49.0676 29.5525 49.6519 28.0654 49.6519ZM46.0497 57.9782C45.4046 58.3282 44.6339 58.3293 43.9878 57.9812C39.0075 55.0615 33.6178 50.4536 33.1348 44.8412C33.1299 41.5201 35.8277 38.8144 39.1486 38.8093C41.2303 38.8056 43.1376 39.8618 44.2509 41.6191C44.412 41.874 44.6923 42.0284 44.9937 42.0284C45.2969 42.0279 45.5773 41.8726 45.738 41.6169C46.8474 39.8511 48.7516 38.7949 50.8318 38.7919H50.8409C54.1573 38.7919 56.8584 41.4879 56.8634 44.8056C56.8701 49.3154 51.2557 55.1545 46.0497 57.9782Z" fill="#336AEA"/>
<path d="M48.0342 46.292H47.7268V45.9845C47.7268 44.9225 46.8629 44.0586 45.8009 44.0586H44.1978C43.1358 44.0586 42.2719 44.9225 42.2719 45.9845V46.292H41.9644C40.9025 46.292 40.0386 47.1559 40.0386 48.2178V49.8209C40.0386 50.8829 40.9025 51.7468 41.9644 51.7468H42.2719V52.0543C42.2719 53.1163 43.1358 53.9802 44.1978 53.9802H45.8009C46.8629 53.9802 47.7268 53.1163 47.7268 52.0543V51.7468H48.0342C49.0961 51.7468 49.9601 50.8829 49.9601 49.8209V48.2178C49.9601 47.1559 49.0961 46.292 48.0342 46.292ZM48.2023 49.8209C48.2023 49.9136 48.1269 49.9891 48.034 49.9891H46.8478C46.3622 49.9891 45.9688 50.3825 45.9688 50.868V52.0544C45.9688 52.1471 45.8934 52.2226 45.8007 52.2226H44.1976C44.1049 52.2226 44.0294 52.1471 44.0294 52.0544V50.868C44.0294 50.3825 43.636 49.9891 43.1505 49.9891H41.9641C41.8714 49.9891 41.7959 49.9136 41.7959 49.8209V48.2178C41.7959 48.1251 41.8714 48.0496 41.9641 48.0496H43.1505C43.636 48.0496 44.0294 47.6563 44.0294 47.1707V45.9845C44.0294 45.8918 44.1049 45.8163 44.1976 45.8163H45.8007C45.8934 45.8163 45.9688 45.8918 45.9688 45.9845V47.1709C45.9688 47.6564 46.3622 48.0498 46.8478 48.0498H48.034C48.1269 48.0498 48.2023 48.1252 48.2023 48.2179V49.8209Z" fill="#336AEA"/>
<path d="M20.7471 25.8467C20.2616 25.8467 19.8682 26.2401 19.8682 26.7256V28.1318C19.8682 28.6173 20.2616 29.0107 20.7471 29.0107C21.2326 29.0107 21.626 28.6173 21.626 28.1318V26.7256C21.626 26.2401 21.2325 25.8467 20.7471 25.8467Z" fill="#336AEA"/>
<path d="M35.3838 29.0107C35.8693 29.0107 36.2627 28.6173 36.2627 28.1318V26.7256C36.2627 26.2401 35.8693 25.8467 35.3838 25.8467C34.8983 25.8467 34.5049 26.2401 34.5049 26.7256V28.1318C34.5049 28.6172 34.8983 29.0107 35.3838 29.0107Z" fill="#336AEA"/>
<path d="M30.6575 28.6672C30.9765 28.3014 30.9381 27.7461 30.5722 27.4273C30.2062 27.1083 29.651 27.1465 29.3322 27.5126C29.0125 27.8795 28.5507 28.09 28.0655 28.09C27.5802 28.09 27.1185 27.8795 26.7988 27.5126C26.48 27.1465 25.9247 27.1085 25.5589 27.4273C25.1929 27.7461 25.1547 28.3014 25.4736 28.6672C26.1272 29.4175 27.0719 29.8477 28.0655 29.8477C29.0592 29.8477 30.0038 29.4175 30.6575 28.6672Z" fill="#336AEA"/>
</svg>
