<svg width="15" height="15" viewBox="0 0 15 15" fill="none" xmlns="http://www.w3.org/2000/svg">
<g clip-path="url(#clip0_9849_456)">
<path d="M14.1566 5.44472C14.0636 5.15731 13.8087 4.95319 13.5071 4.926L9.41048 4.55402L7.79056 0.762433C7.67111 0.484559 7.39909 0.304688 7.09685 0.304688C6.79461 0.304688 6.52258 0.484559 6.40314 0.763083L4.78321 4.55402L0.685913 4.926C0.384864 4.95383 0.130597 5.15731 0.037142 5.44472C-0.0563131 5.73212 0.0299948 6.04736 0.257731 6.24607L3.35431 8.96179L2.4412 12.984C2.37439 13.2798 2.48917 13.5855 2.73456 13.7629C2.86646 13.8582 3.02077 13.9067 3.17639 13.9067C3.31056 13.9067 3.44365 13.8705 3.5631 13.799L7.09685 11.687L10.6293 13.799C10.8878 13.9545 11.2136 13.9404 11.4585 13.7629C11.704 13.5849 11.8187 13.2791 11.7518 12.984L10.8387 8.96179L13.9353 6.24661C14.163 6.04736 14.25 5.73266 14.1566 5.44472Z" fill="#FFAB31"/>
</g>
<defs>
<clipPath id="clip0_9849_456">
<rect width="14.1935" height="14.1935" fill="white"/>
</clipPath>
</defs>
</svg>
