<svg width="20" height="20" viewBox="0 0 20 20" fill="none" xmlns="http://www.w3.org/2000/svg">
<path d="M10.0002 10.75C11.0385 10.75 12.0536 10.4421 12.9169 9.86522C13.7803 9.28834 14.4532 8.4684 14.8505 7.50909C15.2479 6.54978 15.3519 5.49418 15.1493 4.47578C14.9467 3.45738 14.4467 2.52192 13.7125 1.78769C12.9783 1.05347 12.0428 0.553452 11.0244 0.35088C10.006 0.148307 8.9504 0.252275 7.99108 0.649635C7.03177 1.04699 6.21183 1.7199 5.63496 2.58326C5.05808 3.44662 4.75017 4.46165 4.75017 5.5C4.75017 6.89239 5.30329 8.22775 6.28786 9.21231C7.27243 10.1969 8.60778 10.75 10.0002 10.75ZM10.0002 1.75C10.7419 1.75 11.4669 1.96994 12.0836 2.38199C12.7002 2.79405 13.1809 3.37972 13.4647 4.06494C13.7485 4.75016 13.8228 5.50416 13.6781 6.23159C13.5334 6.95902 13.1763 7.62721 12.6518 8.15165C12.1274 8.6761 11.4592 9.03325 10.7318 9.17795C10.0043 9.32264 9.25033 9.24838 8.56511 8.96455C7.87989 8.68072 7.29421 8.20008 6.88216 7.58339C6.4701 6.96671 6.25017 6.24168 6.25017 5.5C6.25017 4.50544 6.64526 3.55161 7.34852 2.84835C8.05178 2.14509 9.00561 1.75 10.0002 1.75ZM19.0002 16.24C18.5872 14.8039 17.7197 13.5405 16.528 12.639C15.3363 11.7375 13.8844 11.2467 12.3902 11.24H7.62017C6.12632 11.2483 4.67525 11.7398 3.48383 12.641C2.29242 13.5422 1.42463 14.8048 1.01017 16.24H1.00017C0.882495 16.6492 0.861452 17.0802 0.9387 17.4989C1.01595 17.9176 1.18938 18.3127 1.44532 18.653C1.70127 18.9933 2.03274 19.2695 2.41361 19.4599C2.79449 19.6502 3.21437 19.7496 3.64017 19.75H16.3402C16.7677 19.7527 17.1899 19.6556 17.5733 19.4666C17.9567 19.2776 18.2908 19.0017 18.549 18.661C18.8072 18.3203 18.9824 17.9241 19.0608 17.5038C19.1391 17.0836 19.1183 16.6508 19.0002 16.24ZM17.3602 17.75C17.2437 17.9052 17.0928 18.0313 16.9192 18.118C16.7456 18.2048 16.5542 18.25 16.3602 18.25H3.65017C3.45724 18.2496 3.26702 18.2045 3.09442 18.1182C2.92183 18.032 2.77153 17.907 2.65531 17.753C2.53908 17.599 2.46008 17.4202 2.42449 17.2306C2.3889 17.041 2.39769 16.8457 2.45017 16.66C2.77448 15.5384 3.45358 14.5521 4.38567 13.849C5.31776 13.1459 6.45263 12.7638 7.62017 12.76H12.3802C13.5494 12.7628 14.686 13.1457 15.6186 13.851C16.5512 14.5563 17.2291 15.5457 17.5502 16.67C17.602 16.8533 17.611 17.0461 17.5763 17.2334C17.5416 17.4207 17.4642 17.5974 17.3502 17.75H17.3602Z" fill="#336AEA"/>
</svg>
