<svg width="44" height="44" viewBox="0 0 44 44" fill="none" xmlns="http://www.w3.org/2000/svg">
<g clip-path="url(#clip0_9859_10)">
<path d="M43.3125 35.75H39.7616C39.8362 35.5356 39.8745 35.3102 39.875 35.0831V22.6875C39.875 22.5052 39.8026 22.3303 39.6736 22.2014C39.5447 22.0724 39.3698 22 39.1875 22C39.0052 22 38.8303 22.0724 38.7014 22.2014C38.5724 22.3303 38.5 22.5052 38.5 22.6875V35.0831C38.5 35.26 38.4297 35.4296 38.3047 35.5547C38.1796 35.6797 38.01 35.75 37.8331 35.75H31.625V33.66C31.6109 30.9581 30.7158 28.3345 29.0755 26.1874C27.4352 24.0403 25.1394 22.4869 22.5362 21.7628C23.5132 21.1858 24.3251 20.3668 24.8935 19.3848C25.4619 18.4027 25.7676 17.2908 25.7812 16.1562V7.5625C25.7472 6.66168 25.3741 5.80697 24.7367 5.16955C24.0993 4.53212 23.2446 4.15903 22.3438 4.125H16.1562C15.2554 4.15903 14.4007 4.53212 13.7633 5.16955C13.1259 5.80697 12.7528 6.66168 12.7188 7.5625V16.1562C12.7323 17.2934 13.0394 18.4077 13.6104 19.3912C14.1813 20.3748 14.9967 21.194 15.9775 21.7697C13.981 22.3373 12.1609 23.4017 10.6872 24.8634C9.48592 26.0466 8.53063 27.4557 7.87636 29.0097C7.22209 30.5637 6.88177 32.2317 6.875 33.9178V35.75H6.16688C5.99001 35.75 5.82039 35.6797 5.69532 35.5547C5.57026 35.4296 5.5 35.26 5.5 35.0831V13.0419C5.5 12.865 5.57026 12.6954 5.69532 12.5703C5.82039 12.4453 5.99001 12.375 6.16688 12.375H10.6562C10.8386 12.375 11.0135 12.3026 11.1424 12.1736C11.2713 12.0447 11.3438 11.8698 11.3438 11.6875C11.3438 11.5052 11.2713 11.3303 11.1424 11.2014C11.0135 11.0724 10.8386 11 10.6562 11H6.16688C5.627 11.0054 5.11076 11.2222 4.72899 11.604C4.34722 11.9858 4.13037 12.502 4.125 13.0419V35.0831C4.12547 35.3102 4.16381 35.5356 4.23844 35.75H0.6875C0.505164 35.75 0.330295 35.8224 0.201364 35.9514C0.0724328 36.0803 0 36.2552 0 36.4375L0 36.6094C0 38.1562 1.24781 39.875 2.92188 39.875H41.0781C42.7522 39.875 44 38.1562 44 36.6094V36.4375C44 36.2552 43.9276 36.0803 43.7986 35.9514C43.6697 35.8224 43.4948 35.75 43.3125 35.75ZM14.0938 7.5625C14.1263 7.02615 14.3541 6.52027 14.7341 6.14031C15.114 5.76036 15.6199 5.53259 16.1562 5.5H22.3438C22.8801 5.53259 23.386 5.76036 23.7659 6.14031C24.1459 6.52027 24.3737 7.02615 24.4062 7.5625V11H14.0938V7.5625ZM14.0938 16.1562V12.375H24.4062V16.1562C24.3723 17.5131 23.8181 18.8049 22.8584 19.7647C21.8987 20.7244 20.6068 21.2785 19.25 21.3125C17.8932 21.2785 16.6013 20.7244 15.6416 19.7647C14.6819 18.8049 14.1277 17.5131 14.0938 16.1562ZM8.25 33.9178C8.25684 32.4143 8.56071 30.927 9.14413 29.5412C9.72756 28.1555 10.5791 26.8988 11.6497 25.8431C12.6221 24.8843 13.7629 24.1128 15.015 23.5675C14.6713 24.4922 14.3894 25.5578 14.2313 26.1731C13.5101 26.2862 12.8547 26.6574 12.3868 27.2177C11.9188 27.7779 11.6703 28.489 11.6875 29.2188V33.6875C11.6875 33.8698 11.7599 34.0447 11.8889 34.1736C12.0178 34.3026 12.1927 34.375 12.375 34.375H13.0625C13.2448 34.375 13.4197 34.3026 13.5486 34.1736C13.6776 34.0447 13.75 33.8698 13.75 33.6875C13.75 33.5052 13.6776 33.3303 13.5486 33.2014C13.4197 33.0724 13.2448 33 13.0625 33V29.2188C13.0543 28.9908 13.0932 28.7637 13.1767 28.5515C13.2602 28.3392 13.3865 28.1465 13.5477 27.9852C13.709 27.824 13.9017 27.6977 14.114 27.6142C14.3262 27.5307 14.5533 27.4918 14.7812 27.5C15.0092 27.4918 15.2363 27.5307 15.4485 27.6142C15.6608 27.6977 15.8535 27.824 16.0148 27.9852C16.176 28.1465 16.3023 28.3392 16.3858 28.5515C16.4693 28.7637 16.5082 28.9908 16.5 29.2188V33C16.3177 33 16.1428 33.0724 16.0139 33.2014C15.8849 33.3303 15.8125 33.5052 15.8125 33.6875C15.8125 33.8698 15.8849 34.0447 16.0139 34.1736C16.1428 34.3026 16.3177 34.375 16.5 34.375H17.1875C17.3698 34.375 17.5447 34.3026 17.6736 34.1736C17.8026 34.0447 17.875 33.8698 17.875 33.6875V29.2188C17.8907 28.5429 17.6785 27.8814 17.2726 27.3408C16.8666 26.8002 16.2906 26.4119 15.6372 26.2384C15.9088 25.2072 16.3591 23.6912 16.7475 23.0381C16.7475 23.0175 16.7647 22.9969 16.775 22.9797C17.6471 22.7702 18.5423 22.6721 19.4391 22.6875C20.6 22.7084 21.75 22.915 22.8456 23.2994C23.5503 24.5712 23.8769 26.3931 23.9972 27.3109C23.4095 27.4873 22.9055 27.8705 22.5783 28.3896C22.2512 28.9088 22.123 29.5288 22.2174 30.1351C22.3119 30.7414 22.6226 31.293 23.0922 31.688C23.5617 32.083 24.1584 32.2947 24.7719 32.2839C25.3854 32.2732 25.9743 32.0408 26.4298 31.6296C26.8852 31.2184 27.1765 30.6562 27.2497 30.047C27.3228 29.4378 27.173 28.8226 26.8279 28.3153C26.4828 27.8079 25.9657 27.4426 25.3722 27.2869C25.2398 26.2219 25.0097 25.1713 24.6847 24.1484C26.3605 25.1099 27.754 26.4952 28.7253 28.1652C29.6967 29.8353 30.2119 31.7314 30.2191 33.6634L30.25 35.75H8.25V33.9178ZM24.75 28.5759C24.9805 28.5759 25.2058 28.6443 25.3974 28.7723C25.589 28.9004 25.7384 29.0824 25.8266 29.2953C25.9148 29.5082 25.9379 29.7425 25.8929 29.9686C25.848 30.1946 25.737 30.4023 25.574 30.5653C25.411 30.7282 25.2034 30.8392 24.9773 30.8842C24.7513 30.9291 24.517 30.9061 24.3041 30.8179C24.0911 30.7297 23.9091 30.5803 23.7811 30.3887C23.653 30.197 23.5847 29.9717 23.5847 29.7412C23.5847 29.4322 23.7075 29.1358 23.926 28.9172C24.1445 28.6987 24.4409 28.5759 24.75 28.5759ZM41.0781 38.5H2.92188C2.25156 38.5 1.66031 37.8125 1.45406 37.125H42.5459C42.3397 37.8297 41.7484 38.5 41.0781 38.5Z" fill="#336AEA"/>
<path d="M41.9376 6.875H30.9376C30.3906 6.875 29.866 7.0923 29.4792 7.47909C29.0924 7.86589 28.8751 8.39049 28.8751 8.9375V13.8669C28.8751 16.5791 28.0845 18.3734 26.4688 19.3497C26.3414 19.4269 26.2425 19.5435 26.1871 19.6818C26.1316 19.8201 26.1226 19.9727 26.1614 20.1165C26.2002 20.2604 26.2846 20.3878 26.4021 20.4795C26.5195 20.5712 26.6636 20.6223 26.8126 20.625H41.9376C42.4846 20.625 43.0092 20.4077 43.396 20.0209C43.7828 19.6341 44.0001 19.1095 44.0001 18.5625V8.9375C44.0001 8.39049 43.7828 7.86589 43.396 7.47909C43.0092 7.0923 42.4846 6.875 41.9376 6.875ZM42.6251 18.5625C42.6251 18.7448 42.5526 18.9197 42.4237 19.0486C42.2948 19.1776 42.1199 19.25 41.9376 19.25H28.6688C29.731 17.9712 30.2501 16.1906 30.2501 13.8669V8.9375C30.2501 8.75516 30.3225 8.5803 30.4514 8.45136C30.5804 8.32243 30.7552 8.25 30.9376 8.25H41.9376C42.1199 8.25 42.2948 8.32243 42.4237 8.45136C42.5526 8.5803 42.6251 8.75516 42.6251 8.9375V18.5625Z" fill="#336AEA"/>
<path d="M39.1875 11H33.6875C33.5052 11 33.3303 11.0724 33.2014 11.2014C33.0724 11.3303 33 11.5052 33 11.6875C33 11.8698 33.0724 12.0447 33.2014 12.1736C33.3303 12.3026 33.5052 12.375 33.6875 12.375H39.1875C39.3698 12.375 39.5447 12.3026 39.6736 12.1736C39.8026 12.0447 39.875 11.8698 39.875 11.6875C39.875 11.5052 39.8026 11.3303 39.6736 11.2014C39.5447 11.0724 39.3698 11 39.1875 11Z" fill="#336AEA"/>
<path d="M37.8125 15.125H33.6875C33.5052 15.125 33.3303 15.1974 33.2014 15.3264C33.0724 15.4553 33 15.6302 33 15.8125C33 15.9948 33.0724 16.1697 33.2014 16.2986C33.3303 16.4276 33.5052 16.5 33.6875 16.5H37.8125C37.9948 16.5 38.1697 16.4276 38.2986 16.2986C38.4276 16.1697 38.5 15.9948 38.5 15.8125C38.5 15.6302 38.4276 15.4553 38.2986 15.3264C38.1697 15.1974 37.9948 15.125 37.8125 15.125Z" fill="#336AEA"/>
<path d="M20.2812 7.5625H19.9375V7.21875C19.9375 7.03641 19.8651 6.86155 19.7361 6.73261C19.6072 6.60368 19.4323 6.53125 19.25 6.53125C19.0677 6.53125 18.8928 6.60368 18.7639 6.73261C18.6349 6.86155 18.5625 7.03641 18.5625 7.21875V7.5625H18.2188C18.0364 7.5625 17.8615 7.63493 17.7326 7.76386C17.6037 7.8928 17.5312 8.06766 17.5312 8.25C17.5312 8.43234 17.6037 8.6072 17.7326 8.73614C17.8615 8.86507 18.0364 8.9375 18.2188 8.9375H18.5625V9.28125C18.5625 9.46359 18.6349 9.63845 18.7639 9.76739C18.8928 9.89632 19.0677 9.96875 19.25 9.96875C19.4323 9.96875 19.6072 9.89632 19.7361 9.76739C19.8651 9.63845 19.9375 9.46359 19.9375 9.28125V8.9375H20.2812C20.4636 8.9375 20.6385 8.86507 20.7674 8.73614C20.8963 8.6072 20.9688 8.43234 20.9688 8.25C20.9688 8.06766 20.8963 7.8928 20.7674 7.76386C20.6385 7.63493 20.4636 7.5625 20.2812 7.5625Z" fill="#336AEA"/>
</g>
<defs>
<clipPath id="clip0_9859_10">
<rect width="44" height="44" fill="white"/>
</clipPath>
</defs>
</svg>
