<svg width="44" height="44" viewBox="0 0 44 44" fill="none" xmlns="http://www.w3.org/2000/svg">
<path d="M36.8983 30.4649C37.2544 30.4649 37.5428 30.1764 37.5428 29.8204V23.8087C37.5428 22.7217 36.6585 21.8373 35.5715 21.8373H34.1036C33.8438 21.8373 33.5956 21.8879 33.3683 21.9795C33.1623 21.1112 32.3803 20.4634 31.45 20.4634H30.8742C30.8698 20.2228 30.8041 19.9818 30.6741 19.7651L29.6525 18.0625C29.8257 17.7024 29.98 17.3303 30.1124 16.9533L32.0381 16.4719C32.6668 16.3147 33.1061 15.7523 33.1061 15.1041V11.5443C33.1061 10.8962 32.6669 10.3337 32.0381 10.1765L30.1125 9.69513C29.98 9.31829 29.8257 8.94618 29.6525 8.58593L30.6741 6.88334C31.0076 6.32758 30.9203 5.61937 30.462 5.16098L27.9449 2.64387C27.4866 2.18556 26.7784 2.09834 26.2226 2.43186L24.52 3.45331C24.1597 3.28015 23.7876 3.1258 23.4108 2.99346L22.9293 1.06777C22.7722 0.439141 22.2096 0 21.5615 0H18.0018C17.3536 0 16.7911 0.439141 16.6339 1.06795L16.1525 2.99363C15.7756 3.12606 15.4035 3.28032 15.0433 3.45348L13.3409 2.43203C12.7849 2.09851 12.0767 2.18565 11.6184 2.64404L11.4937 2.76873C11.242 3.02045 11.242 3.42856 11.4937 3.68019C11.7455 3.9319 12.1536 3.9319 12.4053 3.68019L12.53 3.55549C12.5692 3.51622 12.6298 3.50874 12.6776 3.53736L14.4802 4.61888C14.7951 4.80777 15.178 4.8241 15.505 4.66254C15.8847 4.47468 16.2804 4.31054 16.6813 4.17484C17.0266 4.05788 17.2858 3.77523 17.375 3.41859L17.8846 1.38067C17.898 1.32679 17.9463 1.28915 18.0018 1.28915H21.5615C21.617 1.28915 21.6653 1.32679 21.6787 1.38067L22.1883 3.41868C22.2774 3.77523 22.5368 4.05788 22.882 4.17484C23.2828 4.31063 23.6786 4.47468 24.0584 4.66263C24.385 4.82419 24.7682 4.80777 25.0831 4.61888L26.8857 3.53745C26.9333 3.50883 26.994 3.51639 27.0333 3.55558L29.5504 6.07269C29.5898 6.11205 29.5972 6.17272 29.5687 6.22033L28.4872 8.02278C28.2981 8.33783 28.2817 8.72094 28.4434 9.04776C28.6313 9.42743 28.7954 9.82326 28.9311 10.2237C29.0478 10.5691 29.3306 10.8286 29.6874 10.9178L31.7254 11.4274C31.7793 11.4409 31.8169 11.4891 31.8169 11.5446V15.1044C31.8169 15.1599 31.7793 15.2082 31.7254 15.2216L29.6875 15.731C29.3307 15.8202 29.048 16.0797 28.9312 16.4248C28.7954 16.8257 28.6313 17.2214 28.4434 17.6012C28.2817 17.928 28.2982 18.3111 28.4871 18.626L29.5686 20.4285C29.5826 20.4517 29.5879 20.4782 29.585 20.5037C29.2316 20.5763 28.9123 20.7437 28.6552 20.9782C28.3047 20.6587 27.8389 20.4636 27.3284 20.4636H25.8605C25.6208 20.4636 25.3909 20.5067 25.1782 20.5854V14.7178C25.1782 13.2541 23.988 12.0408 22.5251 12.013C21.8082 11.999 21.123 12.2741 20.6006 12.7866C20.0712 13.306 19.7676 14.0269 19.7676 14.7642V25.3596H18.0019C17.9463 25.3596 17.898 25.322 17.8846 25.2681L17.3751 23.2301C17.2859 22.8736 17.0266 22.5909 16.6813 22.4739C16.2805 22.3381 15.8847 22.174 15.505 21.9862C15.1783 21.8244 14.7951 21.8408 14.4801 22.0298L12.6775 23.1113C12.6299 23.1399 12.5692 23.1324 12.53 23.0931L10.0129 20.576C9.97358 20.5367 9.96602 20.4759 9.99464 20.4284L11.0761 18.626C11.2651 18.311 11.2815 17.9279 11.1198 17.6009C10.9319 17.2212 10.7678 16.8254 10.6321 16.4246C10.5152 16.0793 10.2324 15.82 9.87587 15.7309L7.83786 15.2214C7.78398 15.2079 7.74634 15.1597 7.74634 15.1042V11.5444C7.74634 11.4889 7.78398 11.4406 7.83786 11.4272L9.87595 10.9177C10.2324 10.8285 10.5152 10.5691 10.6321 10.2238C10.7678 9.82317 10.9319 9.42743 11.1199 9.0475C11.2815 8.72077 11.2651 8.33766 11.0761 8.0227L9.99464 6.22033C9.9661 6.17263 9.97349 6.11188 10.0128 6.0726L10.2151 5.87031C10.4669 5.61859 10.4669 5.21056 10.2152 4.95885C9.96344 4.70714 9.55532 4.70706 9.3037 4.95877L9.10131 5.16106C8.6431 5.61928 8.55587 6.32749 8.88931 6.88342L9.91085 8.58593C9.73751 8.94635 9.58325 9.31846 9.45091 9.69513L7.52522 10.1765C6.8965 10.3337 6.45728 10.8962 6.45728 11.5443V15.1041C6.45728 15.7523 6.89642 16.3147 7.52522 16.4719L9.45091 16.9533C9.58325 17.3301 9.7376 17.7023 9.91085 18.0625L8.88922 19.7652C8.55587 20.321 8.6431 21.0292 9.10131 21.4875L11.6184 24.0046C12.0768 24.4629 12.785 24.5501 13.3408 24.2166L15.0434 23.1951C15.4036 23.3683 15.7757 23.5226 16.1526 23.655L16.634 25.5807C16.7912 26.2095 17.3537 26.6486 18.0019 26.6486H19.7676L19.7672 30.9295C19.7672 31.048 19.6939 31.1095 19.6503 31.1355C19.6067 31.1615 19.518 31.1969 19.4135 31.1408L17.4507 30.0855C16.5242 29.5873 15.4589 29.4797 14.4514 29.7826C13.4439 30.0855 12.6146 30.7626 12.1165 31.6892L11.9907 31.923C11.6073 32.636 11.8755 33.5279 12.5883 33.9112L20.5262 38.1801C21.7529 38.8399 22.515 40.1149 22.515 41.5077V42.9257C22.515 43.5181 22.9969 43.9999 23.5893 43.9999H33.7207C34.3131 43.9999 34.7949 43.5181 34.7949 42.9257V40.8164C34.7949 40.5848 34.915 40.3678 35.1084 40.25C36.6329 39.3214 37.5429 37.7025 37.5429 35.9195V32.8281C37.5429 32.4722 37.2544 32.1836 36.8984 32.1836C36.5424 32.1836 36.2539 32.4722 36.2539 32.8281V35.9195C36.2539 37.249 35.5751 38.4563 34.4378 39.149C33.8629 39.4992 33.5058 40.1381 33.5058 40.8163V42.7109H23.804V41.5078C23.804 39.6398 22.782 37.9297 21.1368 37.0449L13.1988 32.776C13.1119 32.7292 13.0792 32.6204 13.1259 32.5336L13.2517 32.2998C13.5868 31.6764 14.1447 31.2209 14.8225 31.0171C15.5 30.8133 16.2169 30.8858 16.8402 31.2209L18.803 32.2762C19.2813 32.5335 19.8455 32.5206 20.3116 32.242C20.7779 31.9633 21.0563 31.4727 21.0563 30.9295L21.0567 14.7641C21.0567 14.3706 21.2195 13.9852 21.5034 13.7067C21.7768 13.4385 22.1333 13.2935 22.5006 13.3018C23.2663 13.3163 23.8892 13.9515 23.8892 14.7177V28.0243C23.8892 28.3803 24.1777 28.6688 24.5337 28.6688C24.8898 28.6688 25.1782 28.3803 25.1782 28.0243C25.1782 28.0243 25.1782 22.4346 25.1782 22.4345C25.1785 22.0585 25.4845 21.7526 25.8605 21.7526H27.3284C27.7046 21.7526 28.0107 22.0587 28.0107 22.4349V28.0243C28.0107 28.3803 28.2992 28.6688 28.6552 28.6688C29.0112 28.6688 29.2997 28.3803 29.2997 28.0243V22.4349C29.2997 22.0587 29.6058 21.7526 29.982 21.7526H31.4499C31.8261 21.7526 32.1321 22.0587 32.1321 22.4349V28.0243C32.1321 28.3803 32.4206 28.6688 32.7767 28.6688C33.1327 28.6688 33.4212 28.3803 33.4212 28.0243V23.8087C33.4212 23.4325 33.7273 23.1264 34.1035 23.1264H35.5714C35.9476 23.1264 36.2536 23.4325 36.2536 23.8087V29.8204C36.2538 30.1764 36.5424 30.4649 36.8983 30.4649Z" fill="#336AEA"/>
<path d="M22.4511 6.67383C18.0479 6.67383 14.4656 10.2561 14.4656 14.6593C14.4656 15.0153 14.7541 15.3038 15.1101 15.3038C15.4661 15.3038 15.7546 15.0153 15.7546 14.6593C15.7546 10.9669 18.7587 7.96289 22.4511 7.96289C22.8071 7.96289 23.0956 7.67431 23.0956 7.31836C23.0956 6.96241 22.8071 6.67383 22.4511 6.67383Z" fill="#336AEA"/>
<path d="M22.451 9.34277C19.5198 9.34277 17.135 11.7275 17.135 14.6588C17.135 15.0147 17.4235 15.3033 17.7795 15.3033C18.1356 15.3033 18.4241 15.0147 18.4241 14.6588C18.4241 12.4383 20.2306 10.6318 22.451 10.6318C22.8071 10.6318 23.0955 10.3433 23.0955 9.9873C23.0955 9.63135 22.8071 9.34277 22.451 9.34277Z" fill="#336AEA"/>
</svg>
