<svg width="44" height="44" viewBox="0 0 44 44" fill="none" xmlns="http://www.w3.org/2000/svg">
<path d="M38.6293 35.2097H35.3472V31.9276C35.3472 31.5717 35.0587 31.2832 34.7028 31.2832C34.3468 31.2832 34.0583 31.5718 34.0583 31.9276V35.2097H30.7763C30.4203 35.2097 30.1318 35.4983 30.1318 35.8541C30.1318 36.21 30.4203 36.4986 30.7763 36.4986H34.0583V39.7807C34.0583 40.1367 34.3468 40.4251 34.7028 40.4251C35.0587 40.4251 35.3472 40.1366 35.3472 39.7807V36.4986H38.6293C38.9852 36.4986 39.2737 36.21 39.2737 35.8541C39.2737 35.4983 38.9852 35.2097 38.6293 35.2097Z" fill="#336AEA"/>
<path d="M34.7028 27.4363C33.7804 27.4363 32.8929 27.5881 32.0635 27.8676L28.337 26.7057C28.3369 26.7057 28.3368 26.7056 28.3368 26.7056L25.7992 25.9145C25.5396 25.8334 25.2656 25.8453 25.0177 25.9378C24.8142 25.7409 24.6921 25.4657 24.6921 25.1759V23.9128C27.0215 22.6993 28.7924 20.5563 29.5101 17.9787H29.8631C31.0057 17.9787 31.9352 17.0491 31.9352 15.9066V14.3246C31.9352 14.022 31.8694 13.7346 31.7523 13.4752V9.95053C31.7523 8.49105 31.4434 7.0846 30.8341 5.77027C30.6845 5.44741 30.3013 5.3069 29.9784 5.45652C29.6554 5.60622 29.515 5.98933 29.6647 6.31228C30.1947 7.45559 30.4633 8.67969 30.4633 9.95053V12.3415C30.417 12.3275 30.3699 12.3153 30.3223 12.3044C30.3195 12.3038 30.3166 12.3031 30.3138 12.3025C30.2225 12.2821 30.1291 12.2679 30.0337 12.2601C30.0229 12.2592 30.012 12.2583 30.0011 12.2576C29.9565 12.2547 29.9116 12.2526 29.8662 12.2525C29.8651 12.2525 29.864 12.2525 29.8629 12.2525H29.8376C29.8319 12.1666 29.8246 12.081 29.8166 11.9954L29.8131 11.9577C29.8118 11.9443 29.8099 11.9308 29.8086 11.9174C29.8016 11.8491 29.7939 11.7811 29.7854 11.713C29.7828 11.6918 29.7802 11.6707 29.7775 11.6495C29.767 11.5693 29.7555 11.4892 29.7431 11.4093C29.7423 11.4044 29.7417 11.3994 29.7409 11.3945L29.74 11.3888C29.7241 11.2888 29.7064 11.1891 29.6874 11.0897L29.6787 11.0443C29.6772 11.0364 29.6754 11.0288 29.6738 11.021C29.6615 10.9594 29.6486 10.8978 29.6351 10.8365C29.6339 10.8308 29.6328 10.825 29.6315 10.8194L29.6212 10.7718C29.6197 10.765 29.6179 10.7584 29.6163 10.7516C29.5966 10.6655 29.576 10.5797 29.5539 10.4942C29.5373 10.4303 29.5105 10.3716 29.4771 10.3177C29.4733 10.3116 29.4706 10.3047 29.4666 10.2987C29.4601 10.2888 29.4518 10.2804 29.4447 10.271C29.3257 10.1119 29.1377 10.0112 28.93 10.0112C28.9274 10.0112 28.9246 10.0112 28.9218 10.0112L28.8985 10.0115C28.7857 10.0129 28.6751 10.0439 28.578 10.1015C27.4646 10.7616 26.002 11.0962 24.2307 11.0962C24.007 11.0962 23.7834 11.0875 23.5601 11.0712C23.1286 11.0396 22.6978 10.9791 22.2684 10.8989C22.2533 10.8961 22.2381 10.8937 22.2229 10.8909C21.4071 10.7357 20.5968 10.5083 19.797 10.2646C19.5077 10.1765 19.2195 10.0864 18.9332 9.99668C16.582 9.25977 14.151 8.49767 11.7239 9.18543C11.5258 9.24155 11.3665 9.38893 11.2951 9.58212C11.2946 9.58341 11.2942 9.58461 11.2938 9.5859C11.2596 9.67837 11.2263 9.77384 11.1923 9.87645C11.1853 9.89725 11.1785 9.91813 11.1717 9.93893C11.1698 9.94486 11.168 9.95036 11.166 9.95638L11.1558 9.98766C11.1343 10.0549 11.1135 10.1235 11.0931 10.1929C11.083 10.2273 11.0733 10.2616 11.0636 10.2961C11.0579 10.3165 11.0518 10.3365 11.0463 10.357L11.0362 10.3943C11.0322 10.4093 11.0291 10.424 11.025 10.4389C11.0011 10.5289 10.9786 10.6191 10.9574 10.7098C10.9522 10.7318 10.9459 10.754 10.9409 10.776L10.9376 10.7914C10.934 10.8076 10.9308 10.8235 10.9273 10.8396C10.9196 10.875 10.9119 10.9104 10.9046 10.9458C10.8881 11.0249 10.8724 11.1034 10.8585 11.18C10.8577 11.1836 10.857 11.1873 10.8564 11.191C10.8554 11.1967 10.8545 11.2028 10.8535 11.2086C10.8489 11.2344 10.8448 11.2604 10.8404 11.2863C10.8298 11.3495 10.8195 11.4152 10.8094 11.483C10.8031 11.5258 10.7964 11.5686 10.7907 11.6115L10.7884 11.6279C10.7788 11.6993 10.7702 11.773 10.7621 11.8478C10.7574 11.8902 10.7531 11.9327 10.749 11.9753C10.748 11.9858 10.7468 11.9959 10.7458 12.0064L10.7406 12.0648C10.7373 12.1025 10.7349 12.138 10.7321 12.1742C10.7301 12.2004 10.7272 12.2263 10.7255 12.2525H10.7003C10.6991 12.2525 10.698 12.2526 10.6968 12.2526C10.6516 12.2527 10.6068 12.2547 10.5623 12.2576C10.5513 12.2584 10.5403 12.2592 10.5293 12.2601C10.4341 12.2679 10.3409 12.2821 10.2498 12.3024C10.2466 12.3031 10.2434 12.3038 10.2403 12.3046C10.1928 12.3154 10.146 12.3276 10.0998 12.3416V9.95053C10.0998 5.17455 13.9853 1.28906 18.7613 1.28906H21.8015C24.2005 1.28906 26.4317 2.24752 28.0841 3.98802C28.3292 4.24626 28.7371 4.25666 28.9953 4.01165C29.2534 3.76655 29.264 3.35861 29.0189 3.10054C27.1208 1.10103 24.5576 0 21.8018 0H18.7616C13.2749 0 8.81111 4.46377 8.81111 9.95045V13.4753C8.69407 13.7347 8.62833 14.022 8.62833 14.3246V15.9066C8.62833 17.0491 9.55791 17.9787 10.7004 17.9787H11.0534C11.7711 20.5563 13.542 22.6993 15.8713 23.9128V25.1759C15.8713 25.4657 15.7491 25.7409 15.5456 25.9378C15.2978 25.8453 15.0236 25.8335 14.7641 25.9144L7.12098 28.2974C5.8913 28.6602 4.78555 29.2783 3.83473 30.1344C3.57022 30.3725 3.54882 30.7801 3.78695 31.0446C4.02517 31.3091 4.4326 31.3304 4.6972 31.0924C5.50501 30.3651 6.44457 29.8403 7.48991 29.5325C7.49318 29.5315 7.49644 29.5305 7.49971 29.5295L12.2383 28.0521L16.7654 32.5755C17.0483 32.8581 17.4224 33.0009 17.7973 33.0009C18.1395 33.0009 18.4825 32.8819 18.7573 32.6416L20.2816 31.3086L21.8059 32.6416C22.0807 32.882 22.4236 33.001 22.7659 33.001C23.1408 33.001 23.5149 32.8582 23.7978 32.5756L28.3249 28.0521L30.3376 28.6798C29.8614 28.9763 29.4204 29.3196 29.0183 29.701C28.9977 29.7205 28.9772 29.7401 28.9568 29.7598C28.9281 29.7877 28.8992 29.8155 28.8708 29.8438C27.4821 31.2226 26.5783 33.0888 26.44 35.1612C26.439 35.175 26.4382 35.1887 26.4373 35.2025C26.4331 35.271 26.4298 35.3397 26.4272 35.4087C26.4264 35.4285 26.4256 35.4483 26.4249 35.4681C26.4225 35.5512 26.4208 35.6346 26.4208 35.7183C26.4208 35.7894 26.4218 35.8604 26.4235 35.9312C26.4236 35.9347 26.4237 35.9381 26.4238 35.9415C26.4804 38.0968 27.3545 40.0954 28.8455 41.5784H7.13533V35.7183C7.13533 35.3623 6.84684 35.0738 6.49089 35.0738C6.13494 35.0738 5.84644 35.3624 5.84644 35.7183V41.5784H2.38505C2.34045 41.5784 2.30427 41.5421 2.30427 41.4975V36.4654C2.30427 35.3757 2.54232 34.3262 3.0118 33.346C3.16562 33.0249 3.03001 32.6401 2.70904 32.4864C2.38797 32.3327 2.00315 32.4681 1.84932 32.7892C1.29597 33.9446 1.01538 35.1815 1.01538 36.4654V41.4975C1.01538 42.2528 1.62983 42.8673 2.38514 42.8673H30.5264C31.7532 43.5867 33.1806 44 34.7028 44C39.2694 44 42.9847 40.2847 42.9847 35.7181C42.9847 31.1515 39.2693 27.4363 34.7028 27.4363ZM29.7757 16.6788C29.802 16.4812 29.822 16.2817 29.8359 16.0805C29.8375 16.0577 29.8388 16.0348 29.8403 16.012C29.845 15.9358 29.8488 15.8593 29.8518 15.7827C29.8527 15.7569 29.8539 15.731 29.8547 15.7052C29.8576 15.6081 29.8596 15.5106 29.8596 15.4127V13.5414H29.8631C29.8637 13.5414 29.8644 13.5415 29.8652 13.5415C29.8967 13.5416 29.9278 13.544 29.9585 13.5478C29.9667 13.5488 29.9747 13.5503 29.9827 13.5515C30.008 13.5554 30.033 13.5604 30.0576 13.5669C30.0637 13.5684 30.0699 13.5699 30.0759 13.5716C30.1384 13.5894 30.1984 13.6148 30.2543 13.6472C30.2575 13.6491 30.2606 13.6511 30.2638 13.653C30.2894 13.6683 30.3141 13.685 30.3378 13.7032C30.3404 13.7051 30.3431 13.707 30.3457 13.7091C30.3972 13.7495 30.4436 13.7966 30.484 13.8493C30.4867 13.8528 30.4893 13.8563 30.4919 13.8598C30.5113 13.8861 30.5295 13.9135 30.5457 13.9423C30.546 13.9428 30.5463 13.9432 30.5466 13.9437C30.6097 14.0565 30.646 14.1863 30.646 14.3245V15.9065C30.646 16.3384 30.2947 16.6897 29.8629 16.6897H29.7744C29.7749 16.6861 29.7752 16.6824 29.7757 16.6788ZM10.7004 16.6898C10.2685 16.6898 9.91722 16.3384 9.91722 15.9066V14.3246C9.91722 14.1856 9.954 14.0552 10.0178 13.942C10.0337 13.9135 10.0517 13.8866 10.0709 13.8608C10.0739 13.8567 10.0768 13.8528 10.0798 13.8488C10.1199 13.7965 10.1661 13.7497 10.2171 13.7096C10.2201 13.7072 10.2233 13.7051 10.2263 13.7027C10.2495 13.685 10.2738 13.6686 10.2988 13.6536C10.3023 13.6514 10.3058 13.6492 10.3094 13.647C10.3651 13.6147 10.4248 13.5896 10.4871 13.5718C10.4933 13.57 10.4997 13.5685 10.506 13.5669C10.5304 13.5606 10.5552 13.5556 10.5803 13.5517C10.5885 13.5504 10.5966 13.5489 10.6049 13.5479C10.6356 13.5441 10.6665 13.5417 10.6979 13.5416C10.6987 13.5416 10.6995 13.5415 10.7004 13.5415L10.7038 15.4128C10.7038 15.5108 10.7058 15.6083 10.7087 15.7056C10.7095 15.7312 10.7107 15.7568 10.7116 15.7824C10.7145 15.8592 10.7183 15.9358 10.7231 16.0122C10.7246 16.0351 10.7259 16.0579 10.7275 16.0807C10.7414 16.2819 10.7615 16.4814 10.7877 16.6789C10.7882 16.6825 10.7885 16.6862 10.789 16.6898H10.7004ZM12.1718 17.1284C12.1651 17.0968 12.1586 17.065 12.1523 17.0333C12.1453 16.9982 12.1385 16.963 12.132 16.9277C12.1247 16.8881 12.1176 16.8484 12.1109 16.8087C12.106 16.7797 12.1011 16.7507 12.0965 16.7215C12.0891 16.675 12.0822 16.6282 12.0756 16.5815C12.0723 16.5578 12.0688 16.534 12.0657 16.5102C12.0588 16.4584 12.0526 16.4065 12.0467 16.3546C12.0444 16.3346 12.0419 16.3145 12.0398 16.2944C12.0339 16.2393 12.0289 16.1839 12.0241 16.1287C12.0226 16.111 12.0209 16.0934 12.0194 16.0757C12.0149 16.0188 12.0113 15.9617 12.0078 15.9046C12.0069 15.888 12.0056 15.8715 12.0046 15.8549C12.0015 15.7967 11.9995 15.7384 11.9976 15.6802C11.9971 15.6645 11.9962 15.649 11.9958 15.6332C11.9938 15.5597 11.9928 15.4861 11.9928 15.4125V12.907C11.9929 12.9035 11.9929 12.9 11.9929 12.8972C11.9929 12.8972 11.9929 12.8972 11.9929 12.8971C11.993 12.8055 11.9953 12.7144 11.9983 12.6233C11.9991 12.5987 11.9996 12.5753 12.0007 12.5501L12.001 12.5426C12.0045 12.4612 12.0095 12.3801 12.0153 12.2991C12.0178 12.2653 12.0203 12.2311 12.0233 12.1957C12.0301 12.1154 12.0377 12.0351 12.0468 11.9551C12.0503 11.9246 12.0541 11.8953 12.0578 11.8655C12.0662 11.7983 12.0755 11.7313 12.0855 11.6644C12.09 11.6342 12.0944 11.6033 12.0989 11.5745C12.1124 11.4904 12.1274 11.4067 12.1435 11.3233C12.1476 11.3025 12.1512 11.2821 12.1555 11.2611C12.1727 11.1751 12.1916 11.0894 12.2117 11.0039C12.2173 10.9799 12.223 10.9559 12.2289 10.9317C12.2487 10.8508 12.2696 10.7701 12.2918 10.6899C12.3155 10.604 12.3413 10.519 12.3675 10.4349C12.3747 10.4116 12.3811 10.3881 12.3886 10.3649L12.3933 10.3504C12.3939 10.3486 12.3945 10.3468 12.3951 10.3451C12.5175 10.318 12.6403 10.2951 12.7633 10.2762C14.1459 10.0636 15.5696 10.3477 17.0451 10.7695C17.54 10.911 18.0407 11.0677 18.5477 11.2266C20.365 11.7962 22.244 12.3851 24.2308 12.3851C24.3362 12.3851 24.4406 12.3839 24.5441 12.3818C26.048 12.3502 27.3632 12.089 28.469 11.603C28.4708 11.6145 28.4722 11.6261 28.4739 11.6377C28.4865 11.7204 28.4979 11.8033 28.5081 11.8865C28.512 11.9191 28.5156 11.9516 28.5191 11.9842C28.5266 12.053 28.5334 12.1219 28.5394 12.191C28.5423 12.2256 28.5451 12.2604 28.5477 12.2959C28.5528 12.3659 28.5567 12.436 28.5601 12.5061C28.5613 12.5316 28.5628 12.5574 28.5638 12.5825L28.5645 12.6022C28.5681 12.7001 28.5704 12.7981 28.5704 12.8962C28.5704 12.8966 28.5704 12.8971 28.5704 12.8974C28.5704 12.8995 28.5704 12.902 28.5705 12.9044C28.5705 12.9053 28.5705 12.9061 28.5705 12.907V15.4125C28.5705 15.4861 28.5694 15.5597 28.5675 15.6332C28.567 15.6489 28.5662 15.6644 28.5657 15.6802C28.5638 15.7384 28.5617 15.7967 28.5586 15.8549C28.5577 15.8715 28.5564 15.888 28.5554 15.9046C28.5521 15.9617 28.5484 16.0188 28.5439 16.0757C28.5425 16.0934 28.5407 16.111 28.5392 16.1287C28.5344 16.184 28.5294 16.2393 28.5235 16.2944C28.5213 16.3145 28.5188 16.3345 28.5166 16.3546C28.5107 16.4065 28.5045 16.4584 28.4976 16.5102C28.4944 16.534 28.491 16.5578 28.4876 16.5815C28.481 16.6282 28.4741 16.6749 28.4667 16.7215C28.4621 16.7507 28.4572 16.7796 28.4523 16.8087C28.4455 16.8484 28.4386 16.8881 28.4312 16.9277C28.4247 16.9629 28.4179 16.9982 28.411 17.0333C28.4047 17.065 28.3982 17.0968 28.3915 17.1284C27.642 20.6752 24.618 23.3929 20.923 23.677C20.9118 23.6778 20.9006 23.6784 20.8895 23.6792C20.8313 23.6834 20.7728 23.6873 20.7142 23.6904C20.6853 23.6919 20.6561 23.6927 20.6271 23.6939C20.5849 23.6956 20.5428 23.6976 20.5004 23.6987C20.4276 23.7006 20.3547 23.7016 20.2815 23.7016C20.2084 23.7016 20.1354 23.7006 20.0627 23.6987C20.0203 23.6976 19.9782 23.6956 19.936 23.6939C19.9069 23.6927 19.8779 23.6919 19.8488 23.6904C19.7902 23.6874 19.7318 23.6835 19.6735 23.6792C19.6624 23.6784 19.6512 23.6778 19.6401 23.677C15.9452 23.3929 12.9212 20.6752 12.1718 17.1284ZM17.9089 31.6713C17.8416 31.7302 17.7396 31.7268 17.6764 31.6637L13.6283 27.6188L15.1069 27.1577L19.276 30.4758L17.9089 31.6713ZM20.2815 29.6287L16.6014 26.6997C16.9572 26.2837 17.1603 25.7487 17.1603 25.1759V24.4703C17.3261 24.5276 17.4935 24.5784 17.6617 24.6262C17.6632 24.6267 17.6647 24.627 17.6661 24.6275C17.8065 24.6673 17.9479 24.7038 18.09 24.7371C18.1098 24.7418 18.1297 24.7464 18.1496 24.7509C18.2731 24.779 18.3973 24.8047 18.5219 24.8278C18.5478 24.8326 18.5737 24.8378 18.5997 24.8425C18.6635 24.8537 18.7274 24.8643 18.7915 24.8744C18.849 24.8834 18.9067 24.8915 18.9645 24.8995C19.0376 24.9096 19.1109 24.919 19.1845 24.9273C19.2569 24.9356 19.3296 24.9431 19.4026 24.9498C19.4418 24.9533 19.4809 24.9572 19.5202 24.9603C19.627 24.9687 19.7345 24.9752 19.8422 24.9801C19.871 24.9813 19.8999 24.9823 19.9288 24.9833C20.0459 24.9876 20.1634 24.9905 20.2816 24.9905C20.3999 24.9905 20.5173 24.9876 20.6345 24.9833C20.6634 24.9823 20.6922 24.9813 20.721 24.9801C20.8288 24.9752 20.9362 24.9687 21.043 24.9603C21.0823 24.9572 21.1215 24.9533 21.1607 24.9498C21.2336 24.9431 21.3063 24.9356 21.3788 24.9273C21.4523 24.919 21.5257 24.9096 21.5988 24.8995C21.6566 24.8915 21.7144 24.8834 21.7718 24.8744C21.8358 24.8644 21.8997 24.8538 21.9635 24.8425C21.9895 24.8378 22.0154 24.8327 22.0414 24.8278C22.1661 24.8047 22.2902 24.779 22.4136 24.7509C22.4336 24.7464 22.4534 24.7418 22.4733 24.7371C22.6153 24.7038 22.7567 24.6673 22.8971 24.6275C22.8986 24.627 22.9001 24.6267 22.9015 24.6262C23.0697 24.5784 23.2372 24.5275 23.403 24.4703V25.1759C23.403 25.7487 23.606 26.2837 23.9617 26.6997L20.2815 29.6287ZM22.8867 31.6637C22.8237 31.7266 22.7216 31.7301 22.6545 31.6713L21.2873 30.4756L23.8648 28.4243L25.3957 27.2059C25.3957 27.2059 25.3957 27.2059 25.3958 27.2058L25.4563 27.1576L26.9351 27.6187L22.8867 31.6637ZM34.7028 42.711C30.9765 42.711 27.9223 39.7812 27.7211 36.1044C27.7199 36.084 27.7191 36.0636 27.7181 36.0432C27.7132 35.9355 27.7099 35.8272 27.7099 35.7182C27.7099 35.611 27.7132 35.5047 27.718 35.3988C27.7198 35.3597 27.7224 35.3207 27.7249 35.2816C27.7289 35.2172 27.7339 35.153 27.7396 35.0891C27.7442 35.0394 27.7486 34.9897 27.7542 34.9403C27.7593 34.8947 27.7656 34.8496 27.7715 34.8044C27.9517 33.4483 28.5269 32.1893 29.3959 31.172C29.4273 31.1353 29.4587 31.0984 29.4909 31.0624C29.5191 31.0307 29.548 30.9995 29.5767 30.9684C29.626 30.9152 29.676 30.8626 29.7269 30.8109C29.7439 30.7936 29.7608 30.7762 29.778 30.759C31.0428 29.5029 32.7836 28.7253 34.7028 28.7253C38.5587 28.7253 41.6957 31.8623 41.6957 35.7182C41.6957 39.5741 38.5587 42.711 34.7028 42.711Z" fill="#336AEA"/>
</svg>
