<svg width="23" height="23" viewBox="0 0 23 23" fill="none" xmlns="http://www.w3.org/2000/svg">
<g clip-path="url(#clip0_9888_93)">
<path d="M12.2693 11.1079L17.4452 18.5112H15.321L11.0974 12.47V12.4697L10.4773 11.5828L5.54346 4.52539H7.66763L11.6492 10.221L12.2693 11.1079Z" fill="#5A6A85"/>
<path d="M20.5148 0H2.4852C1.1127 0 0 1.1127 0 2.4852V20.5148C0 21.8873 1.1127 23 2.4852 23H20.5148C21.8873 23 23 21.8873 23 20.5148V2.4852C23 1.1127 21.8873 0 20.5148 0ZM14.6701 19.5044L10.3961 13.2841L5.045 19.5044H3.662L9.78203 12.3908L3.662 3.48374H8.32986L12.3771 9.37395L17.4442 3.48374H18.8272L12.9913 10.2675H12.991L19.338 19.5044H14.6701Z" fill="#5A6A85"/>
</g>
<defs>
<clipPath id="clip0_9888_93">
<rect width="23" height="23" fill="white"/>
</clipPath>
</defs>
</svg>
