<svg xmlns:xlink="http://www.w3.org/1999/xlink" xmlns="http://www.w3.org/2000/svg" width="62" height="62" viewBox="0 0 62 62" fill="none">
                                    <path d="M32.464 33.8438C32.2496 33.8463 32.0407 33.9122 31.8636 34.0331C31.6866 34.1541 31.5493 34.3247 31.469 34.5236C31.3887 34.7224 31.369 34.9405 31.4124 35.1505C31.4558 35.3605 31.5603 35.553 31.7128 35.7037C31.8653 35.8544 32.059 35.9566 32.2695 35.9975C32.48 36.0384 32.6979 36.0162 32.8957 35.9335C33.0936 35.8509 33.2626 35.7115 33.3814 35.5331C33.5003 35.3546 33.5637 35.145 33.5637 34.9305C33.5616 34.6407 33.4447 34.3635 33.2385 34.1598C33.0324 33.956 32.7538 33.8424 32.464 33.8438Z" fill="black"></path>
                                    <path d="M28.9354 33.8438C28.721 33.8463 28.5121 33.9122 28.3351 34.0331C28.158 34.1541 28.0207 34.3247 27.9404 34.5236C27.8601 34.7224 27.8404 34.9405 27.8838 35.1505C27.9272 35.3605 28.0317 35.553 28.1842 35.7037C28.3368 35.8544 28.5304 35.9566 28.7409 35.9975C28.9514 36.0384 29.1693 36.0162 29.3672 35.9335C29.565 35.8509 29.734 35.7115 29.8529 35.5331C29.9717 35.3546 30.0351 35.145 30.0351 34.9305C30.0331 34.6407 29.9161 34.3635 29.71 34.1598C29.5038 33.956 29.2253 33.8424 28.9354 33.8438Z" fill="black"></path>
                                    <path d="M58.125 32.6378C58.1244 32.0859 57.9049 31.5569 57.5147 31.1667C57.1245 30.7765 56.5955 30.5571 56.0436 30.5565H53.8621C53.1374 30.5569 52.4246 30.7402 51.7896 31.0894C51.1546 31.4385 50.618 31.9423 50.2295 32.554L46.1041 25.6849C45.678 25.1471 45.1355 24.713 44.5173 24.4153C43.8992 24.1175 43.2215 23.9638 42.5354 23.9658H19.7078C19.0053 23.9642 18.3113 24.1199 17.6769 24.4217C17.0425 24.7234 16.4838 25.1635 16.0418 25.7095L11.7989 32.5641C11.413 31.9402 10.8742 31.4251 10.2335 31.0678C9.59286 30.7105 8.87153 30.5227 8.13793 30.5223H5.95636C5.40453 30.5229 4.87549 30.7424 4.4853 31.1326C4.0951 31.5228 3.87562 32.0519 3.875 32.6037C3.876 33.4774 4.22353 34.3151 4.84137 34.9329C5.4592 35.5507 6.29687 35.8983 7.17061 35.8993H8.73214L7.00653 37.2912C6.68453 37.5497 6.4248 37.8772 6.24657 38.2496C6.06834 38.622 5.97619 39.0298 5.97693 39.4427V49.6855C5.97793 50.1483 6.09481 50.6035 6.31692 51.0096C6.53903 51.4156 6.85929 51.7596 7.24848 52.0101V54.8404C7.25003 55.5329 7.52624 56.1966 8.01651 56.6858C8.50678 57.175 9.17107 57.4497 9.86364 57.4497H13.0885C13.781 57.4497 14.4453 57.175 14.9356 56.6858C15.4259 56.1966 15.7021 55.533 15.7037 54.8404V53.8759H46.2963V54.8404C46.2979 55.533 46.5741 56.1966 47.0644 56.6858C47.5547 57.175 48.219 57.4497 48.9115 57.4497H52.1364C52.8289 57.4497 53.4932 57.175 53.9835 56.6858C54.4738 56.1966 54.75 55.5329 54.7515 54.8404V52.0122C55.1403 51.7651 55.4605 51.424 55.6828 51.0205C55.905 50.6171 56.022 50.1641 56.0231 49.7035V39.4648C56.0238 39.045 55.9301 38.6305 55.7489 38.2518C55.5677 37.8732 55.3037 37.5402 54.9763 37.2774L53.3102 35.9334H54.8294C55.7032 35.9324 56.5408 35.5849 57.1587 34.967C57.7765 34.3492 58.124 33.5115 58.125 32.6378ZM53.8621 32.494H56.0436C56.0818 32.494 56.1183 32.5091 56.1453 32.5361C56.1723 32.5631 56.1875 32.5996 56.1875 32.6378C56.1871 32.9978 56.0439 33.3431 55.7893 33.5977C55.5347 33.8523 55.1895 33.9955 54.8294 33.9959H51.6571C51.8317 33.5534 52.1354 33.1736 52.5286 32.9058C52.9217 32.638 53.3863 32.4945 53.8621 32.494ZM5.8125 32.6037C5.81253 32.5656 5.8277 32.529 5.85467 32.502C5.88164 32.475 5.91821 32.4598 5.95636 32.4598H8.13794C8.61366 32.4603 9.07825 32.6038 9.47142 32.8716C9.8646 33.1395 10.1682 33.5193 10.3429 33.9618H7.17061C6.81055 33.9613 6.46535 33.8181 6.21075 33.5635C5.95614 33.309 5.81292 32.9638 5.8125 32.6037ZM13.7662 54.8404C13.7652 55.0193 13.6933 55.1905 13.5662 55.3164C13.4392 55.4423 13.2674 55.5127 13.0885 55.5122H9.86364C9.68475 55.5127 9.51295 55.4423 9.38591 55.3164C9.25887 55.1904 9.18697 55.0193 9.18598 54.8404V52.9263L11.0736 53.7884C11.1999 53.8461 11.3372 53.8759 11.4761 53.8759H13.7662V54.8404ZM20.1191 50.1847H41.2846C41.693 50.828 42.1809 51.4173 42.7369 51.9384H18.7011C19.2404 51.411 19.7163 50.8224 20.1191 50.1847ZM21.1329 48.2472C21.4001 47.6177 21.6254 46.9713 21.8073 46.3121H39.6519C39.816 46.9715 40.0273 47.6181 40.284 48.2472H21.1329ZM52.1364 55.5122H48.9115C48.7326 55.5127 48.5608 55.4423 48.4338 55.3164C48.3067 55.1905 48.2348 55.0193 48.2338 54.8404V53.8759H50.5239C50.6628 53.8759 50.8001 53.8461 50.9264 53.7884L52.814 52.9262V54.8404C52.813 55.0193 52.7411 55.1905 52.6141 55.3164C52.4871 55.4423 52.3152 55.5127 52.1364 55.5122ZM54.0856 39.4648V49.7035C54.085 49.8566 54.0406 50.0064 53.9575 50.1351C53.8744 50.2638 53.7562 50.366 53.6169 50.4296L50.3132 51.9384H47.309C43.8841 51.6866 41.8723 48.2507 41.3956 45.1995C41.3611 44.9701 41.2454 44.7606 41.0696 44.6093C40.8938 44.4579 40.6696 44.3746 40.4376 44.3746H21.0444C20.819 44.3749 20.6007 44.4537 20.4271 44.5974C20.2534 44.7411 20.1352 44.9407 20.0928 45.1621C20.081 45.2233 18.875 51.2547 14.6546 51.9384H11.6868L8.39952 50.437C8.25527 50.3712 8.13291 50.2655 8.04694 50.1323C7.96096 49.9991 7.91498 49.844 7.91443 49.6855V39.4427C7.91429 39.3192 7.94195 39.1972 7.99535 39.0859C8.04875 38.9745 8.12652 38.8766 8.2229 38.7994L11.8181 35.8993H25.6343C25.8912 35.8993 26.1376 35.7972 26.3193 35.6155C26.501 35.4338 26.603 35.1874 26.603 34.9305C26.603 34.6736 26.501 34.4272 26.3193 34.2455C26.1376 34.0638 25.8912 33.9618 25.6343 33.9618H13.213L17.5828 26.8863C17.8439 26.5774 18.1694 26.3293 18.5364 26.1595C18.9035 25.9897 19.3033 25.9023 19.7078 25.9033H42.5354C42.92 25.9021 43.3001 25.9859 43.6485 26.1487C43.9969 26.3116 44.305 26.5495 44.5507 26.8454L48.8142 33.9618H35.6858C35.4289 33.9618 35.1825 34.0638 35.0008 34.2455C34.8191 34.4272 34.7171 34.6736 34.7171 34.9305C34.7171 35.1874 34.8191 35.4338 35.0008 35.6155C35.1825 35.7972 35.4289 35.8993 35.6858 35.8993H50.1819L53.7598 38.7854C53.8616 38.867 53.9437 38.9704 54.0001 39.088C54.0565 39.2056 54.0857 39.3344 54.0856 39.4648Z" fill="black"></path>
                                    <path d="M17.8423 41.9642C17.7813 41.6029 17.6088 41.2697 17.3489 41.0113C17.089 40.7528 16.7549 40.5822 16.3932 40.5232L12.0916 39.821C11.8221 39.7768 11.546 39.7961 11.2852 39.8773C11.0245 39.9586 10.7863 40.0995 10.5895 40.2889C10.3928 40.4784 10.243 40.7111 10.1519 40.9685C10.0609 41.226 10.0312 41.5012 10.0651 41.7722L10.3304 43.8996C10.3789 44.2763 10.5475 44.6272 10.8112 44.9005C11.0749 45.1738 11.4197 45.3547 11.7944 45.4166L16.1915 46.1247C16.4671 46.1688 16.7493 46.1467 17.0146 46.0602C17.2799 45.9736 17.5208 45.8252 17.7174 45.627C17.914 45.4289 18.0606 45.1869 18.145 44.9209C18.2295 44.6549 18.2494 44.3726 18.2031 44.0973L17.8423 41.9642ZM12.2363 43.5252L12.0177 41.7721L15.9535 42.4146L16.2507 44.1717L12.2363 43.5252Z" fill="black"></path>
                                    <path d="M50.185 39.821L45.8834 40.5232C45.5217 40.5822 45.1876 40.7529 44.9277 41.0113C44.6679 41.2696 44.4953 41.6028 44.4342 41.9641L44.0734 44.0973C44.0271 44.3726 44.0471 44.6548 44.1315 44.9208C44.216 45.1868 44.3626 45.4289 44.5591 45.627C44.7557 45.8251 44.9966 45.9736 45.2619 46.0601C45.5272 46.1467 45.8093 46.1688 46.0849 46.1247L50.4821 45.4166C50.8568 45.3548 51.2016 45.1738 51.4654 44.9006C51.7291 44.6273 51.8977 44.2763 51.9461 43.8996L52.2114 41.7722C52.2454 41.5012 52.2156 41.226 52.1246 40.9685C52.0336 40.7111 51.8838 40.4783 51.687 40.2889C51.4903 40.0995 51.2521 39.9585 50.9913 39.8773C50.7306 39.7961 50.4545 39.7768 50.185 39.821ZM50.0403 43.5252L46.0258 44.1717L46.323 42.4146L50.2589 41.7721L50.0403 43.5252Z" fill="black"></path>
                                    <path d="M13.4956 20.722H24.3199C24.6502 20.722 24.947 20.7115 25.2269 20.3949C26.3916 19.0774 27.1793 17.7933 27.6897 16.5703H34.9959C35.1578 16.5703 35.3172 16.5297 35.4594 16.4522C35.6016 16.3747 35.7221 16.2629 35.8099 16.1268L36.5484 14.9826L37.429 16.1765C37.519 16.2986 37.6365 16.3978 37.7719 16.4662C37.9073 16.5346 38.0569 16.5702 38.2086 16.5703H40.2845C40.4468 16.5703 40.6065 16.5295 40.749 16.4517C40.8914 16.3738 41.012 16.2615 41.0997 16.1249L41.9107 14.8619L43.1137 16.2389C43.2046 16.343 43.3168 16.4264 43.4426 16.4835C43.5684 16.5407 43.705 16.5702 43.8432 16.5703H46.8582C46.9868 16.5703 47.114 16.5447 47.2326 16.495C47.3512 16.4453 47.4587 16.3724 47.5489 16.2808L50.5144 13.2658C50.6905 13.0867 50.7902 12.8463 50.7924 12.5951C50.7947 12.3439 50.6993 12.1017 50.5264 11.9195L47.7585 9.00332C47.6679 8.90798 47.559 8.83206 47.4382 8.78017C47.3174 8.72829 47.1873 8.70153 47.0558 8.70153H27.6457C27.0186 7.23845 26.1097 5.91308 24.9707 4.80099C24.7913 4.64135 24.5601 4.55211 24.3199 4.5498H13.4956C13.2387 4.54981 12.9923 4.65187 12.8106 4.83355C12.6289 5.01522 12.5269 5.26163 12.5269 5.51855V19.7532C12.5269 20.0102 12.6289 20.2566 12.8106 20.4382C12.9923 20.6199 13.2387 20.722 13.4956 20.722ZM48.4767 12.5745L46.4522 14.6328H44.2832L42.5215 12.6163C42.4226 12.5032 42.2988 12.4147 42.1598 12.3577C42.0208 12.3007 41.8705 12.2768 41.7207 12.2878C41.5709 12.2989 41.4257 12.3446 41.2966 12.4214C41.1675 12.4982 41.058 12.6039 40.9768 12.7303L39.7553 14.6328H38.6978L37.2749 12.7034C37.1818 12.5772 37.0594 12.4755 36.9184 12.407C36.7773 12.3385 36.6217 12.3053 36.465 12.3102C36.3083 12.3151 36.1551 12.3579 36.0186 12.4351C35.882 12.5122 35.7663 12.6213 35.6812 12.7531L34.4681 14.6328H28.2911C28.5614 13.3144 28.5532 11.954 28.2669 10.639H46.6397L48.4767 12.5745ZM24.0564 18.7845H18.5507V6.4873H23.9217C25.0428 7.6629 29.1451 12.6898 24.0564 18.7845ZM14.4644 6.4873H16.6132V18.7845H14.4644V6.4873Z" fill="black"></path>
                                </svg>