<svg xmlns:xlink="http://www.w3.org/1999/xlink" xmlns="http://www.w3.org/2000/svg" width="62" height="62" viewBox="0 0 62 62" fill="none">
                                    <g clip-path="url(#clip0_39_1134)" fill="none">
                                        <path d="M61.7728 34.1089C60.9303 30.457 57.672 27.5937 54.0977 26.7398L47.0384 25.0469L40.7293 18.6167C38.0943 15.9329 34.4262 14.3936 30.6658 14.3936H7.09004C6.62395 14.3936 6.19915 14.6611 5.99777 15.0816C5.79652 15.502 5.85428 16.0006 6.1466 16.3637L7.58737 18.154C7.68812 18.2791 7.67202 18.4595 7.55068 18.5649L1.33106 23.9661C1.06623 24.1961 0.914137 24.5297 0.914137 24.8805V31.5045L0.141195 32.9615C0.0484375 33.1361 0 33.3309 0 33.5288V38.3386C0 38.5779 0.0708399 38.8116 0.203559 39.0107L2.03329 41.7535C2.25791 42.0901 2.63597 42.2923 3.04066 42.2923H5.14879C5.71817 45.3131 8.37484 47.6061 11.5586 47.6061C14.7424 47.6061 17.399 45.3131 17.9684 42.2923H24.1976C24.8664 42.2923 25.4085 41.7501 25.4085 41.0814C25.4085 40.4127 24.8664 39.8705 24.1976 39.8705H17.9702C17.3966 36.8276 14.6465 34.5576 11.5585 34.5576C8.46724 34.5576 5.71974 36.8311 5.14648 39.8705H3.68852L2.42188 37.9717V33.8301L3.19494 32.3731C3.2877 32.1983 3.33613 32.0034 3.33613 31.8055V25.4325L9.13882 20.3933C10.1909 19.4796 10.3775 17.9472 9.60746 16.8153H30.6658C33.7806 16.8153 36.8187 18.0902 39.0009 20.3131L45.5533 26.9913C45.7124 27.1536 45.9142 27.2676 46.1353 27.3208L53.534 29.0951C53.9923 29.2045 54.4353 29.354 54.8626 29.5377L53.9921 30.0972C53.1414 30.643 52.6334 31.5735 52.6334 32.5866C52.6334 34.1977 53.9801 35.545 55.5917 35.545H59.5545C59.5686 35.711 59.5781 35.8774 59.5781 36.0438V38.0168L58.5183 39.8705H53.4956C52.9232 36.83 50.1752 34.5576 47.0844 34.5576C43.9932 34.5576 41.2479 36.8315 40.6732 39.8705H34.8528C34.1842 39.8705 33.6419 40.4127 33.6419 41.0814C33.6419 41.7501 34.1842 42.2923 34.8528 42.2923H40.6748C41.2442 45.3131 43.9008 47.6061 47.0845 47.6061C50.2682 47.6061 52.925 45.3131 53.4944 42.2923H59.2211C59.6556 42.2923 60.0567 42.0596 60.2725 41.6825L61.8406 38.9397C61.9453 38.7566 62.0002 38.5495 62.0002 38.3386V36.0439C62 35.3908 61.9229 34.7367 61.7728 34.1089ZM11.5586 45.1842C9.29661 45.1842 7.45635 43.3439 7.45635 41.0818C7.45635 38.8505 9.32603 36.98 11.5585 36.98C13.7908 36.98 15.6609 38.8477 15.6609 41.0818C15.6609 43.3438 13.8206 45.1842 11.5586 45.1842ZM47.0843 45.1842C44.8232 45.1842 42.9837 43.3454 42.9821 41.0847C42.9821 41.0836 42.9822 41.0825 42.9822 41.0814C42.9822 38.8199 44.8226 36.98 47.0849 36.98C49.3464 36.98 51.1863 38.8199 51.1863 41.0814C51.1863 41.083 51.1866 41.0846 51.1866 41.0863C51.1841 43.3462 49.345 45.1842 47.0843 45.1842ZM55.2112 32.964C54.977 32.7305 55.0196 32.3156 55.3007 32.1352L57.1065 30.9744C57.7926 31.5885 58.3815 32.3123 58.8197 33.1231H55.5917C55.3992 33.1231 55.2718 33.0244 55.2112 32.964Z" fill="black"></path>
                                        <path d="M39.5949 28.7904C40.9991 28.7904 41.775 27.0742 40.8475 26.0177L37.6949 22.4264C35.6852 20.1372 32.7855 18.8242 29.7392 18.8242H15.3369C14.6672 18.8242 14.028 19.0748 13.5372 19.5297L9.22746 23.5225C8.74151 23.9729 8.56738 24.6683 8.78389 25.2944C9.00029 25.9201 9.56652 26.3592 10.2265 26.4129C15.8664 26.8731 34.6425 28.4038 39.4603 28.7851C39.5053 28.7885 39.5501 28.7904 39.5949 28.7904ZM15.1832 21.3062C15.2251 21.2674 15.2796 21.246 15.3369 21.246H24.9858V25.1852C20.1221 24.7897 15.2354 24.3914 12.1267 24.1379L15.1832 21.3062ZM27.4075 25.3819V21.246H29.7389C32.0883 21.246 34.3247 22.2586 35.8746 24.024L37.8052 26.2233C35.2926 26.0217 31.4654 25.7115 27.4075 25.3819Z" fill="black"></path>
                                        <path d="M26.1965 33.3613H28.9048C29.5736 33.3613 30.1157 32.8191 30.1157 32.1504C30.1157 31.4817 29.5736 30.9395 28.9048 30.9395H26.1965C25.5277 30.9395 24.9856 31.4817 24.9856 32.1504C24.9856 32.8191 25.5279 33.3613 26.1965 33.3613Z" fill="black"></path>
                                        <path d="M9.92456 29.2559C9.25576 29.2559 8.71362 29.7981 8.71362 30.4668C8.71362 31.1355 9.25576 31.6777 9.92456 31.6777H12.6329C13.3017 31.6777 13.8439 31.1355 13.8439 30.4668C13.8439 29.7981 13.3017 29.2559 12.6329 29.2559H9.92456Z" fill="black"></path>
                                        <path d="M30.764 40.6185C30.5654 40.1422 30.072 39.8358 29.5565 39.8743C29.0507 39.9123 28.6156 40.2713 28.4794 40.7592C28.1903 41.7953 29.3509 42.6653 30.2677 42.12C30.7784 41.8162 30.9881 41.1658 30.764 40.6185Z" fill="black"></path>
                                    </g>
                                    <defs>
                                        <clipPath id="clip0_39_1134">
                                            <rect width="62" height="62" fill="white"></rect>
                                        </clipPath>
                                    </defs>
                                </svg>