<svg xmlns:xlink="http://www.w3.org/1999/xlink" xmlns="http://www.w3.org/2000/svg" width="62" height="62" viewBox="0 0 62 62" fill="none">
                                    <path d="M46.6118 11.5695H41.3404V10.9738C41.3292 9.06305 39.7782 7.512 37.8674 7.52324H36.1253C35.0014 4.66841 31.7756 3.26347 28.9208 4.38742C27.4822 4.9494 26.347 6.08458 25.785 7.52324H24.0766C22.1884 7.52324 20.6598 9.05181 20.6598 10.94C20.6598 10.9513 20.6598 10.9625 20.6598 10.985V11.5807H15.3885C12.8259 11.5807 10.769 13.705 10.769 16.2676V53.4028C10.769 55.9317 12.8146 57.9885 15.3548 57.9998C15.366 57.9998 15.3772 57.9998 15.3997 57.9998H46.6118C49.1406 58.0222 51.22 55.9879 51.2312 53.4478C51.2312 53.4365 51.2312 53.4253 51.2312 53.4028V16.2563C51.2312 13.6937 49.1631 11.5695 46.6118 11.5695ZM22.9077 10.9738C22.8852 10.3331 23.391 9.79361 24.0316 9.77114C24.0429 9.77114 24.0654 9.77114 24.0766 9.77114H26.5942C27.1225 9.77114 27.5721 9.40023 27.6845 8.89446C28.0554 7.30969 29.3592 6.24194 30.9327 6.24194C32.495 6.24194 33.8437 7.34341 34.1697 8.87198C34.282 9.40023 34.7316 9.77114 35.2711 9.77114H37.8562C38.5306 9.7599 39.0813 10.2994 39.0813 10.9738V15.3909H22.9077V10.9738ZM48.9833 53.3916C48.9833 54.6841 47.938 55.7294 46.6567 55.7406C46.6455 55.7406 46.623 55.7406 46.6118 55.7406H15.3885C14.0959 55.7631 13.0282 54.7291 13.0169 53.4365C13.0169 53.4253 13.0169 53.4028 13.0169 53.3916V16.2563C13.0169 14.9301 14.0735 13.8174 15.3885 13.8174H20.6598V16.5485C20.6373 17.1218 21.0869 17.6163 21.6713 17.6388C21.6938 17.6388 21.7163 17.6388 21.7275 17.6388H40.2165C40.8234 17.6613 41.3292 17.178 41.3404 16.571C41.3404 16.5598 41.3404 16.5598 41.3404 16.5485V13.8174H46.6118C47.938 13.8174 48.9833 14.9413 48.9833 16.2563V53.3916Z" fill="black"></path>
                                    <path d="M27.9652 41.6914H18.2992C17.6811 41.6914 17.1753 42.1972 17.1753 42.8154V52.1441C17.1753 52.7623 17.6811 53.2681 18.2992 53.2681H27.9652C28.5834 53.2681 29.0891 52.7623 29.0891 52.1441V42.8154C29.0891 42.1972 28.5834 41.6914 27.9652 41.6914ZM26.8412 51.0202H19.4232V43.9393H26.8412V51.0202Z" fill="black"></path>
                                    <path d="M25.5826 45.389C25.1218 44.9956 24.425 45.0406 24.0203 45.4902L22.6154 47.0862L22.1321 46.704C21.6488 46.3106 20.9407 46.3893 20.5473 46.8726C20.1764 47.3671 20.2551 48.0752 20.7497 48.4686L22.0759 49.5251C22.548 49.896 23.2223 49.8398 23.627 49.3903L25.7175 46.9738C26.1221 46.5017 26.0547 45.7936 25.5826 45.389Z" fill="black"></path>
                                    <path d="M38.9911 43.9395H32.0114C31.3932 43.9395 30.8875 44.4452 30.8875 45.0634C30.8875 45.6816 31.382 46.1874 32.0114 46.1874H38.9911C39.6093 46.1874 40.1151 45.6816 40.1151 45.0634C40.1151 44.4452 39.6093 43.9395 38.9911 43.9395Z" fill="black"></path>
                                    <path d="M43.678 48.6602H32.0114C31.3932 48.6602 30.8875 49.1659 30.8875 49.7841C30.8875 50.4023 31.3932 50.9081 32.0114 50.9081H43.6892C44.3074 50.9081 44.8132 50.4023 44.8132 49.7841C44.8132 49.1659 44.3074 48.6602 43.678 48.6602Z" fill="black"></path>
                                    <path d="M45.6112 28.0133L43.0262 26.8444L40.7221 23.1803C39.9465 21.9552 38.5978 21.2134 37.1479 21.2358H28.2125C26.8975 21.2246 25.6612 21.8315 24.8632 22.8656L21.8959 26.7544L16.9056 28.1144C15.4108 28.519 14.3655 29.879 14.3655 31.4188V33.3745C14.3655 35.274 15.9165 36.8587 17.816 36.8587H17.9284C18.5016 38.4323 20.0864 39.7136 21.9409 39.7136C23.7954 39.7136 25.3802 38.4323 25.9534 36.8587H35.6531C36.2263 38.4323 37.811 39.7136 39.6656 39.7136C41.5201 39.7136 43.1048 38.4323 43.6781 36.8587H44.1838C46.0833 36.8587 47.6344 35.274 47.6344 33.3745V31.1491C47.6344 29.8003 46.8363 28.5752 45.6112 28.0133ZM21.9409 37.4207C20.8394 37.4207 19.9403 36.5215 19.9403 35.4201C19.9403 34.3186 20.8394 33.4195 21.9409 33.4195C23.0424 33.4195 23.9415 34.3186 23.9415 35.4201C23.9415 36.5328 23.0424 37.4207 21.9409 37.4207ZM39.6768 37.4207C38.5753 37.4207 37.6762 36.5215 37.6762 35.4201C37.6762 34.3186 38.5753 33.4195 39.6768 33.4195C40.7783 33.4195 41.6774 34.3186 41.6774 35.4201C41.6662 36.5328 40.7783 37.4207 39.6768 37.4207ZM44.1838 34.6108H43.8354C43.442 32.5877 41.7224 31.2165 39.6768 31.2165C37.6312 31.2165 35.9003 32.5877 35.507 34.6108H26.0995C25.7286 32.6102 23.964 31.1716 21.9409 31.194C19.929 31.194 18.1869 32.599 17.771 34.5771C17.1304 34.5546 16.6134 34.0264 16.6134 33.3745V31.4188C16.6134 30.8793 16.973 30.4073 17.4901 30.2724L22.8513 28.8113C23.0873 28.7438 23.3009 28.609 23.447 28.4066L26.6502 24.2256C27.0211 23.7423 27.6056 23.4725 28.2125 23.4837H37.1479C37.8223 23.4725 38.4517 23.8097 38.8114 24.3829L41.2953 28.3392C41.4077 28.519 41.5875 28.6651 41.7786 28.7551L44.6671 30.0588C45.0942 30.2499 45.364 30.677 45.364 31.1378L45.3752 33.3745C45.3752 34.0376 44.8582 34.5884 44.1838 34.6108Z" fill="black"></path>
                                </svg>