<svg width="20" height="19" viewBox="0 0 20 19" fill="none" xmlns="http://www.w3.org/2000/svg">
<g clip-path="url(#clip0_9935_1703)">
<path d="M19.4179 7.27211C19.2938 6.88826 18.9533 6.61564 18.5505 6.57933L13.0791 6.08253L10.9156 1.01858C10.7561 0.647458 10.3928 0.407227 9.9891 0.407227C9.58544 0.407227 9.22213 0.647458 9.0626 1.01945L6.89907 6.08253L1.42683 6.57933C1.02476 6.6165 0.685164 6.88826 0.560348 7.27211C0.435532 7.65596 0.550802 8.07698 0.85496 8.34238L4.99067 11.9694L3.77115 17.3414C3.68191 17.7364 3.83522 18.1447 4.16295 18.3816C4.33911 18.5089 4.54521 18.5737 4.75304 18.5737C4.93224 18.5737 5.10999 18.5254 5.26952 18.4299L9.9891 15.6092L14.7069 18.4299C15.0522 18.6376 15.4874 18.6187 15.8144 18.3816C16.1423 18.144 16.2954 17.7356 16.2062 17.3414L14.9867 11.9694L19.1224 8.3431C19.4265 8.07698 19.5427 7.65669 19.4179 7.27211Z" fill="#FFAB31"/>
</g>
<defs>
<clipPath id="clip0_9935_1703">
<rect width="18.9565" height="18.9565" fill="white" transform="translate(0.510742)"/>
</clipPath>
</defs>
</svg>
