<svg width="19" height="19" viewBox="0 0 19 19" fill="none" xmlns="http://www.w3.org/2000/svg">
<g clip-path="url(#clip0_9935_1709)">
<path d="M18.8339 7.79659L14.6003 12.1329L15.5955 18.2701C15.6831 18.7598 15.1516 19.1184 14.7266 18.8862L9.52148 16.0032V0.0244141C9.74264 0.0244141 9.9638 0.127095 10.0586 0.340356L12.673 5.90883L18.4942 6.79347C18.9808 6.88036 19.1601 7.453 18.8339 7.79659Z" fill="#ECEFF1"/>
<path d="M9.5213 0.0234375V16.0022L4.31616 18.8852C3.89832 19.1198 3.35885 18.7643 3.44731 18.2691L4.44253 12.1319L0.208909 7.79561C-0.117301 7.45202 0.0612062 6.87938 0.548547 6.7925L6.36978 5.90786L8.9842 0.33938C9.07898 0.126119 9.30014 0.0234375 9.5213 0.0234375Z" fill="#FFAB31"/>
</g>
<defs>
<clipPath id="clip0_9935_1709">
<rect width="18.9565" height="18.9565" fill="white" transform="translate(0.043457)"/>
</clipPath>
</defs>
</svg>
