<svg width="60" height="67" viewBox="0 0 60 67" fill="none" xmlns="http://www.w3.org/2000/svg">
<path d="M58.4062 16.2328C57.5713 14.9385 56.4076 13.8865 55.0327 13.1831L35.1157 1.73934C33.561 0.849868 31.7988 0.382089 30.0052 0.382813C28.2117 0.383538 26.4497 0.852739 24.8958 1.74347L4.97879 13.1831C3.40617 14.0827 1.29414 15.7541 1.12817 17.8546C0.738124 22.8564 7.21115 25.9763 11.539 28.2749C19.0078 32.2202 23.8087 34.5064 27.4477 38.2123C28.2568 39.0377 29.5224 40.478 30.0078 41.6129C30.4809 40.478 31.7589 39.0336 32.5639 38.2123C36.2029 34.4982 41.0244 32.2202 48.4767 28.2749C52.7381 26.0217 58.9995 23.1576 58.8792 17.867C58.8453 17.2941 58.6837 16.7359 58.4062 16.2328ZM30.0078 30.1031C28.7584 30.1031 27.5371 29.7345 26.4984 29.044C25.4596 28.3534 24.6502 27.372 24.1724 26.2238C23.6947 25.0756 23.5701 23.8123 23.8144 22.5936C24.0588 21.375 24.6611 20.2559 25.5451 19.3778C26.4292 18.4997 27.5553 17.9021 28.7809 17.6607C30.0065 17.4193 31.2765 17.5448 32.4304 18.0215C33.5842 18.4982 34.57 19.3045 35.2629 20.3385C35.9558 21.3725 36.3248 22.5877 36.3232 23.8303C36.3226 24.6546 36.1589 25.4707 35.8412 26.2321C35.5235 26.9934 35.0582 27.6851 34.4717 28.2676C33.8853 28.85 33.1893 29.3119 32.4233 29.6269C31.6574 29.9418 30.8366 30.1037 30.0078 30.1031Z" fill="white"/>
<path d="M48.5021 31.5771C39.6432 36.2569 33.4274 38.44 31.0124 46.021C30.5788 47.2315 30.239 48.4731 29.9958 49.7352C29.7571 48.473 29.42 47.2312 28.9876 46.021C26.556 38.4606 20.3568 36.2941 11.4979 31.5977C2.30705 26.7404 0.344398 24.3262 0 23.2821V44.8572C0.00267957 46.6343 0.474317 48.3795 1.36777 49.9184C2.26121 51.4574 3.54517 52.7361 5.09129 53.6268L25.0083 65.054C25.6617 65.4492 26.3576 65.7703 27.083 66.0114C26.8423 65.1613 26.5602 64.2616 26.2158 63.3042C19.9917 45.9715 8.99585 41.7126 8.99585 41.7126C8.99585 41.7126 14.1203 42.1253 21.444 49.6444C24.9917 53.2925 27.7801 57.6546 30.0041 62.1982C30.0041 62.1982 34.8921 53.4081 38.5726 49.6237C45.8963 42.1005 51.0207 41.692 51.0207 41.692C51.0207 41.692 40.0166 45.955 33.8008 63.2836C33.4564 64.2451 33.1701 65.1407 32.9295 65.9949C33.6536 65.7509 34.3492 65.4299 35.0041 65.0375L54.9046 53.6268C56.4515 52.7356 57.7362 51.4563 58.6304 49.9167C59.5245 48.3771 59.9968 46.6311 60 44.8531V23.2656C59.6515 24.2891 57.6763 26.7239 48.5021 31.5771Z" fill="white"/>
</svg>
