<svg width="38" height="60" viewBox="0 0 38 60" fill="none" xmlns="http://www.w3.org/2000/svg">
<path d="M33.5067 27.9996C32.5897 27.9996 31.6912 28.2862 30.953 28.7974C30.8065 27.8585 30.369 26.9976 29.6893 26.3277C28.8456 25.4712 27.7157 24.9996 26.5068 24.9996C25.5585 24.9996 24.6786 25.2939 23.953 25.7964C23.8065 24.858 23.368 23.9971 22.6894 23.3277C21.8456 22.4712 20.7157 21.9996 19.5068 21.9996C18.583 21.9996 17.7226 22.2799 17.0068 22.7593V12.5C17.0068 11.2914 16.5352 10.1616 15.6894 9.32914C14.8457 8.47227 13.7157 8 12.5068 8C10.0254 8 8.00684 10.0186 8.00684 12.5V32.1025C6.37887 31.7647 4.67191 32.2763 3.46488 33.4668C2.52445 34.4195 2.00684 35.6738 2.00684 36.9996V40.1895C2.00684 43.5298 2.67387 46.7687 3.98637 49.8126C5.2793 52.8356 7.41902 55.3981 10.1759 57.2243C12.9266 59.0402 16.1258 59.9996 19.4265 59.9996H20.5867C27.3132 59.9996 33.3728 56.0011 36.0241 49.8155C37.3396 46.7673 38.0066 43.5284 38.0066 40.1895V32.4996C38.0067 30.0181 35.9882 27.9996 33.5067 27.9996ZM36.0067 40.1895C36.0067 43.2545 35.3944 46.2267 34.1873 49.0255C31.8504 54.4771 26.5125 57.9996 20.5868 57.9996H19.4266C16.5184 57.9996 13.7 57.1544 11.2792 55.5562C8.85047 53.9469 6.96469 51.689 5.8241 49.0235C4.61801 46.2281 4.00676 43.2559 4.00676 40.1895V36.9996C4.00676 36.2032 4.32023 35.4478 4.87887 34.8814C5.45508 34.3126 6.21094 33.9996 7.00676 33.9996C7.5341 33.9996 8.03895 34.1363 8.5077 34.4063C9.43254 34.938 10.0068 35.9318 10.0068 36.9996V39.9986C10.0068 40.5509 10.4541 40.9986 11.0067 40.9986C11.5594 40.9986 12.0067 40.5508 12.0067 39.9986V36.9996C12.0067 35.4209 11.2519 33.9421 10.0066 33.0076V12.5001C10.0066 11.1216 11.1278 10.0002 12.5066 10.0002C13.1755 10.0002 13.7995 10.26 14.2752 10.7429C14.7469 11.2078 15.0067 11.8318 15.0067 12.5002V26.4998V28.9998C15.0067 29.5521 15.454 29.9997 16.0066 29.9997C16.5594 29.9997 17.0066 29.552 17.0066 28.9998V26.4998C17.0066 25.1213 18.1277 23.9998 19.5066 23.9998C20.1755 23.9998 20.7995 24.2596 21.2741 24.742C21.7467 25.2073 22.0065 25.8314 22.0065 26.4998V29.4998V30.9998C22.0065 31.5521 22.4538 31.9998 23.0065 31.9998C23.5593 31.9998 24.0064 31.552 24.0064 30.9998V29.4998C24.0064 28.1213 25.1276 26.9998 26.5064 26.9998C27.1753 26.9998 27.7993 27.2596 28.2739 27.742C28.7466 28.2073 29.0064 28.8314 29.0064 29.4998V32.4998V32.9998C29.0064 33.5521 29.4537 33.9998 30.0063 33.9998C30.5591 33.9998 31.0063 33.552 31.0063 32.9998V32.4998C31.0063 31.8309 31.2661 31.2069 31.7484 30.7312C32.2123 30.2595 32.8373 29.9997 33.5063 29.9997C34.8852 29.9997 36.0062 31.1213 36.0062 32.4997V40.1895H36.0067Z" fill="#336AEA"/>
<path d="M12.5068 5.00051C13.0596 5.00051 13.5068 4.55273 13.5068 4.00055V0.999961C13.5068 0.447656 13.0595 0 12.5068 0C11.954 0 11.5068 0.447773 11.5068 0.999961V4.00043C11.5067 4.55273 11.954 5.00051 12.5068 5.00051Z" fill="#336AEA"/>
<path d="M20.0117 12.0009C20.0117 12.5532 20.459 13.0009 21.0117 13.0009H24.0126C24.5654 13.0009 25.0126 12.5531 25.0126 12.0009C25.0126 11.4487 24.5653 11.001 24.0126 11.001H21.0117C20.459 11.001 20.0117 11.4487 20.0117 12.0009Z" fill="#336AEA"/>
<path d="M18.5206 7.49173C18.7764 7.49173 19.0323 7.39412 19.2275 7.19876L21.3496 5.0772C21.7402 4.68709 21.7402 4.0538 21.3496 3.6631C20.959 3.2724 20.3262 3.27251 19.9355 3.6631L17.8134 5.78466C17.4229 6.17478 17.4229 6.80806 17.8134 7.19876C18.0089 7.39412 18.2647 7.49173 18.5206 7.49173Z" fill="#336AEA"/>
<path d="M5.7852 7.19872C5.98056 7.39407 6.23638 7.49169 6.4922 7.49169C6.74802 7.49169 7.00396 7.39407 7.19919 7.19872C7.58978 6.80813 7.58978 6.17485 7.19919 5.78462L5.07716 3.66306C4.68657 3.27247 4.05376 3.27247 3.66306 3.66306C3.27247 4.05364 3.27247 4.68704 3.66306 5.07716L5.7852 7.19872Z" fill="#336AEA"/>
<path d="M4.99992 12.0009C4.99992 11.4486 4.55262 11.001 3.99996 11.001H0.999962C0.447188 11.001 0 11.4487 0 12.0009C0 12.5531 0.447305 13.0009 0.999962 13.0009H3.99996C4.55273 13.001 4.99992 12.5532 4.99992 12.0009Z" fill="#336AEA"/>
</svg>
