<svg width="60" height="60" viewBox="0 0 60 60" fill="none" xmlns="http://www.w3.org/2000/svg">
<path d="M41.3676 40.326C40.9053 39.8731 40.1634 39.8807 39.7103 40.3429L39.6771 40.3769C39.2241 40.8392 39.2318 41.5811 39.6941 42.0341C39.9221 42.2576 40.2182 42.3689 40.5141 42.3689C40.818 42.3689 41.1218 42.2514 41.3513 42.0173L41.3846 41.9833C41.8375 41.521 41.8299 40.7791 41.3676 40.326Z" fill="#336AEA"/>
<path d="M53.9734 28.0399H50.8593V24.9258C50.8593 24.2786 50.3346 23.7539 49.6874 23.7539C49.0402 23.7539 48.5155 24.2786 48.5155 24.9258V28.0399H45.4014C44.7541 28.0399 44.2295 28.5646 44.2295 29.2118C44.2295 29.859 44.7541 30.3837 45.4014 30.3837H48.5155V33.4978C48.5155 34.1451 49.0402 34.6697 49.6874 34.6697C50.3346 34.6697 50.8593 34.1451 50.8593 33.4978V30.3837H53.9734C54.6206 30.3837 55.1453 29.859 55.1453 29.2118C55.1453 28.5646 54.6206 28.0399 53.9734 28.0399Z" fill="#336AEA"/>
<path d="M53.5189 19.6381C52.4244 11.5486 45.6617 5.49609 37.6347 5.49609C33.5827 5.49609 29.7923 7.00653 26.836 9.77509C23.8796 7.00653 20.0891 5.49609 16.0373 5.49609C7.19427 5.49609 0 12.8617 0 21.9153C0 23.704 0.521837 25.709 1.56 27.9222H1.17188C0.52465 27.9222 0 28.4468 0 29.0941C0 29.7413 0.52465 30.2659 1.17188 30.2659H2.80805C4.99677 33.9714 8.45802 38.1851 13.1776 42.878C19.5737 49.2379 26.0594 54.2136 26.1242 54.2632C26.3342 54.4238 26.5851 54.5041 26.836 54.5041C27.0869 54.5041 27.3377 54.4238 27.5478 54.2632C27.5972 54.2253 32.5576 50.4216 38.0546 45.2389C38.5256 44.7949 38.5474 44.0532 38.1034 43.5823C37.6595 43.1115 36.9178 43.0896 36.4468 43.5336C32.2545 47.4862 28.3842 50.6202 26.8361 51.8445C24.9965 50.3891 19.8752 46.2344 14.8135 41.1994C10.7611 37.1683 7.65892 33.4947 5.56161 30.2659H16.053C16.5757 30.2659 17.0352 29.9197 17.1794 29.4173L19.2269 22.2803L24.8969 40.4465C25.0497 40.9359 25.5029 41.2693 26.0156 41.2693C26.5283 41.2693 26.9814 40.9359 27.1341 40.4465L30.2742 30.3833H35.5059C36.1531 30.3833 36.6778 29.8586 36.6778 29.2114C36.6778 28.5641 36.1531 28.0395 35.5059 28.0395H29.4122C28.8995 28.0395 28.4463 28.3728 28.2936 28.8623L26.0152 36.1637L20.2981 17.8465C20.1439 17.3523 19.6847 17.0167 19.1658 17.0239C18.6482 17.0298 18.1957 17.3748 18.0529 17.8725L15.1697 27.9223H4.1747C2.96333 25.6353 2.34375 23.6195 2.34375 21.9153C2.34375 14.154 8.48662 7.83985 16.0373 7.83985C19.8323 7.83985 23.3615 9.39985 25.9747 12.2323C26.1966 12.4727 26.5088 12.6095 26.836 12.6095C27.1632 12.6095 27.4755 12.4727 27.6973 12.2323C30.3105 9.39985 33.8397 7.83985 37.6347 7.83985C44.1629 7.83985 49.713 12.5477 51.0322 18.9873C50.5919 18.9298 50.1432 18.8997 49.6875 18.8997C44.0012 18.8997 39.375 23.5259 39.375 29.2122C39.375 34.8985 44.0012 39.5247 49.6875 39.5247C55.3738 39.5247 60 34.8985 60 29.2122C60.0001 24.8791 57.3136 21.1621 53.5189 19.6381ZM49.6876 37.181C45.2936 37.181 41.7188 33.6061 41.7188 29.2122C41.7188 24.8182 45.2936 21.2434 49.6876 21.2434C54.0816 21.2434 57.6564 24.8182 57.6564 29.2122C57.6564 33.6061 54.0816 37.181 49.6876 37.181Z" fill="#336AEA"/>
</svg>
