<svg width="38" height="60" viewBox="0 0 38 60" fill="none" xmlns="http://www.w3.org/2000/svg">
<path d="M33.5067 28.0001C32.5897 28.0001 31.6912 28.2867 30.953 28.7979C30.8065 27.859 30.369 26.9981 29.6893 26.3281C28.8456 25.4717 27.7157 25.0001 26.5068 25.0001C25.5585 25.0001 24.6786 25.2944 23.953 25.7969C23.8065 24.8585 23.368 23.9976 22.6894 23.3281C21.8456 22.4717 20.7157 22.0001 19.5068 22.0001C18.583 22.0001 17.7226 22.2804 17.0068 22.7598V12.5005C17.0068 11.2919 16.5352 10.1621 15.6894 9.32963C14.8457 8.47275 13.7157 8.00049 12.5068 8.00049C10.0254 8.00049 8.00684 10.019 8.00684 12.5005V32.103C6.37887 31.7652 4.67191 32.2768 3.46488 33.4673C2.52445 34.4199 2.00684 35.6743 2.00684 37.0001V40.19C2.00684 43.5303 2.67387 46.7692 3.98637 49.8131C5.2793 52.8361 7.41902 55.3986 10.1759 57.2247C12.9266 59.0407 16.1258 60.0001 19.4265 60.0001H20.5867C27.3132 60.0001 33.3728 56.0015 36.0241 49.816C37.3396 46.7678 38.0066 43.5289 38.0066 40.19V32.5001C38.0067 30.0186 35.9882 28.0001 33.5067 28.0001ZM36.0067 40.19C36.0067 43.2549 35.3944 46.2272 34.1873 49.026C31.8504 54.4776 26.5125 58.0001 20.5868 58.0001H19.4266C16.5184 58.0001 13.7 57.1549 11.2792 55.5567C8.85047 53.9474 6.96469 51.6895 5.8241 49.024C4.61801 46.2286 4.00676 43.2563 4.00676 40.19V37.0001C4.00676 36.2037 4.32023 35.4483 4.87887 34.8819C5.45508 34.3131 6.21094 34.0001 7.00676 34.0001C7.5341 34.0001 8.03895 34.1368 8.5077 34.4068C9.43254 34.9385 10.0068 35.9322 10.0068 37.0001V39.9991C10.0068 40.5514 10.4541 40.9991 11.0067 40.9991C11.5594 40.9991 12.0067 40.5513 12.0067 39.9991V37.0001C12.0067 35.4214 11.2519 33.9426 10.0066 33.0081V12.5006C10.0066 11.1221 11.1278 10.0006 12.5066 10.0006C13.1755 10.0006 13.7995 10.2604 14.2752 10.7434C14.7469 11.2083 15.0067 11.8323 15.0067 12.5007V26.5003V29.0003C15.0067 29.5526 15.454 30.0002 16.0066 30.0002C16.5594 30.0002 17.0066 29.5524 17.0066 29.0003V26.5003C17.0066 25.1218 18.1277 24.0003 19.5066 24.0003C20.1755 24.0003 20.7995 24.2601 21.2741 24.7425C21.7467 25.2078 22.0065 25.8319 22.0065 26.5003V29.5003V31.0003C22.0065 31.5526 22.4538 32.0003 23.0065 32.0003C23.5593 32.0003 24.0064 31.5525 24.0064 31.0003V29.5003C24.0064 28.1218 25.1276 27.0003 26.5064 27.0003C27.1753 27.0003 27.7993 27.2601 28.2739 27.7425C28.7466 28.2078 29.0064 28.8319 29.0064 29.5003V32.5003V33.0003C29.0064 33.5526 29.4537 34.0003 30.0063 34.0003C30.5591 34.0003 31.0063 33.5525 31.0063 33.0003V32.5003C31.0063 31.8314 31.2661 31.2074 31.7484 30.7317C32.2123 30.26 32.8373 30.0002 33.5063 30.0002C34.8852 30.0002 36.0062 31.1218 36.0062 32.5002V40.19H36.0067Z" fill="#336AEA"/>
<path d="M12.5068 5.00051C13.0596 5.00051 13.5068 4.55273 13.5068 4.00055V0.999961C13.5068 0.447656 13.0595 0 12.5068 0C11.954 0 11.5068 0.447773 11.5068 0.999961V4.00043C11.5067 4.55273 11.954 5.00051 12.5068 5.00051Z" fill="#336AEA"/>
<path d="M20.0117 12.0004C20.0117 12.5528 20.459 13.0004 21.0117 13.0004H24.0126C24.5654 13.0004 25.0126 12.5526 25.0126 12.0004C25.0126 11.4483 24.5653 11.0005 24.0126 11.0005H21.0117C20.459 11.0005 20.0117 11.4483 20.0117 12.0004Z" fill="#336AEA"/>
<path d="M18.5203 7.49173C18.7761 7.49173 19.0321 7.39412 19.2273 7.19876L21.3493 5.0772C21.7399 4.68709 21.7399 4.0538 21.3493 3.6631C20.9587 3.2724 20.3259 3.27251 19.9352 3.6631L17.8132 5.78466C17.4226 6.17478 17.4226 6.80806 17.8132 7.19876C18.0087 7.39412 18.2645 7.49173 18.5203 7.49173Z" fill="#336AEA"/>
<path d="M5.78496 7.19872C5.98031 7.39407 6.23613 7.49169 6.49195 7.49169C6.74777 7.49169 7.00371 7.39407 7.19895 7.19872C7.58953 6.80813 7.58953 6.17485 7.19895 5.78462L5.07691 3.66306C4.68633 3.27247 4.05352 3.27247 3.66281 3.66306C3.27223 4.05364 3.27223 4.68704 3.66281 5.07716L5.78496 7.19872Z" fill="#336AEA"/>
<path d="M4.99992 12.0004C4.99992 11.4481 4.55262 11.0005 3.99996 11.0005H0.999962C0.447188 11.0005 0 11.4483 0 12.0004C0 12.5526 0.447305 13.0004 0.999962 13.0004H3.99996C4.55273 13.0005 4.99992 12.5528 4.99992 12.0004Z" fill="#336AEA"/>
</svg>
