<svg width="53" height="60" viewBox="0 0 53 60" fill="none" xmlns="http://www.w3.org/2000/svg">
<path fill-rule="evenodd" clip-rule="evenodd" d="M34.5634 21.9087C32.9683 20.3086 30.936 19.2189 28.7236 18.7774C26.5112 18.3359 24.2179 18.5625 22.1339 19.4285C20.0498 20.2945 18.2685 21.7611 17.0153 23.6426C15.762 25.5242 15.0931 27.7364 15.0931 29.9993C15.0931 32.2623 15.762 34.4744 17.0153 36.356C18.2685 38.2376 20.0498 39.7041 22.1339 40.5701C24.2179 41.4361 26.5112 41.6627 28.7236 41.2212C30.936 40.7798 32.9683 39.6901 34.5634 38.0899C36.702 35.944 37.9035 33.0338 37.9035 29.9993C37.9035 26.9648 36.702 24.0546 34.5634 21.9087ZM26.4978 16.0853C29.2412 16.0853 31.9229 16.9014 34.204 18.4304C36.485 19.9595 38.2628 22.1327 39.3126 24.6753C40.3623 27.218 40.637 30.0158 40.1017 32.715C39.5664 35.4142 38.2452 37.8936 36.3053 39.8395C34.3653 41.7855 31.8937 43.1106 29.203 43.6474C26.5123 44.1841 23.7234 43.9084 21.1889 42.855C18.6545 41.8017 16.4883 40.018 14.9643 37.7296C13.4404 35.4412 12.6271 32.7508 12.6273 29.9987C12.6277 26.3085 14.0892 22.7696 16.6903 20.1604C19.2915 17.5511 22.8193 16.0853 26.4978 16.0853ZM14.0082 4.89986C18.1349 3.7505 22.126 2.1577 25.9121 0.149135C26.0898 0.052544 26.2885 0.00133393 26.4906 2.57108e-05C26.6928 -0.00128251 26.8921 0.0473515 27.0711 0.141634C30.8605 2.1548 34.8559 3.75099 38.9875 4.90236C43.161 6.0588 47.4433 6.7757 51.765 7.04144C51.9271 7.04061 52.0877 7.07197 52.2377 7.13371C52.3877 7.19544 52.524 7.28633 52.6388 7.40115C52.7536 7.51596 52.8446 7.65243 52.9066 7.80268C52.9686 7.95293 53.0003 8.11401 53 8.27663V23.5927V23.6015C52.909 33.0104 50.7107 40.6253 46.3626 46.6362C42.0145 52.6472 35.5367 57.0216 26.8929 59.9358C26.6398 60.0214 26.3658 60.0214 26.1127 59.9358C17.4689 57.0216 10.9948 52.6509 6.64297 46.6362C2.30736 40.6503 0.110269 33.0729 0.00184733 23.719C-0.000615778 23.6773 -0.000615778 23.6356 0.00184733 23.594V8.27663C0.00192196 7.96218 0.121656 7.65963 0.336594 7.43077C0.551533 7.2019 0.84546 7.06398 1.15834 7.04519C5.50456 6.78238 9.81135 6.06334 14.0082 4.89986ZM26.4978 2.61951C34.0188 6.51136 42.1155 8.7542 50.5362 9.42305V23.5927C50.4477 32.4591 48.4027 39.5952 44.3599 45.1873C40.382 50.6881 34.44 54.7212 26.4928 57.4654C18.5457 54.7212 12.6037 50.6856 8.62571 45.1873C4.60166 39.6177 2.55785 32.5091 2.45566 23.6852C2.45566 23.6552 2.45566 23.624 2.45566 23.5927V9.42555C10.8801 8.7567 18.9768 6.51386 26.4978 2.61951ZM30.9157 25.248C31.1378 25.0086 31.4456 24.8675 31.7714 24.8558C32.0972 24.8441 32.4143 24.9626 32.6529 25.1855C32.8915 25.4083 33.0322 25.7171 33.0439 26.0439C33.0555 26.3707 32.9373 26.6888 32.7152 26.9282L25.4535 34.7632C25.3328 34.8944 25.1852 34.9978 25.0207 35.0661C24.8563 35.1344 24.679 35.166 24.5012 35.1587C24.3234 35.1515 24.1493 35.1055 23.9909 35.0241C23.8326 34.9426 23.6938 34.8275 23.5841 34.6869L20.2667 30.9988C20.1586 30.879 20.0751 30.739 20.0209 30.5867C19.9668 30.4345 19.9431 30.2731 19.9511 30.1117C19.9591 29.9502 19.9988 29.792 20.0678 29.6459C20.1368 29.4999 20.2338 29.3689 20.3533 29.2605C20.5946 29.0415 20.9127 28.9276 21.2377 28.9439C21.3986 28.9519 21.5563 28.9917 21.7019 29.0609C21.8475 29.1302 21.9781 29.2275 22.0862 29.3473L24.5599 32.089L30.9157 25.248Z" fill="#336AEA"/>
</svg>
