<svg width="51" height="60" viewBox="0 0 51 60" fill="none" xmlns="http://www.w3.org/2000/svg">
<path d="M45.175 39.351C41.5677 37.5297 37.6041 36.2757 33.7012 35.488C32.7781 34.4973 32.1431 33.2733 31.8648 31.948C34.2808 30.0585 36.1304 27.2244 37.1438 23.8482C39.9419 23.4245 40.6695 19.1249 39.5598 16.7705C44.6553 -5.55886 5.76115 -5.60519 10.7356 16.7218C9.56794 19.0751 10.2945 23.4327 13.1251 23.8504C14.1251 27.2266 15.9881 30.0609 18.4041 31.9503C18.1151 33.3339 17.4401 34.6073 16.4571 35.623C14.6098 35.946 13.4725 36.2181 13.4481 36.2447C5.87949 38.3281 -0.83707 40.6695 0.085041 49.9864C-0.299191 63.3316 50.5633 63.344 50.1996 49.9868C50.5993 45.7831 49.2421 41.2678 45.175 39.351ZM25.1676 1.79199C33.9477 1.67107 39.1187 7.44581 37.98 15.2394C37.4609 14.9894 36.8374 14.9785 36.2787 15.1044C36.0575 14.4407 35.6968 13.3764 35.0773 11.6486C34.9986 11.4955 34.8699 11.357 34.7675 11.2172C26.8555 5.95287 23.5525 15.7141 16.4482 11.1884C16.4062 11.1619 16.3774 11.1375 16.3399 11.1088C15.977 11.0163 15.5703 11.0777 15.3399 11.4053C14.6045 12.8862 14.2181 14.5275 13.9748 15.1045C13.4382 14.9672 12.8494 14.9786 12.342 15.2129C11.203 7.42588 16.3904 1.67353 25.1676 1.79199ZM14.665 22.6092C14.2144 21.4694 13.4666 22.2799 12.9769 21.9057C11.8662 21.1507 11.5901 17.2904 13.0169 16.8854C13.7587 16.6414 14.414 17.5867 15.1097 17.0447C15.3047 16.8912 15.435 16.6701 15.4749 16.4252C15.5413 16.1265 16.0125 14.7503 16.528 13.3278C24.6254 17.0439 26.3671 8.57294 33.4844 12.5622C34.4226 14.8531 34.443 16.0682 35.1568 17.0426C35.8502 17.5879 36.5102 16.6329 37.25 16.8832C37.8186 17.0425 38.3563 18.1243 38.2235 19.5824C38.1129 20.7971 37.6549 21.5736 37.292 21.9033C36.7651 22.2455 35.9646 21.4728 35.6039 22.6069C32.3772 35.7167 17.8789 35.7199 14.665 22.6092ZM20.0258 33.0321C23.1947 34.8315 27.0764 34.8315 30.2453 33.0321C30.6376 34.3939 31.3447 35.6446 32.3096 36.6827C31.8383 38.1673 28.4466 40.9771 25.1411 43.028C21.8223 40.977 18.4306 38.1606 17.9705 36.6827C18.931 35.6429 19.6349 34.3926 20.0258 33.0321ZM1.9078 49.9863C1.23141 42.5575 5.30385 40.7152 11.5454 38.6761C11.2578 39.8681 11.0363 41.075 10.8817 42.2912C7.01131 43.4592 7.22055 47.0206 7.82845 50.2849C6.97906 51.4397 8.41477 53.0122 9.64054 52.2562C10.5543 51.7573 10.5193 50.3491 9.59843 49.88C9.25466 47.4877 8.60008 44.5305 11.876 44.0438C14.98 43.9066 15.0376 46.9134 15.2735 49.1876C14.4775 49.8756 14.8365 51.2476 15.8511 51.492C17.186 51.8982 18.1955 50.0711 17.0944 49.1876C16.8937 46.117 16.4148 42.6922 12.7203 42.1962C12.9206 40.8078 13.2081 39.4334 13.5809 38.081C14.1726 37.9256 14.4451 37.8361 16.362 37.4859C17.5369 40.2403 22.4265 43.4817 24.234 44.5879V58.1681C13.6078 57.7329 1.9166 55.5593 1.9078 49.9863ZM48.3698 49.9863C48.367 55.5483 36.6786 57.7356 26.0393 58.168V44.5878C27.8756 43.4528 32.8316 40.1628 33.94 37.4061C34.8363 37.5762 35.7025 37.7985 36.5573 38.0256C37.077 39.9264 37.4294 41.869 37.6105 43.8312C33.3793 45.3541 35.5371 51.6845 39.8171 50.3065C43.053 49.3155 42.746 44.3348 39.4336 43.7249C39.2724 42.0113 38.9922 40.3109 38.5951 38.6362C44.8685 40.6619 49.0705 42.5142 48.3698 49.9863ZM38.7168 45.4529C40.7956 45.4736 40.8008 48.6277 38.7153 48.6375C36.6285 48.6231 36.6425 45.4699 38.7213 45.4529H38.7168Z" fill="#336AEA"/>
</svg>
