<svg width="60" height="60" viewBox="0 0 60 60" fill="none" xmlns="http://www.w3.org/2000/svg">
<g clip-path="url(#clip0_9832_84)">
<path d="M59.7016 36.5145C59.3376 35.6356 58.4876 35.0677 57.5363 35.0677L50.3844 35.0689C50.3844 35.0688 50.3843 35.0685 50.3843 35.0677V2.92969C50.3843 1.3789 49.1226 0.117188 47.5718 0.117188H27.1239C25.5731 0.117188 24.3114 1.3789 24.3114 2.92969V10.8796C22.8817 10.5472 21.3927 10.3711 19.8633 10.3711C9.03986 10.3711 0.234375 19.1766 0.234375 30C0.234375 40.8234 9.03986 49.6289 19.8633 49.6289C21.7476 49.6289 23.5706 49.3613 25.2968 48.8633L35.6906 59.2572C36.1332 59.6998 36.7218 59.9436 37.3479 59.9436C37.974 59.9436 38.5625 59.6998 39.0051 59.2572L59.1935 39.0688C59.8662 38.3961 60.0657 37.3935 59.7016 36.5145ZM2.10938 30C2.10938 20.2105 10.0737 12.2461 19.8633 12.2461C29.6528 12.2461 37.6172 20.2105 37.6172 30C37.6172 39.7895 29.6528 47.7539 19.8633 47.7539C10.0737 47.7539 2.10938 39.7895 2.10938 30ZM57.8677 37.7428L37.6793 57.9314C37.5599 58.0507 37.4204 58.0686 37.3479 58.0686C37.2754 58.0686 37.1359 58.0507 37.0164 57.9312L27.2641 48.179C34.4296 45.2512 39.4922 38.2062 39.4922 30C39.4922 21.3879 33.917 14.0537 26.1864 11.4162V2.92969C26.1864 2.41276 26.6069 1.99219 27.1239 1.99219H47.5718C48.0888 1.99219 48.5093 2.41276 48.5093 2.92969V35.0677C48.5093 36.1015 49.3505 36.9427 50.3843 36.9427H57.5363C57.8189 36.9427 57.9333 37.145 57.9694 37.2321C58.0054 37.3191 58.0676 37.543 57.8677 37.7428Z" fill="#336AEA"/>
<path d="M19.0231 24.2275H20.7039C21.7985 24.2275 22.6889 25.118 22.6889 26.2126C22.6889 26.7304 23.1087 27.1501 23.6264 27.1501C24.1442 27.1501 24.5639 26.7304 24.5639 26.2126C24.5639 24.1167 22.8846 22.4069 20.801 22.355V21.457C20.801 20.9393 20.3813 20.5195 19.8635 20.5195C19.3457 20.5195 18.926 20.9393 18.926 21.457V22.355C16.8424 22.4069 15.1631 24.1167 15.1631 26.2126V27.0773C15.1631 29.2058 16.8947 30.9374 19.0231 30.9374H20.7039C21.7985 30.9374 22.6889 31.8279 22.6889 32.9225V33.7872C22.6889 34.8819 21.7985 35.7723 20.7039 35.7723H19.0231C17.9286 35.7723 17.0381 34.8819 17.0381 33.7872V33.7064C17.0381 33.1887 16.6184 32.7689 16.1006 32.7689C15.5828 32.7689 15.1631 33.1887 15.1631 33.7064V33.7872C15.1631 35.8832 16.8424 37.593 18.926 37.6449V38.5428C18.926 39.0606 19.3457 39.4803 19.8635 39.4803C20.3813 39.4803 20.801 39.0606 20.801 38.5428V37.6449C22.8846 37.593 24.5639 35.8832 24.5639 33.7872V32.9225C24.5639 30.794 22.8323 29.0624 20.7039 29.0624H19.0231C17.9286 29.0624 17.0381 28.172 17.0381 27.0773V26.2126C17.0381 25.118 17.9286 24.2275 19.0231 24.2275Z" fill="#336AEA"/>
<path d="M19.8633 15.3062C11.7611 15.3062 5.16943 21.8978 5.16943 30C5.16943 38.1022 11.7611 44.6939 19.8633 44.6939C27.9655 44.6939 34.5572 38.1022 34.5572 30C34.5572 21.8978 27.9655 15.3062 19.8633 15.3062ZM19.8633 42.8189C12.795 42.8189 7.04443 37.0684 7.04443 30C7.04443 22.9317 12.795 17.1812 19.8633 17.1812C26.9316 17.1812 32.6822 22.9317 32.6822 30C32.6822 37.0684 26.9316 42.8189 19.8633 42.8189Z" fill="#336AEA"/>
</g>
<defs>
<clipPath id="clip0_9832_84">
<rect width="60" height="60" fill="white"/>
</clipPath>
</defs>
</svg>
