<svg width="32" height="35" viewBox="0 0 32 35" fill="none" xmlns="http://www.w3.org/2000/svg">
<g clip-path="url(#clip0_9808_14)">
<path d="M31.1503 8.44942C30.705 7.75915 30.0844 7.19806 29.3511 6.8229L18.7287 0.719574C17.8995 0.24519 16.9596 -0.00429206 16.0031 -0.0039058C15.0465 -0.00351954 14.1068 0.246721 13.2781 0.721775L2.65566 6.8229C1.81694 7.30271 0.690518 8.19411 0.601998 9.31441C0.393976 11.982 3.84626 13.6459 6.15442 14.8719C10.1378 16.976 12.6983 18.1954 14.6391 20.1718C15.0706 20.612 15.7456 21.3802 16.0045 21.9855C16.2568 21.3802 16.9384 20.6098 17.3677 20.1718C19.3085 18.191 21.88 16.976 25.8546 14.8719C28.1273 13.6701 31.4667 12.1427 31.4025 9.32101C31.3845 9.01547 31.2983 8.71776 31.1503 8.44942ZM16.0045 15.8469C15.3381 15.8469 14.6868 15.6503 14.1328 15.2821C13.5788 14.9138 13.1471 14.3903 12.8923 13.778C12.6375 13.1656 12.571 12.4918 12.7013 11.8419C12.8317 11.1919 13.1529 10.5951 13.6244 10.1267C14.0959 9.65842 14.6964 9.33972 15.3501 9.21096C16.0038 9.0822 16.6811 9.14917 17.2965 9.40339C17.9119 9.65761 18.4376 10.0877 18.8072 10.6391C19.1768 11.1906 19.3736 11.8387 19.3727 12.5014C19.3724 12.9411 19.285 13.3763 19.1156 13.7824C18.9462 14.1884 18.698 14.5573 18.3852 14.868C18.0725 15.1786 17.7013 15.425 17.2928 15.5929C16.8843 15.7609 16.4465 15.8472 16.0045 15.8469Z" fill="url(#paint0_linear_9808_14)"/>
<path d="M25.8678 16.633C21.143 19.1289 17.8279 20.2932 16.54 24.3364C16.3087 24.982 16.1275 25.6442 15.9978 26.3173C15.8705 25.6441 15.6907 24.9818 15.46 24.3364C14.1632 20.3042 10.857 19.1487 6.13223 16.644C1.23043 14.0534 0.183679 12.7658 0 12.209V23.7157C0.0014291 24.6635 0.252969 25.5943 0.729475 26.415C1.20598 27.2358 1.89076 27.9178 2.71535 28.3928L13.3378 34.4873C13.6863 34.6981 14.0574 34.8694 14.4443 34.998C14.3159 34.5445 14.1654 34.0647 13.9817 33.5541C10.6622 24.31 4.79779 22.0386 4.79779 22.0386C4.79779 22.0386 7.53084 22.2587 11.4368 26.2689C13.3289 28.2145 14.816 30.541 16.0022 32.9642C16.0022 32.9642 18.6091 28.2762 20.5721 26.2579C24.478 22.2455 27.2111 22.0276 27.2111 22.0276C27.2111 22.0276 21.3422 24.3012 18.0271 33.5431C17.8434 34.0559 17.6907 34.5335 17.5624 34.9891C17.9486 34.859 18.3196 34.6878 18.6689 34.4785L29.2824 28.3928C30.1075 27.9175 30.7926 27.2352 31.2695 26.4141C31.7464 25.593 31.9983 24.6618 32 23.7135V12.2002C31.8141 12.746 30.7607 14.0446 25.8678 16.633Z" fill="url(#paint1_linear_9808_14)"/>
</g>
<defs>
<linearGradient id="paint0_linear_9808_14" x1="0.595359" y1="10.9916" x2="31.4048" y2="10.9916" gradientUnits="userSpaceOnUse">
<stop stop-color="#336AEA"/>
<stop offset="1" stop-color="#87ABFF"/>
</linearGradient>
<linearGradient id="paint1_linear_9808_14" x1="19.7488" y1="7.15555" x2="9.62465" y2="37.8394" gradientUnits="userSpaceOnUse">
<stop stop-color="#2A3547"/>
<stop offset="1" stop-color="#707070"/>
</linearGradient>
<clipPath id="clip0_9808_14">
<rect width="32" height="35" fill="white"/>
</clipPath>
</defs>
</svg>
