<svg width="23" height="23" viewBox="0 0 23 23" fill="none" xmlns="http://www.w3.org/2000/svg">
<g clip-path="url(#clip0_9888_84)">
<path d="M13.5215 11.5C13.5215 12.6164 12.6164 13.5215 11.5 13.5215C10.3836 13.5215 9.47852 12.6164 9.47852 11.5C9.47852 10.3836 10.3836 9.47852 11.5 9.47852C12.6164 9.47852 13.5215 10.3836 13.5215 11.5Z" fill="#5A6A85"/>
<path d="M14.9141 5.39062H8.08594C6.59966 5.39062 5.39062 6.59966 5.39062 8.08594V14.9141C5.39062 16.4003 6.59966 17.6094 8.08594 17.6094H14.9141C16.4003 17.6094 17.6094 16.4003 17.6094 14.9141V8.08594C17.6094 6.59966 16.4003 5.39062 14.9141 5.39062ZM11.5 14.8691C9.64223 14.8691 8.13086 13.3578 8.13086 11.5C8.13086 9.64223 9.64223 8.13086 11.5 8.13086C13.3578 8.13086 14.8691 9.64223 14.8691 11.5C14.8691 13.3578 13.3578 14.8691 11.5 14.8691ZM15.3633 8.31055C14.9911 8.31055 14.6895 8.0089 14.6895 7.63672C14.6895 7.26453 14.9911 6.96289 15.3633 6.96289C15.7355 6.96289 16.0371 7.26453 16.0371 7.63672C16.0371 8.0089 15.7355 8.31055 15.3633 8.31055Z" fill="#5A6A85"/>
<path d="M16.9355 0H6.06445C2.72058 0 0 2.72058 0 6.06445V16.9355C0 20.2794 2.72058 23 6.06445 23H16.9355C20.2794 23 23 20.2794 23 16.9355V6.06445C23 2.72058 20.2794 0 16.9355 0ZM18.957 14.9141C18.957 17.1433 17.1433 18.957 14.9141 18.957H8.08594C5.85669 18.957 4.04297 17.1433 4.04297 14.9141V8.08594C4.04297 5.85669 5.85669 4.04297 8.08594 4.04297H14.9141C17.1433 4.04297 18.957 5.85669 18.957 8.08594V14.9141Z" fill="#5A6A85"/>
</g>
<defs>
<clipPath id="clip0_9888_84">
<rect width="23" height="23" fill="white"/>
</clipPath>
</defs>
</svg>
