<svg width="60" height="60" viewBox="0 0 60 60" fill="none" xmlns="http://www.w3.org/2000/svg">
<g clip-path="url(#clip0_9988_196)">
<path d="M45.3466 45.8208L36.7516 42.1398C36.0373 41.8339 35.5759 41.1342 35.5759 40.3572V36.9066C38.7016 35.1073 40.8833 31.8445 41.1781 28.0607H41.7424C42.6527 28.0607 43.525 27.6734 44.1361 26.9982C44.7466 26.3234 45.0444 25.4141 44.9532 24.5034C44.8793 23.766 44.5355 23.1015 44.0227 22.5952C44.0273 22.5589 44.0303 22.5223 44.0303 22.4849V19.6666C44.0303 15.0754 41.8135 10.9921 38.394 8.43094C38.393 3.8032 34.6278 0 30 0C25.3745 0 21.6111 3.79922 21.6062 8.42367C21.1938 8.73223 20.7959 9.0641 20.4155 9.42012C17.8205 11.8484 16.2541 15.1316 16.0047 18.6654C15.9705 19.1496 16.3353 19.5698 16.8195 19.6041C17.3016 19.6375 17.724 19.2735 17.7582 18.7893C17.9762 15.6994 19.3466 12.8279 21.6166 10.7038C23.8973 8.56945 26.8746 7.39418 30 7.39418C36.7671 7.39418 42.2725 12.8995 42.2725 19.6668V21.6714C42.0569 21.6289 41.8348 21.6061 41.6082 21.6061H40.3333C39.782 21.6061 39.3335 21.1576 39.3335 20.6062V19.9862C39.3335 18.0865 38.2589 16.433 36.6846 15.6014C37.4937 15.1216 37.959 14.7935 38.0259 14.7456C38.4207 14.4636 38.512 13.9153 38.2303 13.5204C37.9487 13.1255 37.3999 13.0336 37.0047 13.3148C36.9448 13.3575 30.9173 17.591 22.3652 18.6886C21.3968 18.8129 20.6664 19.6356 20.6664 20.6061C20.6664 21.1575 20.218 21.606 19.6666 21.606H18.2577C17.3473 21.606 16.475 21.9933 15.864 22.6684C15.2534 23.3432 14.9555 24.2524 15.0467 25.163C15.2094 26.7879 16.6786 28.0608 18.3917 28.0608H18.8216C19.0268 30.7243 20.1625 33.2007 22.0718 35.11C22.7834 35.8216 23.5743 36.4254 24.4239 36.9141V40.3572C24.4239 41.1342 23.9625 41.8339 23.2482 42.1398L14.6533 45.8208C12.5996 46.7004 11.2725 48.7123 11.2725 50.9463V59.1211C11.2725 59.6066 11.6659 60 12.1514 60C12.6369 60 13.0303 59.6066 13.0303 59.1211V50.9463C13.0303 49.4164 13.9389 48.0388 15.3453 47.4367L20.6663 45.1578V50.7271H17.7879C16.2672 50.7271 15.0302 51.9642 15.0302 53.4847V57.2422C15.0302 58.7629 16.2673 59.9999 17.7879 59.9999C18.2734 59.9999 18.6668 59.6065 18.6668 59.121C18.6668 58.6355 18.2734 58.2421 17.7879 58.2421C17.2365 58.2421 16.788 57.7936 16.788 57.2422V53.4847C16.788 52.9334 17.2365 52.4849 17.7879 52.4849H25.303C25.8543 52.4849 26.3028 52.9334 26.3028 53.4847V57.2422C26.3028 57.7936 25.8543 58.2421 25.303 58.2421C24.8175 58.2421 24.4241 58.6355 24.4241 59.121C24.4241 59.6065 24.8175 59.9999 25.303 59.9999C26.8236 59.9999 28.0606 58.7627 28.0606 57.2422V53.4847C28.0606 51.9641 26.8235 50.7271 25.303 50.7271H22.4244V45.7331L28.4703 49.7638C28.935 50.0735 29.4675 50.2283 30.0001 50.2283C30.5326 50.2283 31.0652 50.0734 31.5298 49.7637L37.5758 45.733V52.7122C35.9602 53.1077 34.7575 54.5671 34.7575 56.3028C34.7575 58.3414 36.416 60 38.4547 60C40.4933 60 42.1517 58.3416 42.1517 56.3028C42.1517 54.5672 40.9491 53.1079 39.3336 52.7122V45.1577L44.6547 47.4366C46.061 48.0388 46.9697 49.4164 46.9697 50.9462V59.1211C46.9697 59.6066 47.363 60 47.8486 60C48.3341 60 48.7275 59.6066 48.7275 59.1211V50.9463C48.7273 48.7123 47.4002 46.7004 45.3466 45.8208ZM23.4648 7.24852C24.0093 4.13355 26.7315 1.75781 30 1.75781C33.2708 1.75781 35.9946 4.13695 36.5363 7.2552C34.5832 6.22242 32.3588 5.63637 30 5.63637C27.6949 5.63637 25.4607 6.19641 23.4648 7.24852ZM20.5457 27.1818C20.5457 26.9487 20.4532 26.7252 20.2883 26.5602C20.1235 26.3954 19.8999 26.3029 19.6667 26.3029L18.3916 26.303C17.5706 26.303 16.8697 25.7254 16.7959 24.9879C16.7534 24.5644 16.8854 24.1595 17.1673 23.8478C17.4458 23.5402 17.8432 23.3637 18.2577 23.3637H19.6666C21.1872 23.3637 22.4243 22.1265 22.4243 20.6023C22.4243 20.5159 22.4935 20.4442 22.5889 20.4321C27.6216 19.7861 31.7677 18.1451 34.4927 16.79C36.203 16.8509 37.5755 18.2612 37.5755 19.986V20.606C37.5755 22.1266 38.8127 23.3637 40.3332 23.3637H41.6081C42.4291 23.3637 43.1301 23.9413 43.2039 24.6786C43.2464 25.1021 43.1144 25.507 42.8325 25.8188C42.5541 26.1264 42.1568 26.3029 41.7421 26.3029L40.3331 26.303C39.8477 26.303 39.4543 26.6965 39.4543 27.1819C39.4543 32.395 35.2132 36.6362 30 36.6362C27.4746 36.6362 25.1004 35.6528 23.3146 33.8671C21.5292 32.0814 20.5457 29.7071 20.5457 27.1818ZM30.5546 48.3011C30.2178 48.5257 29.7822 48.5258 29.4452 48.3012L23.1407 44.0981L23.9404 43.7557C25.302 43.1725 26.1819 41.8385 26.1819 40.3572V37.7298C27.39 38.1662 28.6774 38.394 30.0001 38.394C31.3401 38.394 32.6258 38.157 33.818 37.7238V40.3572C33.818 41.8385 34.6979 43.1725 36.0595 43.7557L36.8592 44.0981L30.5546 48.3011ZM40.3937 56.3028C40.3937 57.3722 39.5238 58.2422 38.4545 58.2422C37.3851 58.2422 36.5151 57.3722 36.5151 56.3028C36.5151 55.2335 37.3851 54.3636 38.4545 54.3636C39.5238 54.3636 40.3937 55.2335 40.3937 56.3028Z" fill="#336AEA"/>
<path d="M25.3032 23.4849C24.8177 23.4849 24.4243 23.8783 24.4243 24.3638V25.3031C24.4243 25.7887 24.8177 26.1821 25.3032 26.1821C25.7887 26.1821 26.1821 25.7887 26.1821 25.3031V24.3638C26.1821 23.8784 25.7887 23.4849 25.3032 23.4849Z" fill="#336AEA"/>
<path d="M34.6968 26.1821C35.1823 26.1821 35.5757 25.7887 35.5757 25.3031V24.3638C35.5757 23.8783 35.1823 23.4849 34.6968 23.4849C34.2113 23.4849 33.8179 23.8783 33.8179 24.3638V25.3031C33.8179 25.7887 34.2113 26.1821 34.6968 26.1821Z" fill="#336AEA"/>
<path d="M33.4963 29.4411C33.1874 29.0666 32.6337 29.0134 32.2591 29.3219C31.6895 29.7914 30.866 30.0607 29.9999 30.0607C29.1338 30.0607 28.3103 29.7914 27.7408 29.3219C27.3661 29.013 26.8122 29.0664 26.5035 29.4411C26.1947 29.8156 26.248 30.3696 26.6227 30.6784C27.5146 31.4136 28.7141 31.8185 29.9999 31.8185C31.2857 31.8185 32.4852 31.4136 33.3771 30.6784C33.7518 30.3696 33.8051 29.8157 33.4963 29.4411Z" fill="#336AEA"/>
<path d="M58.1141 42.8286L54.405 41.5923C54.3802 41.584 54.3636 41.5608 54.3636 41.5348V39.1179C56.0645 37.9411 57.1817 35.9777 57.1817 33.7574V30.9393C57.1817 28.3827 55.1017 26.3027 52.5453 26.3027H48.7878C46.2313 26.3027 44.1514 28.3827 44.1514 30.9393V33.7574C44.1514 35.9777 45.2686 37.9412 46.9696 39.118V41.5348C46.9696 41.5609 46.9528 41.584 46.9282 41.5922L45.6918 42.0043C45.2312 42.1579 44.9823 42.6557 45.1359 43.116C45.2587 43.4844 45.6016 43.7173 45.9695 43.7173C46.0616 43.7173 46.1554 43.7026 46.2475 43.6719L47.0391 43.408L49.5756 45.3103C49.8968 45.5513 50.2817 45.6716 50.6668 45.6716C51.0516 45.6716 51.4364 45.5513 51.7577 45.3103L53.5454 43.9697V48.0531C52.4546 48.4209 51.6666 49.453 51.6666 50.6664C51.6666 52.187 52.9037 53.424 54.4243 53.424C55.9448 53.424 57.1819 52.1869 57.1819 50.6664C57.1819 49.4531 56.3939 48.4211 55.3032 48.0531V43.7445L57.5587 44.4962C57.9675 44.6325 58.2423 45.0136 58.2423 45.4447V52.5451C58.2423 53.0306 58.6357 53.424 59.1212 53.424C59.6068 53.424 60.0002 53.0306 60.0002 52.5451V45.4447C59.9998 44.2557 59.242 43.2045 58.1141 42.8286ZM45.9089 33.7573V30.9391C45.9089 29.3517 47.2003 28.0604 48.7875 28.0604H52.545C54.1323 28.0604 55.4236 29.3518 55.4236 30.9391V33.7573C55.4236 36.3805 53.2894 38.5147 50.6662 38.5147C48.0429 38.5147 45.9089 36.3805 45.9089 33.7573ZM50.7025 43.9042C50.6812 43.92 50.6513 43.9201 50.6301 43.9041L48.5403 42.3368C48.6603 42.0927 48.7271 41.8199 48.7271 41.5346V39.9777C49.3398 40.1692 49.9912 40.2724 50.6663 40.2724C51.3414 40.2724 51.9927 40.1691 52.6056 39.9777V41.5346C52.6056 41.8199 52.6725 42.0927 52.7924 42.3368L50.7025 43.9042ZM54.4239 51.6662C53.8725 51.6662 53.4241 51.2177 53.4241 50.6664C53.4241 50.115 53.8725 49.6665 54.4239 49.6665C54.9753 49.6665 55.4237 50.115 55.4237 50.6664C55.4237 51.2177 54.9753 51.6662 54.4239 51.6662Z" fill="#336AEA"/>
<path d="M8.24238 45.3103C8.56359 45.5514 8.94844 45.6717 9.33352 45.6717C9.71836 45.6717 10.1032 45.5514 10.4245 45.3104L12.9611 43.4081L13.7527 43.6719C13.8448 43.7027 13.9385 43.7173 14.0306 43.7173C14.3986 43.7173 14.7415 43.4844 14.8643 43.116C15.0178 42.6555 14.7689 42.1577 14.3084 42.0043L13.0721 41.5923C13.0473 41.584 13.0307 41.5608 13.0307 41.5348V39.118C14.7316 37.9412 15.8489 35.9777 15.8489 33.7574V29.9999C15.8489 27.9613 14.1905 26.3027 12.1518 26.3027H6.51527C4.47668 26.3027 2.81824 27.9612 2.81824 29.9999V33.7574C2.81824 35.9777 3.93539 37.9411 5.63637 39.1179V41.5348C5.63637 41.5609 5.61961 41.584 5.59488 41.5922L1.88578 42.8286C0.757851 43.2046 0 44.2559 0 45.4448V52.5452C0 53.0307 0.393398 53.4241 0.878906 53.4241C1.36441 53.4241 1.75781 53.0307 1.75781 52.5452V45.4448C1.75781 45.0137 2.03262 44.6326 2.4416 44.4963L5.63637 43.4313V47.9087H4.63652C3.63387 47.9087 2.81824 48.7245 2.81824 49.7271V51.6059C2.81824 52.6085 3.63387 53.4241 4.63652 53.4241C5.12203 53.4241 5.51543 53.0307 5.51543 52.5452C5.51543 52.0597 5.12203 51.6663 4.63652 51.6663C4.60324 51.6663 4.57605 51.6393 4.57605 51.6059V49.7271C4.57605 49.6937 4.60312 49.6665 4.63652 49.6665H8.39402C8.42742 49.6665 8.45461 49.6936 8.45461 49.7271V51.6059C8.45461 51.6391 8.42754 51.6663 8.39402 51.6663C7.90852 51.6663 7.51512 52.0597 7.51512 52.5452C7.51512 53.0307 7.90852 53.4241 8.39402 53.4241C9.39668 53.4241 10.2124 52.6085 10.2124 51.6059V49.7271C10.2124 48.7245 9.39668 47.9087 8.39402 47.9087H7.39418V44.6742L8.24238 45.3103ZM6.51527 28.0605H12.1516C13.221 28.0605 14.091 28.9305 14.091 29.9999V31.9024C11.2719 31.6673 9.29484 30.3582 8.5309 29.7642C7.88719 29.2637 6.98098 29.2567 6.32754 29.7466L4.57617 31.0603V29.9999C4.57605 28.9305 5.44594 28.0605 6.51527 28.0605ZM4.57605 33.7574V33.2575L7.38211 31.1528C7.39559 31.1426 7.42277 31.1293 7.45172 31.1518C8.57496 32.025 10.8632 33.4406 14.0909 33.6654V33.7573C14.0909 36.3805 11.9566 38.5147 9.3334 38.5147C6.71016 38.5147 4.57605 36.3806 4.57605 33.7574ZM9.33352 40.2727C10.0085 40.2727 10.66 40.1694 11.2727 39.9779V41.5349C11.2727 41.8201 11.3395 42.0929 11.4595 42.337L9.36973 43.9042C9.3484 43.9202 9.3184 43.9202 9.29719 43.9042L7.20738 42.3369C7.32738 42.0928 7.39418 41.82 7.39418 41.5348V39.9778C8.00695 40.1694 8.6584 40.2727 9.33352 40.2727Z" fill="#336AEA"/>
</g>
<defs>
<clipPath id="clip0_9988_196">
<rect width="60" height="60" fill="white"/>
</clipPath>
</defs>
</svg>
