<svg width="60" height="60" viewBox="0 0 60 60" fill="none" xmlns="http://www.w3.org/2000/svg">
<path d="M54.9417 31.3556C56.0411 30.258 56.6466 28.7933 56.6466 27.2313C56.6466 25.6697 56.0413 24.2043 54.9422 23.1052C52.8564 21.0195 49.5676 20.8478 47.2811 22.5904C46.2725 21.8201 45.042 21.403 43.7442 21.403C42.9823 21.403 42.2442 21.5477 41.56 21.8222C40.5368 21.3273 39.4409 20.9861 38.3173 20.8102C41.6166 18.874 43.8369 15.2893 43.8369 11.1954C43.8369 5.05453 38.8394 0.0585938 32.6967 0.0585938C26.5558 0.0585938 21.5599 5.05453 21.5599 11.1954C21.5599 15.2879 23.7779 18.8714 27.0741 20.808C21.5343 21.6673 17.2804 26.469 17.2804 32.2459V38.711L11.9854 41.9325L11.5157 41.1962C11.397 41.0101 11.2092 40.8787 10.9937 40.8312C10.7782 40.7834 10.5525 40.8234 10.3664 40.9423L3.73824 45.1712C3.35082 45.4185 3.23703 45.9329 3.48418 46.3204L11.9252 59.5564C12.084 59.8054 12.3529 59.9413 12.6277 59.9413C12.7808 59.9413 12.9358 59.8991 13.0745 59.8106L19.706 55.5817C19.8921 55.463 20.0234 55.2752 20.0711 55.0596C20.1188 54.844 20.0789 54.6184 19.9602 54.4323L18.9726 52.8844L21.5021 51.3463L32.2261 54.8917C32.9489 55.1312 33.671 55.2504 34.3821 55.2504C35.6212 55.2504 36.827 54.8887 37.9445 54.1723L50.6516 46.0277C52.3998 44.907 52.912 42.5701 51.7922 40.8165C50.9761 39.5466 49.5195 38.9309 48.1132 39.1184V38.1875L54.9417 31.3556ZM46.692 24.2821C47.0169 24.6069 47.5435 24.6071 47.8686 24.2825C49.4957 22.6581 52.1409 22.6579 53.765 24.2821C54.5498 25.0669 54.982 26.1143 54.982 27.2312C54.982 28.348 54.5499 29.3944 53.7649 30.1781L47.2805 36.6655L40.7961 30.178C39.172 28.5539 39.1722 25.9089 40.7966 24.2817C41.5797 23.4989 42.6264 23.0677 43.7441 23.0677C44.862 23.0677 45.909 23.4989 46.692 24.2821ZM23.2244 11.1954C23.2244 5.97234 27.4736 1.72313 32.6967 1.72313C37.9216 1.72313 42.1722 5.97234 42.1722 11.1954C42.1722 16.4203 37.9215 20.6709 32.6967 20.6709C27.4736 20.6711 23.2244 16.4203 23.2244 11.1954ZM28.8552 22.3356H36.5381C37.6603 22.3356 38.7778 22.5299 39.8321 22.9025C39.7597 22.968 39.6887 23.0355 39.6191 23.1052C39.6189 23.1053 39.6187 23.1054 39.6186 23.1056C37.3462 25.3819 37.3464 29.0825 39.6189 31.355L46.4483 38.1877V39.7654L38.8688 44.6243C38.504 43.5161 37.6337 42.6104 36.4693 42.2252L23.0009 37.7707C21.6215 37.3139 20.2395 37.3379 18.945 37.8275V32.246C18.9448 26.7813 23.3906 22.3356 28.8552 22.3356ZM12.881 57.9598L5.33481 46.127L10.5598 42.7934L17.0974 53.0406C17.0989 53.043 17.1 53.0456 17.1015 53.0481C17.1052 53.0542 17.1096 53.0597 17.1134 53.0658L18.1088 54.6259L12.881 57.9598ZM50.3902 41.7145C51.0157 42.6939 50.7298 44 49.753 44.6263L37.0459 52.7708C35.7243 53.6181 34.2386 53.805 32.7489 53.3113L21.6593 49.6451C21.4276 49.5686 21.174 49.5975 20.9656 49.7242L18.077 51.4807L12.8809 43.3361L18.7313 39.7766C19.9066 39.06 21.1671 38.9166 22.4779 39.3507L35.9465 43.8054C36.8246 44.0959 37.418 44.9566 37.3893 45.8748C37.3822 45.9054 37.3763 45.9366 37.3726 45.9686C37.2916 46.6643 36.9075 47.3092 36.3702 47.6517C35.8715 47.9695 35.2848 48.0203 34.6258 47.8018L28.4896 45.7733C28.0529 45.6287 27.5824 45.8659 27.4381 46.3023C27.2939 46.7387 27.5307 47.2096 27.9671 47.3538L34.1029 49.3822C34.5351 49.5254 34.9671 49.5963 35.3872 49.5963C36.0598 49.5963 36.7019 49.4143 37.265 49.0554C38.125 48.5072 38.7409 47.5855 38.9625 46.5414L47.4805 41.0808C48.4577 40.4545 49.7638 40.7394 50.3902 41.7145ZM43.8637 29.048C43.8637 28.5884 44.2364 28.2157 44.696 28.2157H46.4482V26.4601C46.4482 26.0005 46.8208 25.6279 47.2804 25.6279C47.74 25.6279 48.1127 26.0005 48.1127 26.4601V28.2157H49.8684C50.328 28.2157 50.7007 28.5884 50.7007 29.048C50.7007 29.5076 50.328 29.8802 49.8684 29.8802H48.1127V31.6325C48.1127 32.0921 47.74 32.4648 47.2804 32.4648C46.8208 32.4648 46.4482 32.0921 46.4482 31.6325V29.8802H44.696C44.2364 29.8802 43.8637 29.5077 43.8637 29.048Z" fill="#336AEA"/>
</svg>
