<svg width="125" height="35" viewBox="0 0 125 35" fill="none" xmlns="http://www.w3.org/2000/svg">
<g clip-path="url(#clip0_10166_162)">
<path d="M31.1503 8.44942C30.705 7.75915 30.0844 7.19806 29.3511 6.82289L18.7287 0.719574C17.8995 0.24519 16.9596 -0.00429206 16.0031 -0.0039058C15.0465 -0.00351954 14.1068 0.246721 13.2781 0.721775L2.65566 6.82289C1.81694 7.30271 0.690518 8.19411 0.601998 9.31441C0.393976 11.982 3.84626 13.6459 6.15442 14.8719C10.1378 16.976 12.6983 18.1954 14.6391 20.1718C15.0706 20.612 15.7456 21.3802 16.0045 21.9855C16.2568 21.3802 16.9384 20.6098 17.3677 20.1718C19.3085 18.191 21.88 16.976 25.8546 14.8719C28.1273 13.6701 31.4667 12.1427 31.4026 9.32101C31.3845 9.01547 31.2983 8.71776 31.1503 8.44942ZM16.0045 15.8469C15.3381 15.8469 14.6868 15.6503 14.1328 15.2821C13.5788 14.9138 13.1471 14.3903 12.8923 13.778C12.6375 13.1656 12.571 12.4918 12.7013 11.8419C12.8317 11.1919 13.1529 10.5951 13.6244 10.1267C14.0959 9.65842 14.6964 9.33972 15.3501 9.21096C16.0038 9.0822 16.6811 9.14917 17.2965 9.40339C17.9119 9.65761 18.4376 10.0877 18.8072 10.6391C19.1768 11.1906 19.3736 11.8387 19.3727 12.5014C19.3724 12.9411 19.285 13.3763 19.1156 13.7824C18.9462 14.1884 18.698 14.5573 18.3852 14.868C18.0725 15.1786 17.7013 15.425 17.2928 15.5929C16.8843 15.7609 16.4465 15.8472 16.0045 15.8469Z" fill="url(#paint0_linear_10166_162)"/>
<path d="M25.8678 16.633C21.143 19.1289 17.8279 20.2932 16.54 24.3364C16.3087 24.982 16.1275 25.6442 15.9978 26.3173C15.8705 25.6441 15.6907 24.9818 15.46 24.3364C14.1632 20.3042 10.857 19.1487 6.13223 16.644C1.23043 14.0534 0.183679 12.7658 0 12.209V23.7157C0.0014291 24.6635 0.252969 25.5943 0.729475 26.415C1.20598 27.2358 1.89076 27.9178 2.71535 28.3928L13.3378 34.4873C13.6863 34.6981 14.0574 34.8694 14.4443 34.998C14.3159 34.5445 14.1654 34.0647 13.9817 33.5541C10.6622 24.31 4.79779 22.0386 4.79779 22.0386C4.79779 22.0386 7.53084 22.2587 11.4368 26.2689C13.3289 28.2145 14.816 30.541 16.0022 32.9642C16.0022 32.9642 18.6091 28.2762 20.5721 26.2579C24.478 22.2455 27.2111 22.0276 27.2111 22.0276C27.2111 22.0276 21.3422 24.3012 18.0271 33.5431C17.8434 34.0559 17.6907 34.5335 17.5624 34.9891C17.9486 34.859 18.3196 34.6878 18.6689 34.4785L29.2824 28.3928C30.1075 27.9175 30.7926 27.2352 31.2695 26.4141C31.7464 25.593 31.9983 24.6618 32 23.7135V12.2002C31.8141 12.746 30.7607 14.0446 25.8678 16.633Z" fill="url(#paint1_linear_10166_162)"/>
</g>
<path d="M43.728 26.5V8.62H49.56C51.448 8.62 53.088 9.004 54.48 9.772C55.888 10.524 56.976 11.572 57.744 12.916C58.512 14.244 58.896 15.788 58.896 17.548C58.896 19.292 58.512 20.844 57.744 22.204C56.976 23.548 55.888 24.604 54.48 25.372C53.088 26.124 51.448 26.5 49.56 26.5H43.728ZM46.992 23.62H49.632C50.848 23.62 51.896 23.372 52.776 22.876C53.672 22.364 54.368 21.66 54.864 20.764C55.36 19.852 55.608 18.78 55.608 17.548C55.608 16.3 55.36 15.228 54.864 14.332C54.368 13.436 53.672 12.74 52.776 12.244C51.896 11.748 50.848 11.5 49.632 11.5H46.992V23.62ZM67.6136 26.788C66.3336 26.788 65.1656 26.492 64.1096 25.9C63.0696 25.308 62.2376 24.5 61.6136 23.476C61.0056 22.452 60.7016 21.284 60.7016 19.972C60.7016 18.66 61.0056 17.492 61.6136 16.468C62.2376 15.444 63.0696 14.636 64.1096 14.044C65.1496 13.452 66.3176 13.156 67.6136 13.156C68.8936 13.156 70.0536 13.452 71.0936 14.044C72.1336 14.636 72.9576 15.444 73.5656 16.468C74.1896 17.476 74.5016 18.644 74.5016 19.972C74.5016 21.284 74.1896 22.452 73.5656 23.476C72.9416 24.5 72.1096 25.308 71.0696 25.9C70.0296 26.492 68.8776 26.788 67.6136 26.788ZM67.6136 23.908C68.3176 23.908 68.9336 23.74 69.4616 23.404C70.0056 23.068 70.4296 22.604 70.7336 22.012C71.0536 21.404 71.2136 20.724 71.2136 19.972C71.2136 19.204 71.0536 18.532 70.7336 17.956C70.4296 17.364 70.0056 16.9 69.4616 16.564C68.9336 16.212 68.3176 16.036 67.6136 16.036C66.8936 16.036 66.2616 16.212 65.7176 16.564C65.1736 16.9 64.7416 17.364 64.4216 17.956C64.1176 18.532 63.9656 19.204 63.9656 19.972C63.9656 20.724 64.1176 21.404 64.4216 22.012C64.7416 22.604 65.1736 23.068 65.7176 23.404C66.2616 23.74 66.8936 23.908 67.6136 23.908ZM81.5419 26.788C80.5339 26.788 79.6539 26.564 78.9019 26.116C78.1659 25.668 77.5979 25.044 77.1979 24.244C76.8139 23.444 76.6219 22.508 76.6219 21.436V13.444H79.7659V21.172C79.7659 21.716 79.8699 22.196 80.0779 22.612C80.3019 23.012 80.6139 23.332 81.0139 23.572C81.4299 23.796 81.8939 23.908 82.4059 23.908C82.9179 23.908 83.3739 23.796 83.7739 23.572C84.1739 23.332 84.4859 23.004 84.7099 22.588C84.9339 22.172 85.0459 21.676 85.0459 21.1V13.444H88.1899V26.5H85.2139V23.932L85.4779 24.388C85.1739 25.188 84.6699 25.788 83.9659 26.188C83.2779 26.588 82.4699 26.788 81.5419 26.788ZM97.0644 26.644C95.5924 26.644 94.4484 26.244 93.6324 25.444C92.8324 24.628 92.4324 23.484 92.4324 22.012V16.252H90.1764V13.444H90.4164C91.0564 13.444 91.5524 13.276 91.9044 12.94C92.2564 12.604 92.4324 12.116 92.4324 11.476V10.468H95.5764V13.444H98.5764V16.252H95.5764V21.844C95.5764 22.276 95.6484 22.644 95.7924 22.948C95.9524 23.252 96.1924 23.484 96.5124 23.644C96.8484 23.804 97.2724 23.884 97.7844 23.884C97.8964 23.884 98.0244 23.876 98.1684 23.86C98.3284 23.844 98.4804 23.828 98.6244 23.812V26.5C98.4004 26.532 98.1444 26.564 97.8564 26.596C97.5684 26.628 97.3044 26.644 97.0644 26.644ZM107.293 26.788C106.013 26.788 104.845 26.492 103.789 25.9C102.749 25.308 101.917 24.5 101.293 23.476C100.685 22.452 100.381 21.284 100.381 19.972C100.381 18.66 100.685 17.492 101.293 16.468C101.917 15.444 102.749 14.636 103.789 14.044C104.829 13.452 105.997 13.156 107.293 13.156C108.573 13.156 109.733 13.452 110.773 14.044C111.813 14.636 112.637 15.444 113.245 16.468C113.869 17.476 114.181 18.644 114.181 19.972C114.181 21.284 113.869 22.452 113.245 23.476C112.621 24.5 111.789 25.308 110.749 25.9C109.709 26.492 108.557 26.788 107.293 26.788ZM107.293 23.908C107.997 23.908 108.613 23.74 109.141 23.404C109.685 23.068 110.109 22.604 110.413 22.012C110.733 21.404 110.893 20.724 110.893 19.972C110.893 19.204 110.733 18.532 110.413 17.956C110.109 17.364 109.685 16.9 109.141 16.564C108.613 16.212 107.997 16.036 107.293 16.036C106.573 16.036 105.941 16.212 105.397 16.564C104.853 16.9 104.421 17.364 104.101 17.956C103.797 18.532 103.645 19.204 103.645 19.972C103.645 20.724 103.797 21.404 104.101 22.012C104.421 22.604 104.853 23.068 105.397 23.404C105.941 23.74 106.573 23.908 107.293 23.908ZM116.566 26.5V13.444H119.518V16.348L119.278 15.916C119.582 14.94 120.054 14.26 120.694 13.876C121.35 13.492 122.134 13.3 123.046 13.3H123.814V16.084H122.686C121.79 16.084 121.07 16.364 120.526 16.924C119.982 17.468 119.71 18.236 119.71 19.228V26.5H116.566Z" fill="#2A3547"/>
<defs>
<linearGradient id="paint0_linear_10166_162" x1="0.595359" y1="10.9916" x2="31.4048" y2="10.9916" gradientUnits="userSpaceOnUse">
<stop stop-color="#336AEA"/>
<stop offset="1" stop-color="#87ABFF"/>
</linearGradient>
<linearGradient id="paint1_linear_10166_162" x1="19.7488" y1="7.15555" x2="9.62465" y2="37.8394" gradientUnits="userSpaceOnUse">
<stop stop-color="#2A3547"/>
<stop offset="1" stop-color="#707070"/>
</linearGradient>
<clipPath id="clip0_10166_162">
<rect width="32" height="35" fill="white"/>
</clipPath>
</defs>
</svg>
