<svg width="38" height="30" viewBox="0 0 38 30" fill="none" xmlns="http://www.w3.org/2000/svg">
<path d="M34.4375 0.75H3.56252C1.59803 0.75 0 2.34803 0 4.31252V25.6875C0 27.652 1.59803 29.25 3.56252 29.25H34.4375C36.402 29.25 38 27.652 38 25.6875V4.31252C38 2.34803 36.402 0.75 34.4375 0.75ZM34.4375 3.12499C34.5988 3.12499 34.7523 3.15846 34.8926 3.21692L19 16.9912L3.10729 3.21692C3.24762 3.15854 3.4011 3.12499 3.56245 3.12499H34.4375ZM34.4375 26.875H3.56252C2.90732 26.875 2.37499 26.3427 2.37499 25.6874V5.72613L18.2218 19.4601C18.4457 19.6537 18.7228 19.75 19 19.75C19.2772 19.75 19.5543 19.6538 19.7782 19.4601L35.625 5.72613V25.6875C35.6249 26.3427 35.0927 26.875 34.4375 26.875Z" fill="#336AEA"/>
</svg>
