<svg width="60" height="60" viewBox="0 0 60 60" fill="none" xmlns="http://www.w3.org/2000/svg">
<g clip-path="url(#clip0_9988_58)">
<path d="M27.1763 27.3443C27.4794 27.3443 27.7769 27.1978 27.9572 26.9268C28.2447 26.4956 28.1285 25.9142 27.6972 25.6268C25.098 23.8946 22.5455 25.5554 22.4384 25.6268C22.01 25.9125 21.8946 26.4883 22.1774 26.9195C22.4603 27.3517 23.0426 27.4688 23.473 27.1904C23.5388 27.1474 25.1109 26.1549 26.6572 27.1868C26.8175 27.2929 26.9978 27.3443 27.1763 27.3443Z" fill="#336AEA"/>
<path d="M32.402 34.8141C30.0537 35.9247 27.6202 34.8342 27.5745 34.8132C27.1067 34.5934 26.551 34.7949 26.3294 35.2617C26.1087 35.7296 26.3083 36.2881 26.777 36.5096C26.863 36.5508 28.2501 37.1907 30.0958 37.1907C31.047 37.1907 32.1218 37.0204 33.2022 36.5096C33.6709 36.288 33.8705 35.7296 33.6498 35.2617C33.4283 34.7939 32.8698 34.5917 32.402 34.8141Z" fill="#336AEA"/>
<path d="M32.2822 25.6268C31.8537 25.9126 31.7383 26.4884 32.0212 26.9195C32.3041 27.3517 32.8864 27.4689 33.3167 27.1905C33.3835 27.1475 34.9546 26.155 36.5009 27.1869C36.6611 27.293 36.8415 27.3443 37.0201 27.3443C37.3231 27.3443 37.6206 27.1979 37.801 26.9269C38.0885 26.4957 37.9722 25.9143 37.541 25.6268C34.9417 23.8946 32.3893 25.5554 32.2822 25.6268Z" fill="#336AEA"/>
<path d="M44.1915 2.35105C41.7818 0.553037 39.0499 -0.294814 36.87 0.0879202C35.6222 0.305772 34.6352 0.917373 34.0154 1.85851C33.6587 2.40226 33.4882 3.19796 33.4275 3.92523C32.7434 3.82093 32.0534 3.75003 31.353 3.75003H28.6266C20.5901 3.75003 14.0523 10.6824 14.0523 19.2041V32.3438C14.0523 33.6365 15.1034 34.6875 16.3961 34.6875H17.3336C17.7091 34.6875 18.0592 34.5906 18.3741 34.4331C18.9075 36.1565 19.9187 38.2321 21.8453 40.0562C22.7817 40.9429 23.7594 41.5916 24.7172 42.094C24.8181 44.0941 24.6939 48.8788 21.4461 50.6946C20.5324 51.2055 19.3341 51.5625 18.5357 51.5625C16.1791 51.5506 12.1792 51.5378 11.8771 51.5671C7.89914 51.9571 4.63804 54.8887 3.76183 58.8611C3.70054 59.1385 3.76828 59.4287 3.94675 59.6494C4.12441 59.871 4.39347 60 4.6773 60H54.8857C55.1695 60 55.4387 59.8709 55.6162 59.6494C55.7947 59.4287 55.8626 59.1386 55.8012 58.8611C54.925 54.8887 51.6639 51.9571 47.685 51.5671C47.382 51.5378 43.3839 51.5506 41.031 51.5625C40.2289 51.5625 39.0306 51.2055 38.1169 50.6946C34.9857 48.944 34.758 44.4347 34.8361 42.3204C35.9266 41.7985 37.0588 41.0745 38.1342 40.0562C40.0566 38.2361 41.0677 36.1655 41.6026 34.4316C41.9182 34.59 42.2693 34.6876 42.6459 34.6876H43.5834C44.8761 34.6876 45.9272 33.6366 45.9272 32.3439V19.2041C45.9272 17.3249 45.6003 15.4898 44.9896 13.7755C46.1195 13.5311 47.5148 13.0702 48.0704 12.2159C49.789 9.60214 48.0852 5.26983 44.1915 2.35105ZM17.8023 32.3438C17.8023 32.5983 17.5881 32.8125 17.3336 32.8125H16.3961C16.1415 32.8125 15.9273 32.5983 15.9273 32.3438V26.7188C15.9273 26.4642 16.1415 26.25 16.3961 26.25H17.3336C17.5881 26.25 17.8023 26.4642 17.8023 26.7188V32.3438ZM37.2014 52.3315C38.1142 52.8415 39.665 53.4375 41.0357 53.4375C43.3693 53.4275 47.1945 53.4164 47.5021 53.433C50.278 53.7048 52.6171 55.5378 53.6251 58.125H5.938C6.94511 55.5378 9.28148 53.7058 12.04 53.4348C12.3687 53.4166 16.1928 53.4266 18.5311 53.4375C19.898 53.4375 21.4488 52.8415 22.3617 52.3315C26.0497 50.2697 26.6114 45.5787 26.6115 42.9127C27.9287 43.3571 29.1071 43.5346 29.9249 43.5918C29.946 43.5927 29.9679 43.5937 29.9899 43.5937C30.0119 43.5937 30.0339 43.5927 30.055 43.5918C30.785 43.5407 31.8055 43.3901 32.9518 43.0448C32.9709 45.7316 33.5747 50.3041 37.2014 52.3315ZM36.8453 38.6939C34.2744 41.1292 31.2423 41.62 29.9898 41.7161C28.7373 41.62 25.7052 41.1292 23.1343 38.6939C20.2889 36.0005 19.7671 32.6542 19.6773 31.4063V22.2812C20.9389 21.8912 22.1108 21.2486 23.1005 20.399C24.4243 19.2628 25.2153 17.9453 25.685 16.8358C27.8439 19.0266 32.9946 23.2088 40.3023 22.6109L40.3036 26.7061C40.3036 26.7105 40.3023 26.7146 40.3023 26.7189V31.3729C40.204 32.7068 39.6694 36.0207 36.8453 38.6939ZM44.0523 32.3438C44.0523 32.5983 43.8381 32.8125 43.5835 32.8125H42.646C42.3915 32.8125 42.1773 32.5983 42.1773 32.3438V26.7188C42.1773 26.4642 42.3915 26.25 42.646 26.25H43.5835C43.8381 26.25 44.0523 26.4642 44.0523 26.7188V32.3438ZM46.5014 11.1887C46.3503 11.4032 45.4905 11.7811 44.2424 12.0141C43.152 9.8269 41.5648 7.91206 39.5773 6.46269C39.1589 6.15694 38.572 6.2494 38.268 6.66776C37.9623 7.08612 38.0548 7.67206 38.4731 7.97698C41.9667 10.5249 44.0523 14.7217 44.0523 19.2041V24.4224C43.9008 24.3916 43.7441 24.375 43.5835 24.375H42.646C42.4855 24.375 42.3288 24.3916 42.1773 24.4224V21.5625C42.1773 21.2907 42.0592 21.0325 41.8541 20.8539C41.65 20.6762 41.3753 20.5957 41.107 20.6342C32.8682 21.8106 27.3228 15.9238 26.2398 14.6631V10.3125C26.2398 9.79433 25.8205 9.37503 25.3023 9.37503C24.7841 9.37503 24.3648 9.79433 24.3648 10.3125V14.8901C24.1259 15.8596 23.4941 17.5891 21.8791 18.9761C20.9316 19.7891 19.7753 20.3677 18.5328 20.6479C18.1053 20.7449 17.8023 21.1239 17.8023 21.5625L17.8031 24.4225C17.6514 24.3916 17.4943 24.375 17.3336 24.375H16.3961C16.2355 24.375 16.0788 24.3916 15.9273 24.4224V19.2041C15.9273 11.7169 21.6246 5.62503 28.6266 5.62503H31.353C33.0312 5.62503 34.6655 5.97472 36.2099 6.66319C36.6813 6.87554 37.2371 6.66132 37.4476 6.18894C37.6591 5.71655 37.4467 5.16167 36.9734 4.9512C36.4186 4.70358 35.8508 4.50753 35.2775 4.33608C35.3039 3.71616 35.437 3.1089 35.5818 2.88847C35.9141 2.38491 36.4561 2.06358 37.194 1.93444C38.8419 1.65155 41.096 2.38116 43.068 3.85245C46.0665 6.10022 47.6394 9.45741 46.5014 11.1887Z" fill="#336AEA"/>
<path d="M12.1846 11.25C11.7946 11.2427 8.42736 11.0211 8.42736 5.625C8.42736 5.1068 8.00807 4.6875 7.48986 4.6875C6.97166 4.6875 6.55236 5.1068 6.55236 5.625C6.55236 11.0266 3.17865 11.2427 2.80236 11.25H2.79686C2.79592 11.2491 2.79322 11.2491 2.79041 11.25C2.78947 11.25 2.78947 11.25 2.78947 11.25C2.78854 11.25 2.78854 11.25 2.78854 11.25H2.7876C2.78666 11.25 2.78666 11.25 2.78572 11.25C2.27572 11.2591 1.86475 11.6757 1.86475 12.1875C1.86475 12.7029 2.28041 13.1214 2.79498 13.125C3.18498 13.1323 6.55225 13.3539 6.55225 18.75C6.55225 19.2682 6.97154 19.6875 7.48975 19.6875C8.00795 19.6875 8.42725 19.2682 8.42725 18.75C8.42725 13.3539 11.7945 13.1323 12.1845 13.125H12.1891H12.19H12.191H12.1919H12.1938C12.7038 13.1159 13.1147 12.6993 13.1147 12.1875C13.1147 11.6721 12.6991 11.2536 12.1846 11.25ZM7.48975 14.3207C6.9624 13.3173 6.27393 12.6425 5.58814 12.1875C6.27393 11.7325 6.9624 11.0577 7.48975 10.0543C8.01709 11.0577 8.70557 11.7325 9.39135 12.1875C8.70557 12.6425 8.01709 13.3173 7.48975 14.3207Z" fill="#336AEA"/>
<path d="M44.0521 42.1875H44.0466C44.0466 42.1866 44.042 42.1866 44.0402 42.1875C44.0392 42.1875 44.0392 42.1875 44.0392 42.1875C44.0383 42.1875 44.0383 42.1875 44.0383 42.1875H44.0374C44.0364 42.1875 44.0364 42.1875 44.0355 42.1875C43.5255 42.1966 43.1145 42.6132 43.1145 43.125C43.1145 43.6404 43.5302 44.0589 44.0447 44.0625C44.4347 44.0698 47.802 44.2914 47.802 49.6875C47.802 50.2057 48.2213 50.625 48.7395 50.625C49.2577 50.625 49.677 50.2057 49.677 49.6875C49.677 44.2914 53.0443 44.0698 53.4343 44.0625H53.4388H53.4398H53.4407H53.4417H53.4435C53.9535 44.0534 54.3645 43.6368 54.3645 43.125C54.3645 42.6096 53.9488 42.1911 53.4343 42.1875C53.0443 42.1802 49.677 41.9586 49.677 36.5625C49.677 36.0443 49.2577 35.625 48.7395 35.625C48.2213 35.625 47.802 36.0443 47.802 36.5625C47.8021 41.9641 44.4284 42.1802 44.0521 42.1875ZM48.7396 40.9918C49.267 41.9952 49.9554 42.67 50.6412 43.125C49.9554 43.58 49.267 44.2548 48.7396 45.2582C48.2123 44.2548 47.5238 43.58 46.838 43.125C47.5238 42.67 48.2123 41.9952 48.7396 40.9918Z" fill="#336AEA"/>
<path d="M11.7752 38.4375C11.7752 37.9193 11.3559 37.5 10.8377 37.5C10.3195 37.5 9.90017 37.9193 9.90017 38.4375C9.90017 42.0199 7.72575 42.1811 7.48962 42.1875C7.48868 42.1875 7.48774 42.1875 7.48774 42.1875C7.48681 42.1875 7.48681 42.1875 7.48681 42.1875C7.48587 42.1875 7.48587 42.1875 7.48493 42.1875C7.48493 42.1875 7.48493 42.1875 7.48399 42.1875C7.48399 42.1866 7.47942 42.1866 7.47755 42.1875H7.47485C6.96403 42.1957 6.552 42.6123 6.552 43.125C6.552 43.6396 6.96673 44.057 7.47942 44.0625C7.73665 44.0698 9.90005 44.2392 9.90005 47.8125C9.90005 48.3307 10.3193 48.75 10.8375 48.75C11.3558 48.75 11.775 48.3307 11.775 47.8125C11.775 44.2392 13.9384 44.0698 14.1957 44.0625H14.1975H14.2002C14.7111 44.0543 15.1231 43.6377 15.1231 43.125C15.1231 42.6104 14.7084 42.193 14.1957 42.1875C13.9386 42.1802 11.7752 42.0108 11.7752 38.4375ZM10.8377 44.1146C10.5658 43.7036 10.2554 43.3795 9.93673 43.125C10.2554 42.8705 10.5657 42.5463 10.8377 42.1354C11.1095 42.5464 11.42 42.8705 11.7386 43.125C11.42 43.3795 11.1097 43.7037 10.8377 44.1146Z" fill="#336AEA"/>
</g>
<defs>
<clipPath id="clip0_9988_58">
<rect width="60" height="60" fill="white"/>
</clipPath>
</defs>
</svg>
