<svg width="60" height="60" viewBox="0 0 60 60" fill="none" xmlns="http://www.w3.org/2000/svg">
<path d="M19.3709 52.2821C19.1163 52.2821 18.8721 52.1809 18.6921 52.0009C18.512 51.8208 18.4109 51.5767 18.4109 51.3221V43.5743C18.4109 43.3196 18.512 43.0755 18.6921 42.8954C18.8721 42.7154 19.1163 42.6143 19.3709 42.6143C19.6255 42.6143 19.8697 42.7154 20.0497 42.8954C20.2297 43.0755 20.3309 43.3196 20.3309 43.5743V51.3221C20.3309 51.5767 20.2297 51.8208 20.0497 52.0009C19.8697 52.1809 19.6255 52.2821 19.3709 52.2821Z" fill="#336AEA"/>
<path d="M47.5349 52.2831H12.4649C12.2103 52.2831 11.9661 52.1819 11.7861 52.0019C11.606 51.8219 11.5049 51.5777 11.5049 51.3231V42.0045C11.5049 40.1745 12.1487 38.4333 13.3649 36.9705C14.5649 35.5305 16.2113 34.4943 18.1265 33.9759L24.9395 32.1303C25.1861 32.0666 25.448 32.1036 25.6674 32.233C25.8868 32.3624 26.0458 32.5736 26.1095 32.8203C26.1731 33.0669 26.1362 33.3288 26.0068 33.5482C25.8774 33.7676 25.6661 33.9266 25.4195 33.9903L18.6311 35.8287C15.5171 36.6723 13.4249 39.1539 13.4249 42.0045V50.3631H46.5749V42.0045C46.5749 39.1539 44.4827 36.6723 41.3687 35.8293L34.5815 33.9897C34.3544 33.9348 34.1551 33.7989 34.021 33.6076C33.8869 33.4163 33.8271 33.1826 33.853 32.9504C33.8788 32.7182 33.9884 32.5034 34.1613 32.3462C34.3342 32.1891 34.5585 32.1003 34.7921 32.0967H34.8095C34.8942 32.0966 34.9786 32.1079 35.0603 32.1303L41.8709 33.9759C43.7861 34.4943 45.4325 35.5299 46.6325 36.9705C47.8511 38.4333 48.4925 40.1745 48.4925 42.0045V51.3231C48.4925 51.5773 48.3917 51.8211 48.2122 52.0011C48.0326 52.181 47.7891 52.2824 47.5349 52.2831Z" fill="#336AEA"/>
<path d="M40.6289 52.2821C40.3743 52.2821 40.1302 52.1809 39.9501 52.0009C39.7701 51.8208 39.6689 51.5767 39.6689 51.3221V43.5743C39.6689 43.3196 39.7701 43.0755 39.9501 42.8954C40.1302 42.7154 40.3743 42.6143 40.6289 42.6143C40.8836 42.6143 41.1277 42.7154 41.3078 42.8954C41.4878 43.0755 41.5889 43.3196 41.5889 43.5743V51.3221C41.5889 51.5767 41.4878 51.8208 41.3078 52.0009C41.1277 52.1809 40.8836 52.2821 40.6289 52.2821Z" fill="#336AEA"/>
<path d="M29.9999 35.8092C27.5939 35.8092 25.3055 34.7478 23.5571 32.82C21.8897 30.9827 20.9333 28.5492 20.9333 26.1438C20.9333 21.1445 25.0007 17.0771 29.9999 17.0771C34.9991 17.0771 39.0659 21.1445 39.0659 26.1438C39.0659 28.5492 38.1101 30.9827 36.4427 32.82C34.6943 34.7478 32.4059 35.8092 29.9999 35.8092ZM29.9999 18.9971C28.1052 18.9992 26.2886 19.7528 24.9488 21.0926C23.609 22.4324 22.8554 24.249 22.8533 26.1438C22.8533 30.27 26.1929 33.8892 29.9999 33.8892C33.8069 33.8892 37.1459 30.27 37.1459 26.1438C37.1439 24.2491 36.3904 22.4326 35.0507 21.0928C33.711 19.753 31.8946 18.9994 29.9999 18.9971Z" fill="#336AEA"/>
<path d="M44.4847 22.69C44.2949 22.6899 44.1094 22.6335 43.9516 22.528C43.7938 22.4225 43.6708 22.2726 43.5982 22.0973C43.5256 21.9219 43.5066 21.729 43.5436 21.5428C43.5806 21.3566 43.6719 21.1856 43.8061 21.0514L48.6499 16.2076L45.2899 15.649C45.116 15.62 44.9534 15.5436 44.8199 15.4283C44.6865 15.313 44.5874 15.1632 44.5336 14.9952C44.4797 14.8273 44.4731 14.6478 44.5146 14.4764C44.556 14.305 44.6439 14.1483 44.7685 14.0236L50.7931 7.99835C50.8817 7.90705 50.9876 7.83428 51.1046 7.78427C51.2217 7.73426 51.3474 7.70802 51.4747 7.70706C51.6019 7.7061 51.7281 7.73045 51.8459 7.77869C51.9636 7.82693 52.0706 7.8981 52.1606 7.98806C52.2506 8.07802 52.3218 8.18497 52.3701 8.3027C52.4184 8.42043 52.4428 8.54659 52.4419 8.67383C52.441 8.80108 52.4148 8.92688 52.3648 9.04391C52.3149 9.16095 52.2422 9.26688 52.1509 9.35555L47.4457 14.0608L50.8057 14.6194C50.9798 14.6482 51.1426 14.7244 51.2762 14.8398C51.4098 14.9551 51.509 15.105 51.563 15.273C51.6169 15.4411 51.6235 15.6207 51.582 15.7923C51.5405 15.9638 51.4525 16.1206 51.3277 16.2454L45.1633 22.4092C45.0743 22.4984 44.9685 22.5691 44.852 22.6173C44.7356 22.6655 44.6107 22.6902 44.4847 22.69Z" fill="#336AEA"/>
<path d="M47.013 33.4156C46.8232 33.4155 46.6377 33.3591 46.4799 33.2536C46.3221 33.1482 46.1991 32.9983 46.1265 32.8229C46.0539 32.6475 46.0349 32.4546 46.0719 32.2684C46.1089 32.0823 46.2003 31.9112 46.3344 31.777L51.18 26.9332L47.82 26.3746C47.6461 26.3456 47.4835 26.2693 47.3501 26.1539C47.2166 26.0386 47.1176 25.8888 47.0637 25.7209C47.0098 25.553 47.0033 25.3734 47.0447 25.202C47.0861 25.0306 47.174 24.8739 47.2986 24.7492L53.3214 18.724C53.5029 18.5515 53.7446 18.4568 53.9949 18.46C54.2453 18.4632 54.4844 18.5641 54.6615 18.7411C54.8385 18.9182 54.9394 19.1573 54.9426 19.4077C54.9458 19.658 54.8511 19.8997 54.6786 20.0812L49.9734 24.7864L53.3334 25.345C53.5075 25.3739 53.6702 25.4502 53.8037 25.5656C53.9373 25.6809 54.0364 25.8308 54.0903 25.9989C54.1442 26.1669 54.1507 26.3465 54.1092 26.518C54.0676 26.6895 53.9796 26.8462 53.8548 26.971L47.6916 33.1348C47.5116 33.3146 47.2675 33.4156 47.013 33.4156Z" fill="#336AEA"/>
<path d="M15.5155 22.6906C15.3895 22.6908 15.2646 22.6661 15.1482 22.6179C15.0317 22.5698 14.9259 22.499 14.8369 22.4098L8.67251 16.246C8.5477 16.1212 8.45971 15.9645 8.4182 15.7929C8.37669 15.6214 8.38327 15.4417 8.43721 15.2737C8.49116 15.1057 8.59038 14.9557 8.72398 14.8404C8.85758 14.7251 9.02039 14.6488 9.19451 14.62L12.5545 14.0614L7.84931 9.35622C7.67366 9.17527 7.57625 8.93248 7.57815 8.68031C7.58005 8.42814 7.6811 8.18684 7.85945 8.00857C8.03781 7.83029 8.27915 7.72935 8.53132 7.72756C8.78349 7.72578 9.02624 7.82328 9.20711 7.99902L15.2323 14.0242C15.3569 14.149 15.4448 14.3057 15.4862 14.4771C15.5277 14.6485 15.5211 14.828 15.4672 14.9959C15.4134 15.1638 15.3143 15.3137 15.1809 15.429C15.0475 15.5443 14.8849 15.6206 14.7109 15.6496L11.3509 16.2082L16.1947 21.052C16.3289 21.1863 16.4202 21.3573 16.4572 21.5435C16.4942 21.7296 16.4752 21.9226 16.4026 22.0979C16.33 22.2733 16.207 22.4232 16.0492 22.5287C15.8914 22.6342 15.7059 22.6905 15.5161 22.6906H15.5155Z" fill="#336AEA"/>
<path d="M12.987 33.4156C12.7325 33.4156 12.4884 33.3146 12.3084 33.1348L6.14459 26.971C6.0198 26.8462 5.93179 26.6895 5.89025 26.518C5.84871 26.3465 5.85524 26.1669 5.90912 25.9989C5.963 25.8308 6.06214 25.6809 6.19567 25.5656C6.32919 25.4502 6.49193 25.3739 6.66599 25.345L10.026 24.7864L5.32139 20.0812C5.14896 19.8997 5.05425 19.658 5.05745 19.4077C5.06066 19.1573 5.16152 18.9182 5.33855 18.7411C5.51558 18.5641 5.75475 18.4632 6.00508 18.46C6.25541 18.4568 6.49709 18.5515 6.67859 18.724L12.7038 24.7492C12.8285 24.8741 12.9163 25.031 12.9576 25.2026C12.9989 25.3741 12.9921 25.5538 12.938 25.7218C12.8839 25.8897 12.7845 26.0395 12.6507 26.1547C12.517 26.2699 12.3541 26.346 12.18 26.3746L8.81999 26.9332L13.6638 31.777C13.798 31.9112 13.8893 32.0823 13.9263 32.2684C13.9633 32.4546 13.9443 32.6475 13.8717 32.8229C13.7991 32.9983 13.6761 33.1482 13.5183 33.2536C13.3605 33.3591 13.175 33.4155 12.9852 33.4156H12.987Z" fill="#336AEA"/>
</svg>
