<svg width="60" height="60" viewBox="0 0 60 60" fill="none" xmlns="http://www.w3.org/2000/svg">
<g clip-path="url(#clip0_9988_51)">
<path d="M58.217 26.6672C58.224 26.6592 58.226 26.6482 58.233 26.6392C60.792 23.7653 60.5424 19.3624 57.675 16.7962L57.667 16.7852L57.657 16.7772C57.8811 16.4537 58.079 16.113 58.249 15.7582C58.3366 15.5896 58.414 15.4159 58.481 15.2382C58.8123 14.3627 58.9879 13.4361 59 12.5002C58.9956 8.35985 55.6403 5.00456 51.5 5.00015C51.32 5.00015 51.129 5.01115 50.938 5.02215C50.763 5.03515 50.599 5.05715 50.45 5.07915C50.0363 5.13356 49.6281 5.2239 49.23 5.34915L49.217 5.33315C49.217 5.33315 49.207 5.32715 49.203 5.32215C46.9155 2.75876 43.0979 2.25213 40.221 4.13015C40.192 4.14615 40.16 4.14815 40.132 4.16715C40.104 4.18615 40.066 4.21915 40.032 4.24315C40.023 4.24915 40.013 4.25315 40.005 4.25915C39.6664 4.01983 39.3057 3.81324 38.928 3.64215C37.0967 2.79867 34.9906 2.78582 33.1491 3.60688C31.3076 4.42794 29.9095 6.00317 29.313 7.92915C26.075 4.73382 21.6972 2.96044 17.1482 3.00135C12.5992 3.04226 8.25403 4.8941 5.074 8.14715C-1.68417 15.0236 -1.68417 26.0477 5.074 32.9242L28.449 56.5682C28.8225 56.9353 29.3603 57.081 29.868 56.9527C30.3757 56.8244 30.7798 56.4406 30.934 55.9402C30.944 55.9472 30.952 55.9562 30.962 55.9642C32.4706 57.1251 34.5081 57.3272 36.2154 56.4852C37.9227 55.6432 39.0027 53.9038 39 52.0002C42.8639 51.9952 45.995 48.8641 46 45.0002C49.8639 44.9952 52.995 41.8641 53 38.0002V37.9292C53.023 37.9292 53.046 37.9192 53.069 37.9162C53.092 37.9132 53.121 37.9162 53.149 37.9092C53.177 37.9022 53.182 37.8942 53.201 37.8902C56.5496 37.3045 58.9945 34.3995 59 31.0002C58.9998 30.7724 58.9881 30.5448 58.965 30.3182C58.8928 29.5817 58.7052 28.8612 58.409 28.1832C58.2348 27.8023 58.036 27.4332 57.814 27.0782C57.92 26.9782 58.014 26.8692 58.114 26.7632C58.147 26.7292 58.186 26.7002 58.217 26.6672ZM29 54.2812L6.5 31.5182C0.508101 25.422 0.508101 15.6483 6.5 9.55215C9.34526 6.64076 13.2442 4.99948 17.315 4.99948C21.3858 4.99948 25.2847 6.64076 28.13 9.55215L29.002 10.4362V54.2812H29ZM56.582 29.0002C56.7908 29.4831 56.9234 29.9955 56.975 30.5192V30.5322C56.9911 30.6876 56.9995 30.8438 57 31.0002C56.9942 32.3326 56.4591 33.6081 55.5125 34.5459C54.5659 35.4837 53.2854 36.0068 51.953 36.0002C49.9284 35.9871 48.1149 34.7451 47.371 32.8622C48.7168 32.5727 49.9214 31.8274 50.781 30.7522C51.1262 30.3208 51.0563 29.6913 50.625 29.3462C50.1937 29.001 49.5642 29.0708 49.219 29.5022C47.8391 31.2265 45.3229 31.5063 43.598 30.1272C43.1664 29.782 42.5367 29.852 42.1915 30.2837C41.8463 30.7153 41.9164 31.345 42.348 31.6902C43.194 32.3639 44.2077 32.7943 45.28 32.9352C46.0273 35.5838 48.268 37.5414 50.993 37.9262C50.993 37.9532 51 37.9772 51 38.0042C50.9967 40.7642 48.7601 43.0009 46 43.0042C45.887 43.0042 45.8 42.9832 45.69 42.9772C45.0891 41.0207 43.6703 39.4203 41.8 38.5892C42.5794 37.555 43.0007 36.2951 43 35.0002C43 34.4479 42.5523 34.0002 42 34.0002C41.4477 34.0002 41 34.4479 41 35.0002C41 37.2093 39.2091 39.0002 37 39.0002C36.4477 39.0002 36 39.4479 36 40.0002C36 40.5524 36.4477 41.0002 37 41.0002C38.0858 40.9995 39.1509 40.7021 40.08 40.1402C42.5694 40.6866 44.2464 43.0218 43.9689 45.5553C43.6914 48.0888 41.5486 50.0056 39 50.0002C38.7109 49.9965 38.4226 49.9691 38.138 49.9182C37.4595 49.8022 36.8124 49.5465 36.238 49.1672C35.7779 48.8615 35.1572 48.9866 34.8515 49.4467C34.5458 49.9067 34.6709 50.5275 35.131 50.8332C35.7017 51.2131 36.3255 51.5066 36.982 51.7042C36.991 51.8042 37.002 51.8982 37.002 52.0042C37.0047 53.1484 36.3547 54.1941 35.3275 54.6982C34.3002 55.2023 33.0754 55.0765 32.172 54.3742C31.4257 53.8145 30.9905 52.9329 31 52.0002V10.0002C30.9992 8.29369 31.8687 6.70464 33.3064 5.78534C34.7441 4.86604 36.5513 4.74344 38.1 5.46015C38.2397 5.52856 38.3759 5.60399 38.508 5.68615C37.7144 6.68858 37.212 7.89015 37.056 9.15915C36.3464 9.31304 35.6948 9.66418 35.176 10.1722C34.916 10.4232 34.8118 10.795 34.9033 11.1447C34.9948 11.4943 35.2679 11.7673 35.6175 11.8589C35.9671 11.9504 36.3389 11.8461 36.59 11.5862C37.3812 10.8303 38.6268 10.8303 39.418 11.5862C39.6691 11.8461 40.0409 11.9504 40.3905 11.8589C40.7401 11.7673 41.0132 11.4943 41.1047 11.1447C41.1962 10.795 41.092 10.4232 40.832 10.1722C40.3443 9.69599 39.7385 9.3584 39.077 9.19415C39.2593 8.07267 39.8196 7.04726 40.665 6.28815L40.676 6.28115C41.5864 5.45611 42.7714 4.99947 44 5.00015C46.758 5.00839 48.9918 7.24215 49 10.0002C49 10.5524 49.4477 11.0002 50 11.0002C50.5523 11.0002 51 10.5524 51 10.0002C50.9985 9.00946 50.7861 8.03043 50.377 7.12815C50.493 7.10515 50.607 7.07515 50.726 7.06015C50.845 7.04515 50.958 7.02515 51.07 7.01815C51.211 7.00915 51.359 7.00015 51.5 7.00015C54.536 7.00401 56.9961 9.46419 57 12.5002C56.9887 13.2063 56.8533 13.9049 56.6 14.5642C56.555 14.6762 56.5039 14.7857 56.447 14.8922C56.3142 15.1644 56.1583 15.4247 55.981 15.6702C53.9947 14.7251 51.677 14.7826 49.74 15.8252C48.9273 15.2874 47.9745 15.0005 47 15.0002C46.4477 15.0002 46 15.4479 46 16.0002C46 16.5524 46.4477 17.0002 47 17.0002C48.6569 17.0002 50 18.3433 50 20.0002C50 20.5524 50.4477 21.0002 51 21.0002C51.5523 21.0002 52 20.5524 52 20.0002C51.9973 19.0618 51.7282 18.1435 51.224 17.3522C52.9414 16.7185 54.8666 17.0527 56.27 18.2282C57.3007 19.1148 57.9234 20.3847 57.9933 21.7425C58.0632 23.1002 57.5742 24.4274 56.64 25.4152C56.5025 25.5609 56.3566 25.6984 56.203 25.8272C56.132 25.8862 56.058 25.9432 55.984 25.9992C55.3516 26.4756 54.615 26.795 53.835 26.9312C53.3228 27.0178 52.9622 27.4822 53.0052 28C53.0482 28.5177 53.4805 28.9163 54 28.9172C54.0556 28.9174 54.1112 28.9127 54.166 28.9032C54.8566 28.7814 55.5248 28.5558 56.148 28.2342C56.335 28.5462 56.528 28.8872 56.582 29.0002Z" fill="#336AEA"/>
<path d="M41 19C37.1361 19.005 34.005 22.1361 34 26C34 26.5523 34.4477 27 35 27C35.5523 27 36 26.5523 36 26C36.0033 23.2399 38.2399 21.0033 41 21C41.5523 21 42 20.5523 42 20C42 19.4477 41.5523 19 41 19Z" fill="#336AEA"/>
<path d="M17.3119 7.00001C13.772 6.99542 10.381 8.42432 7.91192 10.961C5.53287 13.3688 4.13971 16.5788 4.00592 19.961C3.99537 20.2265 4.09088 20.4852 4.27135 20.6801C4.45183 20.875 4.70245 20.9901 4.96792 21H5.01092C5.54721 21.0005 5.98839 20.5778 6.01092 20.042C6.12495 17.1569 7.3134 14.4187 9.34292 12.365C11.4358 10.2131 14.3101 8.99937 17.3119 9.00001C17.8642 9.00001 18.3119 8.5523 18.3119 8.00001C18.3119 7.44773 17.8642 7.00001 17.3119 7.00001Z" fill="#336AEA"/>
<path d="M6.44007 23.7289C6.35283 23.3743 6.07918 23.0954 5.72624 23.0014C5.37329 22.9075 4.99721 23.0134 4.7452 23.2778C4.49319 23.5422 4.40535 23.9229 4.51607 24.2709C4.61874 24.6356 4.73674 24.9959 4.87007 25.3519C5.01668 25.7418 5.38957 25.9999 5.80607 25.9999C5.92617 25.9995 6.04529 25.9782 6.15807 25.9369C6.40656 25.8436 6.60773 25.6553 6.71728 25.4135C6.82682 25.1717 6.83574 24.8963 6.74207 24.6479C6.62807 24.3459 6.52807 24.0379 6.44007 23.7289Z" fill="#336AEA"/>
</g>
<defs>
<clipPath id="clip0_9988_51">
<rect width="60" height="60" fill="white"/>
</clipPath>
</defs>
</svg>
