<svg width="193" height="56" viewBox="0 0 193 56" fill="none" xmlns="http://www.w3.org/2000/svg">
<rect width="193" height="56" fill="white"/>
<g clip-path="url(#clip0_9878_32)">
<path d="M49.5328 12.002H30.4632C26.8916 12.002 24 14.8936 24 18.4651V37.5388C24 41.1063 26.8916 43.998 30.4632 43.998H49.5368C53.1044 43.998 56 41.1063 56 37.5348V18.4651C55.996 14.8936 53.1044 12.002 49.5328 12.002Z" fill="url(#paint0_linear_9878_32)"/>
<path d="M39.8619 19.3532L40.5099 18.2333C40.9098 17.5334 41.8017 17.2975 42.5016 17.6974C43.2016 18.0973 43.4375 18.9892 43.0376 19.6891L36.7943 30.4958H41.3097C42.7736 30.4958 43.5934 32.2156 42.9576 33.4075H29.7192C28.9114 33.4075 28.2634 32.7595 28.2634 31.9516C28.2634 31.1438 28.9114 30.4958 29.7192 30.4958H33.4308L38.1822 22.2608L36.6984 19.6851C36.2985 18.9852 36.5344 18.1013 37.2344 17.6934C37.9343 17.2935 38.8182 17.5294 39.2261 18.2293L39.8619 19.3532Z" fill="white"/>
<path d="M34.2466 34.9072L32.8468 37.3349C32.4469 38.0349 31.555 38.2708 30.8551 37.8709C30.1551 37.4709 29.9192 36.579 30.3191 35.8791L31.359 34.0794C32.5348 33.7154 33.4907 33.9954 34.2466 34.9072Z" fill="white"/>
<path d="M46.3011 30.504H50.0886C50.8965 30.504 51.5444 31.152 51.5444 31.9598C51.5444 32.7677 50.8965 33.4156 50.0886 33.4156H47.9849L49.4047 35.8793C49.8046 36.5793 49.5687 37.4631 48.8688 37.8711C48.1688 38.271 47.2849 38.0351 46.877 37.3351C44.4853 33.1876 42.6895 30.0841 41.4977 28.0163C40.2778 25.9126 41.1498 23.8008 42.0096 23.085C42.9656 24.7248 44.3934 27.2005 46.3011 30.504Z" fill="white"/>
</g>
<path d="M74.75 23.5H72.0568V14.7727H74.8693C75.7159 14.7727 76.4403 14.9474 77.0426 15.2969C77.6449 15.6435 78.1065 16.142 78.4276 16.7926C78.7486 17.4403 78.9091 18.2159 78.9091 19.1193C78.9091 20.0284 78.7472 20.8111 78.4233 21.4673C78.0994 22.1207 77.6278 22.6236 77.0085 22.9759C76.3892 23.3253 75.6364 23.5 74.75 23.5ZM73.1136 22.5625H74.6818C75.4034 22.5625 76.0014 22.4233 76.4759 22.1449C76.9503 21.8665 77.304 21.4702 77.5369 20.956C77.7699 20.4418 77.8864 19.8295 77.8864 19.1193C77.8864 18.4148 77.7713 17.8082 77.5412 17.2997C77.3111 16.7884 76.9673 16.3963 76.5099 16.1236C76.0526 15.848 75.483 15.7102 74.8011 15.7102H73.1136V22.5625ZM83.2045 23.6364C82.6136 23.6364 82.0952 23.4957 81.6491 23.2145C81.206 22.9332 80.8594 22.5398 80.6094 22.0341C80.3622 21.5284 80.2386 20.9375 80.2386 20.2614C80.2386 19.5795 80.3622 18.9844 80.6094 18.4759C80.8594 17.9673 81.206 17.5724 81.6491 17.2912C82.0952 17.0099 82.6136 16.8693 83.2045 16.8693C83.7955 16.8693 84.3125 17.0099 84.7557 17.2912C85.2017 17.5724 85.5483 17.9673 85.7955 18.4759C86.0455 18.9844 86.1705 19.5795 86.1705 20.2614C86.1705 20.9375 86.0455 21.5284 85.7955 22.0341C85.5483 22.5398 85.2017 22.9332 84.7557 23.2145C84.3125 23.4957 83.7955 23.6364 83.2045 23.6364ZM83.2045 22.733C83.6534 22.733 84.0227 22.6179 84.3125 22.3878C84.6023 22.1577 84.8168 21.8551 84.956 21.4801C85.0952 21.1051 85.1648 20.6989 85.1648 20.2614C85.1648 19.8239 85.0952 19.4162 84.956 19.0384C84.8168 18.6605 84.6023 18.3551 84.3125 18.1222C84.0227 17.8892 83.6534 17.7727 83.2045 17.7727C82.7557 17.7727 82.3864 17.8892 82.0966 18.1222C81.8068 18.3551 81.5923 18.6605 81.4531 19.0384C81.3139 19.4162 81.2443 19.8239 81.2443 20.2614C81.2443 20.6989 81.3139 21.1051 81.4531 21.4801C81.5923 21.8551 81.8068 22.1577 82.0966 22.3878C82.3864 22.6179 82.7557 22.733 83.2045 22.733ZM88.9659 23.5L86.9716 16.9545H88.0284L89.4432 21.9659H89.5114L90.9091 16.9545H91.983L93.3636 21.9489H93.4318L94.8466 16.9545H95.9034L93.9091 23.5H92.9205L91.4886 18.4716H91.3864L89.9545 23.5H88.9659ZM98.2386 19.5625V23.5H97.233V16.9545H98.2045V17.9773H98.2898C98.4432 17.6449 98.6761 17.3778 98.9886 17.1761C99.3011 16.9716 99.7045 16.8693 100.199 16.8693C100.642 16.8693 101.03 16.9602 101.362 17.142C101.695 17.321 101.953 17.5938 102.138 17.9602C102.322 18.3239 102.415 18.7841 102.415 19.3409V23.5H101.409V19.4091C101.409 18.8949 101.276 18.4943 101.009 18.2074C100.741 17.9176 100.375 17.7727 99.9091 17.7727C99.5881 17.7727 99.3011 17.8423 99.0483 17.9815C98.7983 18.1207 98.6009 18.3239 98.456 18.5909C98.3111 18.858 98.2386 19.1818 98.2386 19.5625ZM105.258 14.7727V23.5H104.252V14.7727H105.258ZM109.759 23.6364C109.168 23.6364 108.65 23.4957 108.204 23.2145C107.761 22.9332 107.414 22.5398 107.164 22.0341C106.917 21.5284 106.793 20.9375 106.793 20.2614C106.793 19.5795 106.917 18.9844 107.164 18.4759C107.414 17.9673 107.761 17.5724 108.204 17.2912C108.65 17.0099 109.168 16.8693 109.759 16.8693C110.35 16.8693 110.867 17.0099 111.31 17.2912C111.756 17.5724 112.103 17.9673 112.35 18.4759C112.6 18.9844 112.725 19.5795 112.725 20.2614C112.725 20.9375 112.6 21.5284 112.35 22.0341C112.103 22.5398 111.756 22.9332 111.31 23.2145C110.867 23.4957 110.35 23.6364 109.759 23.6364ZM109.759 22.733C110.208 22.733 110.577 22.6179 110.867 22.3878C111.157 22.1577 111.371 21.8551 111.511 21.4801C111.65 21.1051 111.719 20.6989 111.719 20.2614C111.719 19.8239 111.65 19.4162 111.511 19.0384C111.371 18.6605 111.157 18.3551 110.867 18.1222C110.577 17.8892 110.208 17.7727 109.759 17.7727C109.31 17.7727 108.941 17.8892 108.651 18.1222C108.362 18.3551 108.147 18.6605 108.008 19.0384C107.869 19.4162 107.799 19.8239 107.799 20.2614C107.799 20.6989 107.869 21.1051 108.008 21.4801C108.147 21.8551 108.362 22.1577 108.651 22.3878C108.941 22.6179 109.31 22.733 109.759 22.733ZM116.186 23.6534C115.772 23.6534 115.395 23.5753 115.057 23.419C114.719 23.2599 114.451 23.0312 114.252 22.733C114.053 22.4318 113.953 22.0682 113.953 21.642C113.953 21.267 114.027 20.9631 114.175 20.7301C114.323 20.4943 114.52 20.3097 114.767 20.1761C115.015 20.0426 115.287 19.9432 115.586 19.8778C115.887 19.8097 116.189 19.7557 116.493 19.7159C116.891 19.6648 117.213 19.6264 117.461 19.6009C117.711 19.5724 117.892 19.5256 118.006 19.4602C118.123 19.3949 118.181 19.2812 118.181 19.1193V19.0852C118.181 18.6648 118.066 18.3381 117.836 18.1051C117.608 17.8722 117.263 17.7557 116.8 17.7557C116.32 17.7557 115.944 17.8608 115.671 18.071C115.398 18.2812 115.206 18.5057 115.096 18.7443L114.141 18.4034C114.311 18.0057 114.539 17.696 114.823 17.4744C115.11 17.25 115.422 17.0937 115.76 17.0057C116.101 16.9148 116.436 16.8693 116.766 16.8693C116.976 16.8693 117.218 16.8949 117.49 16.946C117.766 16.9943 118.032 17.0952 118.287 17.2486C118.546 17.402 118.76 17.6335 118.931 17.9432C119.101 18.2528 119.186 18.6676 119.186 19.1875V23.5H118.181V22.6136H118.13C118.061 22.7557 117.948 22.9077 117.789 23.0696C117.63 23.2315 117.418 23.3693 117.154 23.483C116.89 23.5966 116.567 23.6534 116.186 23.6534ZM116.34 22.75C116.738 22.75 117.073 22.6719 117.346 22.5156C117.621 22.3594 117.828 22.1577 117.968 21.9105C118.11 21.6634 118.181 21.4034 118.181 21.1307V20.2102C118.138 20.2614 118.044 20.3082 117.9 20.3509C117.757 20.3906 117.593 20.4261 117.405 20.4574C117.221 20.4858 117.04 20.5114 116.864 20.5341C116.691 20.554 116.55 20.571 116.442 20.5852C116.181 20.6193 115.936 20.6747 115.709 20.7514C115.485 20.8253 115.303 20.9375 115.164 21.0881C115.027 21.2358 114.959 21.4375 114.959 21.6932C114.959 22.0426 115.088 22.3068 115.347 22.4858C115.608 22.6619 115.939 22.75 116.34 22.75ZM123.494 23.6364C122.948 23.6364 122.467 23.4986 122.049 23.223C121.631 22.9446 121.305 22.5526 121.069 22.0469C120.833 21.5384 120.715 20.9375 120.715 20.2443C120.715 19.5568 120.833 18.9602 121.069 18.4545C121.305 17.9489 121.633 17.5582 122.053 17.2827C122.474 17.0071 122.96 16.8693 123.511 16.8693C123.937 16.8693 124.273 16.9403 124.521 17.0824C124.771 17.2216 124.961 17.3807 125.092 17.5597C125.225 17.7358 125.329 17.8807 125.403 17.9943H125.488V14.7727H126.494V23.5H125.522V22.4943H125.403C125.329 22.6136 125.224 22.7642 125.087 22.946C124.951 23.125 124.756 23.2855 124.504 23.4276C124.251 23.5668 123.914 23.6364 123.494 23.6364ZM123.63 22.733C124.033 22.733 124.374 22.6278 124.653 22.4176C124.931 22.2045 125.143 21.9105 125.288 21.5355C125.433 21.1577 125.505 20.7216 125.505 20.2273C125.505 19.7386 125.434 19.3111 125.292 18.9446C125.15 18.5753 124.94 18.2884 124.661 18.0838C124.383 17.8764 124.039 17.7727 123.63 17.7727C123.204 17.7727 122.849 17.8821 122.565 18.1009C122.283 18.3168 122.072 18.6108 121.93 18.983C121.79 19.3523 121.721 19.767 121.721 20.2273C121.721 20.6932 121.792 21.1165 121.934 21.4972C122.079 21.875 122.292 22.1761 122.573 22.4006C122.857 22.6222 123.21 22.733 123.63 22.733ZM134.509 23.6364C133.918 23.6364 133.4 23.4957 132.954 23.2145C132.511 22.9332 132.164 22.5398 131.914 22.0341C131.667 21.5284 131.543 20.9375 131.543 20.2614C131.543 19.5795 131.667 18.9844 131.914 18.4759C132.164 17.9673 132.511 17.5724 132.954 17.2912C133.4 17.0099 133.918 16.8693 134.509 16.8693C135.1 16.8693 135.617 17.0099 136.06 17.2912C136.506 17.5724 136.853 17.9673 137.1 18.4759C137.35 18.9844 137.475 19.5795 137.475 20.2614C137.475 20.9375 137.35 21.5284 137.1 22.0341C136.853 22.5398 136.506 22.9332 136.06 23.2145C135.617 23.4957 135.1 23.6364 134.509 23.6364ZM134.509 22.733C134.958 22.733 135.327 22.6179 135.617 22.3878C135.907 22.1577 136.121 21.8551 136.261 21.4801C136.4 21.1051 136.469 20.6989 136.469 20.2614C136.469 19.8239 136.4 19.4162 136.261 19.0384C136.121 18.6605 135.907 18.3551 135.617 18.1222C135.327 17.8892 134.958 17.7727 134.509 17.7727C134.06 17.7727 133.691 17.8892 133.401 18.1222C133.112 18.3551 132.897 18.6605 132.758 19.0384C132.619 19.4162 132.549 19.8239 132.549 20.2614C132.549 20.6989 132.619 21.1051 132.758 21.4801C132.897 21.8551 133.112 22.1577 133.401 22.3878C133.691 22.6179 134.06 22.733 134.509 22.733ZM140.016 19.5625V23.5H139.01V16.9545H139.982V17.9773H140.067C140.221 17.6449 140.453 17.3778 140.766 17.1761C141.078 16.9716 141.482 16.8693 141.976 16.8693C142.419 16.8693 142.807 16.9602 143.14 17.142C143.472 17.321 143.73 17.5938 143.915 17.9602C144.1 18.3239 144.192 18.7841 144.192 19.3409V23.5H143.186V19.4091C143.186 18.8949 143.053 18.4943 142.786 18.2074C142.519 17.9176 142.152 17.7727 141.686 17.7727C141.365 17.7727 141.078 17.8423 140.826 17.9815C140.576 18.1207 140.378 18.3239 140.233 18.5909C140.088 18.858 140.016 19.1818 140.016 19.5625ZM152.251 16.9545V17.8068H148.859V16.9545H152.251ZM149.848 15.3864H150.854V21.625C150.854 21.9091 150.895 22.1222 150.977 22.2642C151.063 22.4034 151.17 22.4972 151.301 22.5455C151.435 22.5909 151.575 22.6136 151.723 22.6136C151.834 22.6136 151.925 22.608 151.996 22.5966C152.067 22.5824 152.124 22.571 152.166 22.5625L152.371 23.4659C152.303 23.4915 152.207 23.517 152.085 23.5426C151.963 23.571 151.808 23.5852 151.621 23.5852C151.337 23.5852 151.058 23.5241 150.786 23.402C150.516 23.2798 150.291 23.0938 150.112 22.8438C149.936 22.5938 149.848 22.2784 149.848 21.8977V15.3864ZM154.911 19.5625V23.5H153.905V14.7727H154.911V17.9773H154.996C155.149 17.6392 155.379 17.3707 155.686 17.1719C155.996 16.9702 156.408 16.8693 156.922 16.8693C157.368 16.8693 157.759 16.9588 158.094 17.1378C158.429 17.3139 158.689 17.5852 158.874 17.9517C159.061 18.3153 159.155 18.7784 159.155 19.3409V23.5H158.149V19.4091C158.149 18.8892 158.014 18.4872 157.744 18.2031C157.477 17.9162 157.107 17.7727 156.632 17.7727C156.303 17.7727 156.007 17.8423 155.746 17.9815C155.487 18.1207 155.283 18.3239 155.132 18.5909C154.984 18.858 154.911 19.1818 154.911 19.5625ZM163.739 23.6364C163.108 23.6364 162.564 23.4972 162.107 23.2188C161.652 22.9375 161.301 22.5455 161.054 22.0426C160.81 21.5369 160.688 20.9489 160.688 20.2784C160.688 19.608 160.81 19.017 161.054 18.5057C161.301 17.9915 161.645 17.5909 162.086 17.304C162.529 17.0142 163.046 16.8693 163.637 16.8693C163.978 16.8693 164.314 16.9261 164.647 17.0398C164.979 17.1534 165.282 17.3381 165.554 17.5938C165.827 17.8466 166.044 18.1818 166.206 18.5994C166.368 19.017 166.449 19.5312 166.449 20.142V20.5682H161.404V19.6989H165.426C165.426 19.3295 165.353 19 165.205 18.7102C165.06 18.4205 164.853 18.1918 164.583 18.0241C164.316 17.8565 164 17.7727 163.637 17.7727C163.236 17.7727 162.89 17.8722 162.597 18.071C162.307 18.267 162.084 18.5227 161.928 18.8381C161.772 19.1534 161.694 19.4915 161.694 19.8523V20.4318C161.694 20.9261 161.779 21.3452 161.949 21.6889C162.123 22.0298 162.363 22.2898 162.669 22.4688C162.976 22.6449 163.333 22.733 163.739 22.733C164.003 22.733 164.242 22.696 164.455 22.6222C164.671 22.5455 164.857 22.4318 165.013 22.2812C165.169 22.1278 165.29 21.9375 165.375 21.7102L166.347 21.983C166.245 22.3125 166.073 22.6023 165.831 22.8523C165.59 23.0994 165.292 23.2926 164.936 23.4318C164.581 23.5682 164.182 23.6364 163.739 23.6364Z" fill="#5A6A85"/>
<path d="M71.165 41.5L75.095 30.325H77.285L81.215 41.5H79.325L78.47 38.995H73.925L73.055 41.5H71.165ZM74.435 37.42H77.93L75.95 31.57H76.445L74.435 37.42ZM82.3757 44.5V33.385H83.9957V35.065L83.8007 34.675C84.1007 34.215 84.5007 33.855 85.0007 33.595C85.5007 33.335 86.0707 33.205 86.7107 33.205C87.4807 33.205 88.1707 33.39 88.7807 33.76C89.4007 34.13 89.8857 34.635 90.2357 35.275C90.5957 35.915 90.7757 36.635 90.7757 37.435C90.7757 38.235 90.5957 38.955 90.2357 39.595C89.8857 40.235 89.4057 40.745 88.7957 41.125C88.1857 41.495 87.4907 41.68 86.7107 41.68C86.0807 41.68 85.5057 41.55 84.9857 41.29C84.4757 41.03 84.0807 40.655 83.8007 40.165L84.0707 39.85V44.5H82.3757ZM86.5457 40.105C87.0257 40.105 87.4507 39.99 87.8207 39.76C88.1907 39.53 88.4807 39.215 88.6907 38.815C88.9107 38.405 89.0207 37.945 89.0207 37.435C89.0207 36.925 88.9107 36.47 88.6907 36.07C88.4807 35.67 88.1907 35.355 87.8207 35.125C87.4507 34.895 87.0257 34.78 86.5457 34.78C86.0757 34.78 85.6507 34.895 85.2707 35.125C84.9007 35.355 84.6057 35.67 84.3857 36.07C84.1757 36.47 84.0707 36.925 84.0707 37.435C84.0707 37.945 84.1757 38.405 84.3857 38.815C84.6057 39.215 84.9007 39.53 85.2707 39.76C85.6507 39.99 86.0757 40.105 86.5457 40.105ZM92.4246 44.5V33.385H94.0446V35.065L93.8496 34.675C94.1496 34.215 94.5496 33.855 95.0496 33.595C95.5496 33.335 96.1196 33.205 96.7596 33.205C97.5296 33.205 98.2196 33.39 98.8296 33.76C99.4496 34.13 99.9346 34.635 100.285 35.275C100.645 35.915 100.825 36.635 100.825 37.435C100.825 38.235 100.645 38.955 100.285 39.595C99.9346 40.235 99.4546 40.745 98.8446 41.125C98.2346 41.495 97.5396 41.68 96.7596 41.68C96.1296 41.68 95.5546 41.55 95.0346 41.29C94.5246 41.03 94.1296 40.655 93.8496 40.165L94.1196 39.85V44.5H92.4246ZM96.5946 40.105C97.0746 40.105 97.4996 39.99 97.8696 39.76C98.2396 39.53 98.5296 39.215 98.7396 38.815C98.9596 38.405 99.0696 37.945 99.0696 37.435C99.0696 36.925 98.9596 36.47 98.7396 36.07C98.5296 35.67 98.2396 35.355 97.8696 35.125C97.4996 34.895 97.0746 34.78 96.5946 34.78C96.1246 34.78 95.6996 34.895 95.3196 35.125C94.9496 35.355 94.6546 35.67 94.4346 36.07C94.2246 36.47 94.1196 36.925 94.1196 37.435C94.1196 37.945 94.2246 38.405 94.4346 38.815C94.6546 39.215 94.9496 39.53 95.3196 39.76C95.6996 39.99 96.1246 40.105 96.5946 40.105ZM109.175 41.68C108.475 41.68 107.825 41.55 107.225 41.29C106.625 41.02 106.115 40.655 105.695 40.195C105.275 39.735 104.965 39.205 104.765 38.605L106.265 37.975C106.535 38.665 106.93 39.195 107.45 39.565C107.97 39.935 108.57 40.12 109.25 40.12C109.65 40.12 110 40.06 110.3 39.94C110.6 39.81 110.83 39.63 110.99 39.4C111.16 39.17 111.245 38.905 111.245 38.605C111.245 38.195 111.13 37.87 110.9 37.63C110.67 37.39 110.33 37.2 109.88 37.06L107.78 36.4C106.94 36.14 106.3 35.745 105.86 35.215C105.42 34.675 105.2 34.045 105.2 33.325C105.2 32.695 105.355 32.145 105.665 31.675C105.975 31.195 106.4 30.82 106.94 30.55C107.49 30.28 108.115 30.145 108.815 30.145C109.485 30.145 110.095 30.265 110.645 30.505C111.195 30.735 111.665 31.055 112.055 31.465C112.455 31.875 112.745 32.35 112.925 32.89L111.455 33.535C111.235 32.945 110.89 32.49 110.42 32.17C109.96 31.85 109.425 31.69 108.815 31.69C108.445 31.69 108.12 31.755 107.84 31.885C107.56 32.005 107.34 32.185 107.18 32.425C107.03 32.655 106.955 32.925 106.955 33.235C106.955 33.595 107.07 33.915 107.3 34.195C107.53 34.475 107.88 34.685 108.35 34.825L110.3 35.44C111.19 35.71 111.86 36.1 112.31 36.61C112.76 37.11 112.985 37.735 112.985 38.485C112.985 39.105 112.82 39.655 112.49 40.135C112.17 40.615 111.725 40.995 111.155 41.275C110.585 41.545 109.925 41.68 109.175 41.68ZM118.317 41.59C117.467 41.59 116.807 41.35 116.337 40.87C115.867 40.39 115.632 39.715 115.632 38.845V34.915H114.207V33.385H114.432C114.812 33.385 115.107 33.275 115.317 33.055C115.527 32.835 115.632 32.535 115.632 32.155V31.525H117.327V33.385H119.172V34.915H117.327V38.77C117.327 39.05 117.372 39.29 117.462 39.49C117.552 39.68 117.697 39.83 117.897 39.94C118.097 40.04 118.357 40.09 118.677 40.09C118.757 40.09 118.847 40.085 118.947 40.075C119.047 40.065 119.142 40.055 119.232 40.045V41.5C119.092 41.52 118.937 41.54 118.767 41.56C118.597 41.58 118.447 41.59 118.317 41.59ZM124.655 41.68C123.875 41.68 123.16 41.495 122.51 41.125C121.87 40.755 121.36 40.25 120.98 39.61C120.6 38.97 120.41 38.245 120.41 37.435C120.41 36.615 120.6 35.89 120.98 35.26C121.36 34.62 121.87 34.12 122.51 33.76C123.15 33.39 123.865 33.205 124.655 33.205C125.455 33.205 126.17 33.39 126.8 33.76C127.44 34.12 127.945 34.62 128.315 35.26C128.695 35.89 128.885 36.615 128.885 37.435C128.885 38.255 128.695 38.985 128.315 39.625C127.935 40.265 127.425 40.77 126.785 41.14C126.145 41.5 125.435 41.68 124.655 41.68ZM124.655 40.105C125.135 40.105 125.56 39.99 125.93 39.76C126.3 39.53 126.59 39.215 126.8 38.815C127.02 38.405 127.13 37.945 127.13 37.435C127.13 36.925 127.02 36.47 126.8 36.07C126.59 35.67 126.3 35.355 125.93 35.125C125.56 34.895 125.135 34.78 124.655 34.78C124.185 34.78 123.76 34.895 123.38 35.125C123.01 35.355 122.715 35.67 122.495 36.07C122.285 36.47 122.18 36.925 122.18 37.435C122.18 37.945 122.285 38.405 122.495 38.815C122.715 39.215 123.01 39.53 123.38 39.76C123.76 39.99 124.185 40.105 124.655 40.105ZM130.54 41.5V33.385H132.16V35.02L132.01 34.78C132.19 34.25 132.48 33.87 132.88 33.64C133.28 33.4 133.76 33.28 134.32 33.28H134.815V34.825H134.11C133.55 34.825 133.095 35 132.745 35.35C132.405 35.69 132.235 36.18 132.235 36.82V41.5H130.54ZM139.784 41.68C138.974 41.68 138.254 41.495 137.624 41.125C137.004 40.745 136.519 40.235 136.169 39.595C135.819 38.945 135.644 38.22 135.644 37.42C135.644 36.6 135.819 35.875 136.169 35.245C136.529 34.615 137.009 34.12 137.609 33.76C138.209 33.39 138.889 33.205 139.649 33.205C140.259 33.205 140.804 33.31 141.284 33.52C141.764 33.73 142.169 34.02 142.499 34.39C142.829 34.75 143.079 35.165 143.249 35.635C143.429 36.105 143.519 36.605 143.519 37.135C143.519 37.265 143.514 37.4 143.504 37.54C143.494 37.68 143.474 37.81 143.444 37.93H136.979V36.58H142.484L141.674 37.195C141.774 36.705 141.739 36.27 141.569 35.89C141.409 35.5 141.159 35.195 140.819 34.975C140.489 34.745 140.099 34.63 139.649 34.63C139.199 34.63 138.799 34.745 138.449 34.975C138.099 35.195 137.829 35.515 137.639 35.935C137.449 36.345 137.374 36.845 137.414 37.435C137.364 37.985 137.439 38.465 137.639 38.875C137.849 39.285 138.139 39.605 138.509 39.835C138.889 40.065 139.319 40.18 139.799 40.18C140.289 40.18 140.704 40.07 141.044 39.85C141.394 39.63 141.669 39.345 141.869 38.995L143.249 39.67C143.089 40.05 142.839 40.395 142.499 40.705C142.169 41.005 141.769 41.245 141.299 41.425C140.839 41.595 140.334 41.68 139.784 41.68Z" fill="#2A3547"/>
<defs>
<linearGradient id="paint0_linear_9878_32" x1="40" y1="12.002" x2="40" y2="43.998" gradientUnits="userSpaceOnUse">
<stop stop-color="#00BFFC"/>
<stop offset="1" stop-color="#0073F6"/>
</linearGradient>
<clipPath id="clip0_9878_32">
<rect width="32" height="32" fill="white" transform="translate(24 12)"/>
</clipPath>
</defs>
</svg>
