<svg width="193" height="56" viewBox="0 0 193 56" fill="none" xmlns="http://www.w3.org/2000/svg">
<rect width="193" height="56" fill="white"/>
<g clip-path="url(#clip0_9878_18)">
<path d="M42.4118 28.0033L26.3421 43.4772C25.5896 42.963 25.1428 42.1075 25.1507 41.1961V14.8104C25.1428 13.899 25.5896 13.0436 26.3421 12.5293L42.4118 28.0033Z" fill="#2196F3"/>
<path d="M48.0349 22.5978L42.4119 28.0028L26.3423 12.5289C26.4028 12.4819 26.4659 12.4383 26.5311 12.3981C27.3804 11.8833 28.4413 11.8667 29.3063 12.3545L48.0349 22.5978Z" fill="#4CAF50"/>
<path d="M54.8491 28.0027C54.8596 29.0315 54.3005 29.9819 53.3962 30.4727L48.0348 33.4076L42.4119 28.0027L48.0348 22.5977L53.3962 25.5326C54.3005 26.0234 54.8596 26.9738 54.8491 28.0027Z" fill="#FFC107"/>
<path d="M48.0349 33.4079L29.3063 43.6513C28.4394 44.1315 27.3826 44.1149 26.5311 43.6077C26.4659 43.5675 26.4028 43.5238 26.3423 43.4769L42.412 28.0029L48.0349 33.4079Z" fill="#F44336"/>
</g>
<path d="M78.0227 17.5C77.929 17.2131 77.8054 16.956 77.652 16.7287C77.5014 16.4986 77.321 16.3026 77.1108 16.1406C76.9034 15.9787 76.6676 15.8551 76.4034 15.7699C76.1392 15.6847 75.8494 15.642 75.5341 15.642C75.017 15.642 74.5469 15.7756 74.1236 16.0426C73.7003 16.3097 73.3636 16.7031 73.1136 17.223C72.8636 17.7429 72.7386 18.3807 72.7386 19.1364C72.7386 19.892 72.8651 20.5298 73.1179 21.0497C73.3707 21.5696 73.7131 21.9631 74.1449 22.2301C74.5767 22.4972 75.0625 22.6307 75.6023 22.6307C76.1023 22.6307 76.5426 22.5241 76.9233 22.3111C77.3068 22.0952 77.6051 21.7912 77.8182 21.3991C78.0341 21.0043 78.142 20.5398 78.142 20.0057L78.4659 20.0739H75.8409V19.1364H79.1648V20.0739C79.1648 20.7926 79.0114 21.4176 78.7045 21.9489C78.4006 22.4801 77.9801 22.892 77.4432 23.1847C76.9091 23.4744 76.2955 23.6193 75.6023 23.6193C74.8295 23.6193 74.1506 23.4375 73.5653 23.0739C72.983 22.7102 72.5284 22.1932 72.2017 21.5227C71.8778 20.8523 71.7159 20.0568 71.7159 19.1364C71.7159 18.446 71.8082 17.8253 71.9929 17.2741C72.1804 16.7202 72.4446 16.2486 72.7855 15.8594C73.1264 15.4702 73.5298 15.1719 73.9957 14.9645C74.4616 14.7571 74.9744 14.6534 75.5341 14.6534C75.9943 14.6534 76.4233 14.723 76.821 14.8622C77.2216 14.9986 77.5781 15.1932 77.8906 15.446C78.206 15.696 78.4688 15.9957 78.679 16.3452C78.8892 16.6918 79.0341 17.0767 79.1136 17.5H78.0227ZM80.9748 23.5V14.7727H86.2418V15.7102H82.0316V18.6591H85.9691V19.5966H82.0316V22.5625H86.31V23.5H80.9748ZM87.6694 15.7102V14.7727H94.2148V15.7102H91.4705V23.5H90.4137V15.7102H87.6694ZM100.278 14.7727V23.5H99.2209V14.7727H100.278ZM101.919 15.7102V14.7727H108.465V15.7102H105.721V23.5H104.664V15.7102H101.919ZM120.835 19.1364C120.835 20.0568 120.668 20.8523 120.336 21.5227C120.004 22.1932 119.548 22.7102 118.968 23.0739C118.388 23.4375 117.727 23.6193 116.982 23.6193C116.238 23.6193 115.576 23.4375 114.996 23.0739C114.417 22.7102 113.961 22.1932 113.629 21.5227C113.296 20.8523 113.13 20.0568 113.13 19.1364C113.13 18.2159 113.296 17.4205 113.629 16.75C113.961 16.0795 114.417 15.5625 114.996 15.1989C115.576 14.8352 116.238 14.6534 116.982 14.6534C117.727 14.6534 118.388 14.8352 118.968 15.1989C119.548 15.5625 120.004 16.0795 120.336 16.75C120.668 17.4205 120.835 18.2159 120.835 19.1364ZM119.812 19.1364C119.812 18.3807 119.685 17.7429 119.433 17.223C119.183 16.7031 118.843 16.3097 118.414 16.0426C117.988 15.7756 117.511 15.642 116.982 15.642C116.454 15.642 115.975 15.7756 115.546 16.0426C115.12 16.3097 114.781 16.7031 114.528 17.223C114.278 17.7429 114.153 18.3807 114.153 19.1364C114.153 19.892 114.278 20.5298 114.528 21.0497C114.781 21.5696 115.12 21.9631 115.546 22.2301C115.975 22.4972 116.454 22.6307 116.982 22.6307C117.511 22.6307 117.988 22.4972 118.414 22.2301C118.843 21.9631 119.183 21.5696 119.433 21.0497C119.685 20.5298 119.812 19.892 119.812 19.1364ZM129.532 14.7727V23.5H128.509L123.754 16.6477H123.668V23.5H122.612V14.7727H123.634L128.407 21.642H128.492V14.7727H129.532Z" fill="#5A6A85"/>
<path d="M77.39 41.68C76.6 41.68 75.865 41.535 75.185 41.245C74.515 40.955 73.925 40.555 73.415 40.045C72.915 39.525 72.525 38.915 72.245 38.215C71.965 37.515 71.825 36.745 71.825 35.905C71.825 35.075 71.96 34.31 72.23 33.61C72.51 32.9 72.9 32.29 73.4 31.78C73.9 31.26 74.485 30.86 75.155 30.58C75.825 30.29 76.56 30.145 77.36 30.145C78.15 30.145 78.855 30.28 79.475 30.55C80.105 30.82 80.635 31.175 81.065 31.615C81.495 32.045 81.805 32.515 81.995 33.025L80.42 33.79C80.19 33.18 79.81 32.69 79.28 32.32C78.75 31.94 78.11 31.75 77.36 31.75C76.62 31.75 75.965 31.925 75.395 32.275C74.825 32.625 74.38 33.11 74.06 33.73C73.75 34.35 73.595 35.075 73.595 35.905C73.595 36.735 73.755 37.465 74.075 38.095C74.405 38.715 74.855 39.2 75.425 39.55C75.995 39.89 76.65 40.06 77.39 40.06C78.01 40.06 78.575 39.935 79.085 39.685C79.605 39.425 80.02 39.065 80.33 38.605C80.64 38.135 80.795 37.59 80.795 36.97V36.205L81.59 36.925H77.36V35.425H82.55V36.475C82.55 37.295 82.41 38.03 82.13 38.68C81.85 39.32 81.47 39.865 80.99 40.315C80.51 40.765 79.96 41.105 79.34 41.335C78.72 41.565 78.07 41.68 77.39 41.68ZM88.1071 41.68C87.3271 41.68 86.6121 41.495 85.9621 41.125C85.3221 40.755 84.8121 40.25 84.4321 39.61C84.0521 38.97 83.8621 38.245 83.8621 37.435C83.8621 36.615 84.0521 35.89 84.4321 35.26C84.8121 34.62 85.3221 34.12 85.9621 33.76C86.6021 33.39 87.3171 33.205 88.1071 33.205C88.9071 33.205 89.6221 33.39 90.2521 33.76C90.8921 34.12 91.3971 34.62 91.7671 35.26C92.1471 35.89 92.3371 36.615 92.3371 37.435C92.3371 38.255 92.1471 38.985 91.7671 39.625C91.3871 40.265 90.8771 40.77 90.2371 41.14C89.5971 41.5 88.8871 41.68 88.1071 41.68ZM88.1071 40.105C88.5871 40.105 89.0121 39.99 89.3821 39.76C89.7521 39.53 90.0421 39.215 90.2521 38.815C90.4721 38.405 90.5821 37.945 90.5821 37.435C90.5821 36.925 90.4721 36.47 90.2521 36.07C90.0421 35.67 89.7521 35.355 89.3821 35.125C89.0121 34.895 88.5871 34.78 88.1071 34.78C87.6371 34.78 87.2121 34.895 86.8321 35.125C86.4621 35.355 86.1671 35.67 85.9471 36.07C85.7371 36.47 85.6321 36.925 85.6321 37.435C85.6321 37.945 85.7371 38.405 85.9471 38.815C86.1671 39.215 86.4621 39.53 86.8321 39.76C87.2121 39.99 87.6371 40.105 88.1071 40.105ZM97.907 41.68C97.127 41.68 96.412 41.495 95.762 41.125C95.122 40.755 94.612 40.25 94.232 39.61C93.852 38.97 93.662 38.245 93.662 37.435C93.662 36.615 93.852 35.89 94.232 35.26C94.612 34.62 95.122 34.12 95.762 33.76C96.402 33.39 97.117 33.205 97.907 33.205C98.707 33.205 99.422 33.39 100.052 33.76C100.692 34.12 101.197 34.62 101.567 35.26C101.947 35.89 102.137 36.615 102.137 37.435C102.137 38.255 101.947 38.985 101.567 39.625C101.187 40.265 100.677 40.77 100.037 41.14C99.397 41.5 98.687 41.68 97.907 41.68ZM97.907 40.105C98.387 40.105 98.812 39.99 99.182 39.76C99.552 39.53 99.842 39.215 100.052 38.815C100.272 38.405 100.382 37.945 100.382 37.435C100.382 36.925 100.272 36.47 100.052 36.07C99.842 35.67 99.552 35.355 99.182 35.125C98.812 34.895 98.387 34.78 97.907 34.78C97.437 34.78 97.012 34.895 96.632 35.125C96.262 35.355 95.967 35.67 95.747 36.07C95.537 36.47 95.432 36.925 95.432 37.435C95.432 37.945 95.537 38.405 95.747 38.815C95.967 39.215 96.262 39.53 96.632 39.76C97.012 39.99 97.437 40.105 97.907 40.105ZM107.707 44.8C107.117 44.8 106.572 44.705 106.072 44.515C105.572 44.325 105.142 44.06 104.782 43.72C104.422 43.39 104.152 43 103.972 42.55L105.532 41.905C105.672 42.285 105.927 42.6 106.297 42.85C106.677 43.1 107.142 43.225 107.692 43.225C108.122 43.225 108.507 43.14 108.847 42.97C109.187 42.81 109.457 42.57 109.657 42.25C109.857 41.94 109.957 41.565 109.957 41.125V39.295L110.257 39.64C109.977 40.16 109.587 40.555 109.087 40.825C108.597 41.095 108.042 41.23 107.422 41.23C106.672 41.23 105.997 41.055 105.397 40.705C104.797 40.355 104.322 39.875 103.972 39.265C103.632 38.655 103.462 37.97 103.462 37.21C103.462 36.44 103.632 35.755 103.972 35.155C104.322 34.555 104.792 34.08 105.382 33.73C105.972 33.38 106.647 33.205 107.407 33.205C108.027 33.205 108.577 33.34 109.057 33.61C109.547 33.87 109.947 34.25 110.257 34.75L110.032 35.17V33.385H111.637V41.125C111.637 41.825 111.467 42.45 111.127 43C110.797 43.56 110.337 44 109.747 44.32C109.157 44.64 108.477 44.8 107.707 44.8ZM107.617 39.655C108.067 39.655 108.467 39.55 108.817 39.34C109.167 39.12 109.442 38.83 109.642 38.47C109.852 38.1 109.957 37.685 109.957 37.225C109.957 36.765 109.852 36.35 109.642 35.98C109.432 35.61 109.152 35.32 108.802 35.11C108.452 34.89 108.057 34.78 107.617 34.78C107.157 34.78 106.747 34.89 106.387 35.11C106.027 35.32 105.742 35.61 105.532 35.98C105.332 36.34 105.232 36.755 105.232 37.225C105.232 37.675 105.332 38.085 105.532 38.455C105.742 38.825 106.027 39.12 106.387 39.34C106.747 39.55 107.157 39.655 107.617 39.655ZM113.621 41.5V30.145H115.316V41.5H113.621ZM121.108 41.68C120.298 41.68 119.578 41.495 118.948 41.125C118.328 40.745 117.843 40.235 117.493 39.595C117.143 38.945 116.968 38.22 116.968 37.42C116.968 36.6 117.143 35.875 117.493 35.245C117.853 34.615 118.333 34.12 118.933 33.76C119.533 33.39 120.213 33.205 120.973 33.205C121.583 33.205 122.128 33.31 122.608 33.52C123.088 33.73 123.493 34.02 123.823 34.39C124.153 34.75 124.403 35.165 124.573 35.635C124.753 36.105 124.843 36.605 124.843 37.135C124.843 37.265 124.838 37.4 124.828 37.54C124.818 37.68 124.798 37.81 124.768 37.93H118.303V36.58H123.808L122.998 37.195C123.098 36.705 123.063 36.27 122.893 35.89C122.733 35.5 122.483 35.195 122.143 34.975C121.813 34.745 121.423 34.63 120.973 34.63C120.523 34.63 120.123 34.745 119.773 34.975C119.423 35.195 119.153 35.515 118.963 35.935C118.773 36.345 118.698 36.845 118.738 37.435C118.688 37.985 118.763 38.465 118.963 38.875C119.173 39.285 119.463 39.605 119.833 39.835C120.213 40.065 120.643 40.18 121.123 40.18C121.613 40.18 122.028 40.07 122.368 39.85C122.718 39.63 122.993 39.345 123.193 38.995L124.573 39.67C124.413 40.05 124.163 40.395 123.823 40.705C123.493 41.005 123.093 41.245 122.623 41.425C122.163 41.595 121.658 41.68 121.108 41.68ZM129.284 41.5V30.325H133.349C134.099 30.325 134.759 30.465 135.329 30.745C135.909 31.015 136.359 31.415 136.679 31.945C136.999 32.465 137.159 33.09 137.159 33.82C137.159 34.54 136.994 35.16 136.664 35.68C136.344 36.2 135.899 36.6 135.329 36.88C134.759 37.16 134.099 37.3 133.349 37.3H131.054V41.5H129.284ZM131.054 35.725H133.394C133.794 35.725 134.144 35.645 134.444 35.485C134.744 35.325 134.979 35.105 135.149 34.825C135.319 34.535 135.404 34.195 135.404 33.805C135.404 33.415 135.319 33.08 135.149 32.8C134.979 32.51 134.744 32.29 134.444 32.14C134.144 31.98 133.794 31.9 133.394 31.9H131.054V35.725ZM138.816 41.5V30.145H140.511V41.5H138.816ZM144.923 41.68C144.373 41.68 143.888 41.585 143.468 41.395C143.058 41.195 142.738 40.925 142.508 40.585C142.278 40.235 142.163 39.825 142.163 39.355C142.163 38.915 142.258 38.52 142.448 38.17C142.648 37.82 142.953 37.525 143.363 37.285C143.773 37.045 144.288 36.875 144.908 36.775L147.728 36.31V37.645L145.238 38.08C144.788 38.16 144.458 38.305 144.248 38.515C144.038 38.715 143.933 38.975 143.933 39.295C143.933 39.605 144.048 39.86 144.278 40.06C144.518 40.25 144.823 40.345 145.193 40.345C145.653 40.345 146.053 40.245 146.393 40.045C146.743 39.845 147.013 39.58 147.203 39.25C147.393 38.91 147.488 38.535 147.488 38.125V36.04C147.488 35.64 147.338 35.315 147.038 35.065C146.748 34.805 146.358 34.675 145.868 34.675C145.418 34.675 145.023 34.795 144.683 35.035C144.353 35.265 144.108 35.565 143.948 35.935L142.538 35.23C142.688 34.83 142.933 34.48 143.273 34.18C143.613 33.87 144.008 33.63 144.458 33.46C144.918 33.29 145.403 33.205 145.913 33.205C146.553 33.205 147.118 33.325 147.608 33.565C148.108 33.805 148.493 34.14 148.763 34.57C149.043 34.99 149.183 35.48 149.183 36.04V41.5H147.563V40.03L147.908 40.075C147.718 40.405 147.473 40.69 147.173 40.93C146.883 41.17 146.548 41.355 146.168 41.485C145.798 41.615 145.383 41.68 144.923 41.68ZM151.885 44.8C151.685 44.8 151.485 44.78 151.285 44.74C151.095 44.71 150.92 44.66 150.76 44.59V43.135C150.88 43.165 151.025 43.19 151.195 43.21C151.365 43.24 151.53 43.255 151.69 43.255C152.16 43.255 152.505 43.15 152.725 42.94C152.955 42.74 153.16 42.43 153.34 42.01L153.88 40.78L153.85 42.205L150.34 33.385H152.155L154.75 40.15H154.135L156.715 33.385H158.545L154.96 42.385C154.77 42.865 154.53 43.285 154.24 43.645C153.96 44.015 153.625 44.3 153.235 44.5C152.855 44.7 152.405 44.8 151.885 44.8Z" fill="#2A3547"/>
<defs>
<clipPath id="clip0_9878_18">
<rect width="32" height="32" fill="white" transform="translate(24 12)"/>
</clipPath>
</defs>
</svg>
