<svg width="122" height="122" viewBox="0 0 122 122" fill="none" xmlns="http://www.w3.org/2000/svg">
<path d="M38.1761 85.1512L29.2133 93.0096L24.0974 87.1748L25.1802 86.2255L29.2624 90.8813L32.1016 88.3919L28.2304 83.9767L29.3131 83.0273L33.1843 87.4425L36.0596 84.9215L31.9774 80.2657L33.0602 79.3163L38.1761 85.1512ZM31.3592 77.2916L26.2062 76.1719L23.399 80.6094L22.7065 78.9566L25.1642 75.1339L25.5166 75.9751L21.0804 75.0755L20.3817 73.408L25.5137 74.5191L28.3419 70.0901L29.0344 71.7429L26.5644 75.5361L26.2181 74.7097L30.6544 75.6093L31.3592 77.2916ZM30.6721 66.8507L18.8673 67.5246L18.7843 66.071L20.6373 65.9652L20.2809 66.1779C19.7515 65.8876 19.3219 65.4741 18.9921 64.9373C18.6516 64.4012 18.461 63.7764 18.4203 63.0629C18.3741 62.2535 18.5298 61.5181 18.8873 60.8567C19.2443 60.1846 19.7529 59.6427 20.4131 59.2311C21.0628 58.82 21.8189 58.5899 22.6815 58.5407C23.5228 58.4926 24.2948 58.6355 24.9977 58.9693C25.7005 59.3032 26.2675 59.7836 26.6986 60.4107C27.1291 61.0272 27.3678 61.7454 27.4146 62.5654C27.4541 63.2576 27.3358 63.9001 27.0598 64.4928C26.7832 65.0748 26.3715 65.5364 25.8248 65.8774L25.5555 65.6524L30.5873 65.3652L30.6721 66.8507ZM25.9833 62.7593C25.9523 62.2162 25.7915 61.7393 25.501 61.3285C25.2104 60.9177 24.8295 60.6083 24.3582 60.4001C23.8756 60.1819 23.3468 60.0893 22.7718 60.1221C22.1754 60.1561 21.6606 60.3084 21.2273 60.5789C20.7827 60.8393 20.4395 61.1901 20.1976 61.6312C19.945 62.073 19.8343 62.5655 19.8653 63.1086C19.8963 63.6517 20.0573 64.134 20.3485 64.5554C20.6391 64.9662 21.0259 65.286 21.5091 65.5148C21.981 65.7336 22.5098 65.8263 23.0955 65.7928C23.6706 65.76 24.1854 65.6078 24.64 65.3361C25.0833 65.0544 25.4259 64.6929 25.6678 64.2517C25.9092 63.7999 26.0143 63.3024 25.9833 62.7593ZM27.0721 54.5305L15.2355 51.9621L15.5511 50.508L27.3876 53.0763L27.0721 54.5305ZM30.6682 45.5309C30.2782 46.2658 29.7561 46.8401 29.1019 47.2537C28.4383 47.6623 27.7124 47.8809 26.9244 47.9095C26.1364 47.9381 25.3608 47.7499 24.5976 47.3448C23.8344 46.9398 23.246 46.4102 22.8325 45.756C22.4239 45.0924 22.2028 44.3712 22.1692 43.5926C22.1356 42.814 22.3163 42.0526 22.7113 41.3082C23.1013 40.5733 23.6281 40.0016 24.2918 39.593C24.946 39.1794 25.6599 38.9605 26.4335 38.9363C27.2121 38.9027 27.9877 39.0909 28.7603 39.501C29.5329 39.911 30.1257 40.455 30.5387 41.1331C30.9423 41.8061 31.1609 42.5319 31.1945 43.3105C31.2237 44.0747 31.0483 44.8148 30.6682 45.5309ZM29.3963 44.8559C29.6463 44.3848 29.7535 43.8983 29.718 43.3964C29.6874 42.8851 29.5224 42.4111 29.2228 41.9744C28.9282 41.5282 28.5266 41.1701 28.0178 40.9001C27.4996 40.6251 26.9826 40.4957 26.4669 40.5118C25.9467 40.5135 25.4663 40.645 25.0258 40.9063C24.5808 41.1532 24.2333 41.5122 23.9833 41.9833C23.7283 42.4638 23.6207 42.9622 23.6607 43.4785C23.6963 43.9804 23.8566 44.4519 24.1417 44.8931C24.4175 45.3292 24.8144 45.6848 25.3326 45.9598C25.8414 46.2298 26.3631 46.3617 26.8977 46.3556C27.4323 46.3495 27.9173 46.2205 28.3529 45.9686C28.7935 45.7073 29.1413 45.3364 29.3963 44.8559ZM34.6257 38.3802L28.5161 32.2936L29.5437 31.2621L30.6659 32.38L30.3943 32.3353C30.1897 31.8454 30.1511 31.3703 30.2784 30.91C30.3982 30.4421 30.6689 29.9966 31.0905 29.5734L31.4632 29.1994L32.4606 30.1931L31.9299 30.7259C31.5008 31.1566 31.2905 31.6397 31.2991 32.1752C31.3001 32.7032 31.5462 33.2118 32.0373 33.7012L35.6759 37.326L34.6257 38.3802ZM43.6886 31.5982C42.9586 31.9972 42.2134 32.1796 41.4532 32.1453C40.6929 32.111 39.9853 31.8839 39.3303 31.4639C38.6702 31.0346 38.1356 30.4455 37.7263 29.6967C37.312 28.9385 37.1028 28.1776 37.0987 27.414C37.104 26.6453 37.2907 25.9416 37.6588 25.3028C38.0311 24.6495 38.5636 24.1336 39.2563 23.7551C39.8179 23.4482 40.3702 23.28 40.9133 23.2506C41.4607 23.2067 41.9787 23.2761 42.4675 23.4587C42.9606 23.6269 43.4068 23.8874 43.8064 24.2404C44.2102 24.5789 44.54 24.9821 44.7958 25.4501C44.852 25.5531 44.9066 25.6752 44.9595 25.8164C45.0166 25.9432 45.0666 26.0679 45.1092 26.1905L38.9036 29.5821L38.2897 28.4589L43.7372 25.4816L43.3957 26.3247C43.2139 25.7919 42.9292 25.3823 42.5417 25.0957C42.1541 24.8091 41.7258 24.6482 41.2567 24.6128C40.7876 24.5774 40.3331 24.68 39.8931 24.9204C39.4532 25.1608 39.1121 25.4931 38.8699 25.9173C38.6276 26.3414 38.5186 26.8204 38.5429 27.3541C38.5714 27.8734 38.7604 28.4082 39.1099 28.9587C39.3743 29.5314 39.7245 29.9721 40.1606 30.2808C40.601 30.575 41.077 30.7342 41.5887 30.7584C42.1045 30.7682 42.5918 30.6478 43.0505 30.3971C43.5559 30.1209 43.9178 29.7711 44.1363 29.3479C44.3547 28.9246 44.4718 28.4716 44.4876 27.9889L45.8896 27.952C45.9291 28.3802 45.8691 28.8263 45.7094 29.2904C45.554 29.74 45.307 30.1667 44.9686 30.5705C44.6394 30.9692 44.2128 31.3117 43.6886 31.5982ZM60.8926 27.6724C60.0511 27.6274 59.2709 27.4361 58.5519 27.0986C57.8334 26.7504 57.2121 26.2845 56.6878 25.701C56.1742 25.1181 55.7829 24.4456 55.5139 23.6834C55.2455 22.9107 55.1349 22.0822 55.1822 21.1982C55.23 20.3035 55.4283 19.4915 55.7771 18.7625C56.1259 18.0334 56.5867 17.4064 57.1595 16.8816C57.743 16.3574 58.4049 15.9655 59.1452 15.706C59.8961 15.4471 60.6976 15.3404 61.5497 15.386C62.4018 15.4315 63.1817 15.6281 63.8895 15.9758C64.6085 16.3133 65.2248 16.7735 65.7384 17.3565C66.2632 17.9293 66.6602 18.5968 66.9292 19.3589C67.2088 20.1216 67.3247 20.9503 67.2769 21.845C67.2296 22.7291 67.026 23.5407 66.666 24.2799C66.3172 25.009 65.8511 25.6356 65.2676 26.1599C64.6947 26.6847 64.0326 27.0819 63.2811 27.3515C62.5408 27.611 61.7447 27.718 60.8926 27.6724ZM60.9703 26.2185C61.6307 26.2538 62.2388 26.1688 62.7945 25.9635C63.3509 25.7476 63.8375 25.4372 64.2544 25.0322C64.6825 24.6171 65.0181 24.133 65.2614 23.5799C65.5158 23.0167 65.6604 22.4102 65.6952 21.7605C65.7299 21.1107 65.6505 20.4976 65.457 19.9211C65.2742 19.3452 64.9918 18.8334 64.6098 18.3857C64.2391 17.9279 63.7884 17.5673 63.2577 17.3039C62.7276 17.0299 62.1323 16.8752 61.4719 16.8399C60.8222 16.8051 60.2192 16.8957 59.6628 17.1116C59.1071 17.3169 58.6151 17.6271 58.187 18.0421C57.7701 18.4471 57.4347 18.9259 57.1809 19.4785C56.927 20.031 56.7827 20.6322 56.7479 21.2819C56.7132 21.9317 56.7923 22.5501 56.9852 23.1372C57.1787 23.7137 57.4608 24.2309 57.8315 24.6887C58.2135 25.1364 58.6695 25.4972 59.1997 25.7713C59.7304 26.0347 60.3206 26.1837 60.9703 26.2185ZM73.3675 29.9904C72.8131 29.7158 72.3753 29.3381 72.0539 28.8575C71.7421 28.3816 71.5756 27.8527 71.5544 27.2708C71.5475 26.6841 71.6932 26.0896 71.9915 25.4875L74.3854 20.656L75.7187 21.3166L73.3959 26.0047C73.2065 26.3871 73.1172 26.7595 73.1281 27.122C73.1485 27.4892 73.257 27.8227 73.4537 28.1225C73.6599 28.4271 73.9446 28.6693 74.3078 28.8493C74.671 29.0292 75.0315 29.1066 75.3892 29.0815C75.7564 29.0611 76.0922 28.9358 76.3967 28.7057C76.7107 28.4804 76.9719 28.1575 77.1803 27.7369L79.4462 23.1635L80.7939 23.8312L76.9652 31.5587L75.6606 30.9123L76.4064 29.4069L76.5575 29.6425C76.1344 30.04 75.6344 30.2684 75.0574 30.3278C74.4947 30.3823 73.9314 30.2698 73.3675 29.9904ZM80.5222 33.6751L86.3306 27.3004L87.4068 28.281L86.34 29.4519L86.3726 29.1785C86.8529 28.9523 87.3258 28.8926 87.7913 28.9993C88.2641 29.0982 88.7212 29.3487 89.1627 29.751L89.553 30.1067L88.6047 31.1474L88.0488 30.6409C87.5994 30.2314 87.1074 30.0429 86.5728 30.0753C86.0454 30.0998 85.5482 30.3683 85.0813 30.8808L81.6221 34.6772L80.5222 33.6751ZM89.9715 46.7475C89.6784 46.0492 89.5379 45.3562 89.55 44.6686C89.572 43.9769 89.7246 43.3344 90.0077 42.7412C90.2909 42.1481 90.6756 41.6453 91.1619 41.233L92.2046 42.2702C91.608 42.833 91.2272 43.4556 91.0625 44.1378C90.9117 44.8258 90.9849 45.5239 91.2822 46.232C91.4638 46.6648 91.6916 47.0145 91.9656 47.2813C92.2395 47.5481 92.5366 47.7184 92.8568 47.7922C93.1909 47.8717 93.5252 47.8413 93.8596 47.7009C94.3219 47.5069 94.63 47.2213 94.7841 46.8443C94.9522 46.473 94.9997 46.0076 94.9269 45.4482L94.6981 43.167C94.6095 42.2671 94.7421 41.4943 95.0956 40.8484C95.4492 40.2025 95.9702 39.7351 96.6587 39.4461C97.2587 39.1943 97.8447 39.116 98.4169 39.2113C99.003 39.3123 99.5312 39.5649 100.002 39.9689C100.486 40.3787 100.866 40.9131 101.143 41.5721C101.42 42.2311 101.551 42.8756 101.538 43.5058C101.529 44.1458 101.402 44.7374 101.155 45.2804C100.919 45.8193 100.582 46.2846 100.145 46.6763L99.1084 45.6538C99.6289 45.1576 99.9474 44.6075 100.064 44.0033C100.19 43.3949 100.119 42.7711 99.851 42.1318C99.6859 41.7384 99.4705 41.4182 99.2048 41.1711C98.9531 40.9297 98.6643 40.7791 98.3384 40.7192C98.0264 40.665 97.6984 40.7102 97.3541 40.8547C96.9509 41.024 96.6456 41.3026 96.4382 41.6904C96.2308 42.0782 96.1529 42.5679 96.2045 43.1593L96.4328 45.2326C96.5305 46.2095 96.4264 47.0225 96.1205 47.6716C95.8145 48.3206 95.2976 48.7978 94.5698 49.1034C93.9698 49.3552 93.3727 49.4208 92.7783 49.3001C92.1881 49.1892 91.6446 48.9142 91.1478 48.4749C90.665 48.0413 90.2729 47.4655 89.9715 46.7475ZM92.7731 58.0384C92.7412 57.207 92.9099 56.4586 93.2794 55.7933C93.6488 55.128 94.1674 54.5957 94.8353 54.1965C95.5138 53.7969 96.2794 53.5807 97.1321 53.548C97.9955 53.5148 98.7699 53.6666 99.4553 54.0032C100.141 54.3505 100.688 54.8312 101.096 55.4454C101.515 56.0698 101.739 56.7764 101.77 57.5651C101.794 58.2046 101.699 58.7741 101.483 59.2734C101.278 59.7829 100.985 60.2158 100.604 60.572C100.234 60.9385 99.8016 61.2219 99.3076 61.4223C98.8247 61.633 98.3167 61.7486 97.7838 61.769C97.6665 61.7735 97.5329 61.768 97.3829 61.7524C97.2439 61.747 97.11 61.7362 96.9813 61.7197L96.7102 54.6529L97.9892 54.6039L98.2272 60.8073L97.6247 60.1259C98.1826 60.2006 98.6762 60.1283 99.1054 59.909C99.5347 59.6897 99.8696 59.378 100.11 58.9738C100.351 58.5696 100.462 58.117 100.443 57.616C100.423 57.1151 100.278 56.6616 100.006 56.2558C99.7343 55.8499 99.3541 55.5389 98.8654 55.3228C98.3879 55.117 97.8248 55.0478 97.1762 55.1154C96.5457 55.0969 95.9952 55.2141 95.5245 55.467C95.0649 55.7301 94.7103 56.0853 94.4606 56.5326C94.2219 56.9901 94.1126 57.4799 94.1327 58.0022C94.1548 58.5778 94.3066 59.0577 94.5882 59.4418C94.8698 59.826 95.2232 60.1327 95.6483 60.3619L95.0566 61.6335C94.6557 61.4781 94.283 61.2255 93.9387 60.8758C93.6055 60.5363 93.3335 60.1251 93.1228 59.6422C92.9126 59.1699 92.796 58.6353 92.7731 58.0384ZM92.9343 65.7105L101.295 67.8246L100.938 69.2362L99.4026 68.8479L99.659 68.7477C100.085 69.0644 100.361 69.4532 100.486 69.9141C100.622 70.3775 100.617 70.8988 100.47 71.4779L100.341 71.9898L98.9759 71.6446L99.1603 70.9156C99.3093 70.3261 99.2435 69.8034 98.9627 69.3473C98.6923 68.8938 98.221 68.5821 97.5488 68.4122L92.5695 67.1531L92.9343 65.7105ZM89.6209 74.948L98.7855 76.2828L97.9619 77.7287L90.2839 76.4672L90.569 75.9667L95.5624 81.9413L94.7389 83.3872L88.9241 76.1714L89.6209 74.948ZM85.436 81.7416L91.6996 87.6696L90.6767 88.7504L84.4132 82.8224L85.436 81.7416ZM92.6989 88.6155L94.0934 89.9353L93.0706 91.016L91.6761 89.6962L92.6989 88.6155ZM77.8243 87.6044C78.5404 87.1602 79.2834 86.9314 80.0534 86.9181C80.8144 86.9105 81.5335 87.0983 82.2106 87.4816C82.8877 87.8649 83.4512 88.4191 83.9011 89.1442C84.3566 89.8784 84.6028 90.6294 84.6398 91.3972C84.6769 92.1651 84.523 92.8882 84.1781 93.5666C83.8242 94.2506 83.2892 94.8147 82.5732 95.259C82.0928 95.557 81.5907 95.7492 81.0669 95.8357C80.5431 95.9222 80.0326 95.9188 79.5354 95.8255C79.0382 95.7323 78.5962 95.5358 78.2094 95.236L79.0005 93.9921C79.4089 94.2659 79.8629 94.411 80.3626 94.4274C80.868 94.4528 81.3518 94.3221 81.814 94.0353C82.2582 93.7598 82.5912 93.3962 82.8132 92.9447C83.0261 92.4988 83.1159 92.0163 83.0826 91.4972C83.0492 90.9781 82.8751 90.4648 82.5602 89.9572C82.2566 89.4678 81.8768 89.0883 81.4209 88.8188C80.9706 88.5584 80.4984 88.4245 80.0044 88.4172C79.5012 88.4156 79.0276 88.5525 78.5834 88.828C78.1212 89.1148 77.7864 89.4857 77.5791 89.9407C77.3774 90.4047 77.3142 90.8896 77.3894 91.3952L75.9067 91.5243C75.8155 91.0536 75.8358 90.5703 75.9675 90.0744C76.1048 89.5875 76.3285 89.1287 76.6386 88.6978C76.9487 88.2669 77.3439 87.9024 77.8243 87.6044ZM67.4788 91.9749C68.2932 91.8047 69.0592 91.8461 69.7769 92.0993C70.4946 92.3524 71.106 92.7749 71.6111 93.3667C72.1184 93.969 72.4594 94.6877 72.634 95.523C72.8109 96.3687 72.7905 97.1576 72.5731 97.8896C72.3452 98.6238 71.9625 99.2432 71.4251 99.7478C70.8794 100.265 70.2202 100.605 69.4476 100.766C68.8211 100.897 68.2438 100.898 67.7155 100.769C67.1789 100.652 66.7032 100.435 66.2883 100.119C65.8652 99.8151 65.5135 99.4364 65.2334 98.9828C64.9451 98.5418 64.7463 98.0603 64.6372 97.5382C64.6132 97.4234 64.5963 97.2907 64.5867 97.1401C64.5687 97.0022 64.5571 96.8684 64.5518 96.7388L71.4741 95.2915L71.7361 96.5444L65.6595 97.8149L66.2307 97.107C66.2502 97.6695 66.4039 98.1441 66.6918 98.5307C66.9797 98.9173 67.343 99.1955 67.7817 99.3654C68.2204 99.5352 68.6851 99.5688 69.1758 99.4662C69.6665 99.3636 70.0893 99.1444 70.4441 98.8087C70.7989 98.473 71.0421 98.0462 71.1735 97.5283C71.2967 97.0231 71.2709 96.4564 71.096 95.8282C71.0089 95.2035 70.8014 94.6802 70.4735 94.2584C70.1373 93.8492 69.7279 93.5588 69.2453 93.3873C68.7543 93.2284 68.2531 93.2025 67.7415 93.3094C67.1777 93.4273 66.7299 93.6571 66.3982 93.9989C66.0664 94.3407 65.823 94.7403 65.668 95.1977L64.3155 94.8267C64.4018 94.4054 64.5886 93.9959 64.8759 93.598C65.155 93.2127 65.515 92.8759 65.956 92.5875C66.3865 92.3014 66.8941 92.0972 67.4788 91.9749ZM56.8873 92.9256C57.7476 93.005 58.4769 93.2866 59.0749 93.7702C59.673 94.2539 60.0715 94.8691 60.2704 95.6159L59.0385 96.0807C58.8412 95.5483 58.5439 95.1138 58.1465 94.7772C57.7491 94.4406 57.2901 94.2482 56.7697 94.2002C56.3023 94.1571 55.9044 94.2328 55.5757 94.4275C55.2471 94.6221 55.0662 94.9 55.0328 95.2611C55.0093 95.516 55.065 95.7247 55.2 95.8871C55.3234 96.0592 55.4821 96.197 55.676 96.3006C55.869 96.4148 56.0485 96.501 56.2146 96.5592L57.4712 97.0447C58.226 97.3393 58.7649 97.7104 59.0878 98.158C59.4001 98.6046 59.5307 99.104 59.4798 99.6563C59.4327 100.166 59.2646 100.595 58.9753 100.943C58.6745 101.301 58.2912 101.566 57.8255 101.737C57.3492 101.907 56.8296 101.967 56.2666 101.915C55.5125 101.845 54.8557 101.592 54.2962 101.154C53.726 100.716 53.3454 100.14 53.1541 99.4261L54.4165 98.9802C54.5665 99.4439 54.8209 99.8209 55.1798 100.111C55.5376 100.412 55.9556 100.584 56.4335 100.629C56.869 100.669 57.2245 100.589 57.5 100.39C57.7745 100.201 57.927 99.9415 57.9574 99.6123C57.9799 99.368 57.9348 99.1603 57.822 98.9892C57.7083 98.8287 57.5651 98.6977 57.3924 98.596C57.2187 98.505 57.0493 98.4251 56.8842 98.3563L55.5204 97.8127C54.838 97.5462 54.3252 97.1829 53.9821 96.7227C53.6283 96.2616 53.4788 95.7336 53.5337 95.1388C53.5778 94.6609 53.7503 94.2429 54.0511 93.8851C54.352 93.5272 54.7458 93.2636 55.2328 93.0943C55.7198 92.925 56.2713 92.8688 56.8873 92.9256Z" fill="#5A6A85"/>
<rect x="0.5" y="0.5" width="121" height="121" rx="60.5" stroke="white"/>
<rect x="36.5" y="36.5" width="49" height="49" rx="24.5" stroke="white"/>
</svg>
