<svg width="49" height="48" viewBox="0 0 49 48" fill="none" xmlns="http://www.w3.org/2000/svg">
<g clip-path="url(#clip0_9950_2212)">
<path d="M13.5628 29.8911L12.9224 35.4743L7.68186 36.3668C5.67771 33.6862 4.29108 30.4846 3.76457 26.9416C3.25543 23.5156 3.60851 20.1609 4.66267 17.0966L4.6638 17.0965L9.47162 17.259L12.2132 21.6065C11.97 22.9213 11.9357 24.299 12.1434 25.6965C12.3689 27.2131 12.8596 28.6254 13.5628 29.8911Z" fill="#FBBB00"/>
<path d="M44.1512 16.9951C44.5742 18.2097 44.8897 19.482 45.0858 20.8012C45.3056 22.2803 45.3645 23.7463 45.2751 25.1821C44.9731 30.0677 42.9597 34.5937 39.754 38.0613L39.7527 38.0604L33.8129 38.6356L32.2046 33.5513C34.4097 31.7756 35.9681 29.2779 36.5682 26.476L25.5203 28.1178L24.3057 19.9443L35.5147 18.2786L44.1512 16.9951Z" fill="#518EF8"/>
<path d="M39.7532 38.0602L39.7545 38.0612C36.6368 41.4333 32.3921 43.8045 27.4959 44.5321C19.6278 45.7014 12.1336 42.3202 7.68216 36.367L13.5631 29.8912C15.9999 34.2885 20.9845 36.9358 26.2508 36.1532C28.5143 35.8168 30.544 34.8898 32.205 33.5511L39.7532 38.0602Z" fill="#28B446"/>
<path d="M35.25 6.00763L29.3712 12.4819C27.313 11.5846 24.9857 11.2354 22.6007 11.5898C17.2152 12.3902 13.1544 16.5371 12.2139 21.6069L4.66434 17.0969L4.66321 17.0971C7.11656 9.95646 13.3704 4.39758 21.3555 3.21094C26.3686 2.46596 31.2304 3.56859 35.25 6.00763Z" fill="#F14336"/>
</g>
<defs>
<clipPath id="clip0_9950_2212">
<rect width="41.7753" height="41.7753" fill="white" transform="translate(0.694336 6.28125) rotate(-8.45275)"/>
</clipPath>
</defs>
</svg>
