<svg width="83" height="19" viewBox="0 0 83 19" fill="none" xmlns="http://www.w3.org/2000/svg">
<path d="M0.5 0H11.8404V2.1978H7.47873V14.0659H4.8617V2.1978H0.5V0ZM11.1862 3.73626H13.367V5.71429C13.367 5.49451 13.5851 5.27472 13.8032 4.83516C14.0213 4.3956 14.2394 4.3956 14.4574 4.17582C14.6755 3.95604 15.1117 3.73626 15.3298 3.73626C15.5479 3.51648 15.984 3.51648 16.4202 3.51648C16.6383 3.51648 16.8564 3.51648 16.8564 3.51648H17.0745V5.71429C16.8564 5.71429 16.8564 5.71429 16.6383 5.71429C16.4202 5.71429 16.4202 5.71429 16.2021 5.71429C15.766 5.71429 15.5479 5.71428 15.1117 5.93406C14.6755 6.15384 14.4574 6.37363 14.2394 6.59341C14.0213 6.81319 13.8032 7.25275 13.5851 7.69231C13.367 8.13187 13.367 8.57143 13.367 9.23077V14.0659H11.1862V3.73626ZM27.3245 14.0659H25.1436V12.7473C24.9255 13.1868 24.4894 13.6264 23.8351 14.0659C23.3989 14.2857 22.7447 14.5055 22.0904 14.5055C20.7819 14.5055 19.9096 14.2857 19.2553 13.4066C18.6011 12.5275 18.383 11.6484 18.383 10.3297V3.95604H20.5638V10.1099C20.5638 10.989 20.7819 11.6484 21 12.0879C21.4362 12.5275 21.8723 12.7473 22.5266 12.7473C22.9628 12.7473 23.3989 12.7473 23.617 12.5275C23.8351 12.3077 24.2713 12.0879 24.2713 11.8681C24.4894 11.6484 24.7074 11.4286 24.7074 10.989C24.7074 10.5495 24.9255 10.3297 24.9255 9.89011V3.95604H27.1064V14.0659H27.3245ZM31.0319 10.7692C31.0319 11.4286 31.25 11.8681 31.6862 12.0879C32.1223 12.3077 32.5585 12.5275 33.2128 12.5275C33.4309 12.5275 33.6489 12.5275 33.867 12.5275C34.0851 12.5275 34.3032 12.5275 34.5213 12.3077C34.7394 12.3077 34.9575 12.0879 35.1755 11.8681C35.3936 11.6484 35.3936 11.4286 35.3936 11.2088C35.3936 10.989 35.1755 10.7692 35.1755 10.5495C34.9575 10.3297 34.7394 10.3297 34.5213 10.1099C34.3032 10.1099 33.867 9.89011 33.4309 9.89011C32.9947 9.89011 32.5585 9.67033 32.3404 9.67033C31.9043 9.67033 31.4681 9.45055 31.25 9.23077C31.0319 9.01099 30.5957 9.01099 30.1596 8.79121C29.9415 8.57143 29.5053 8.35165 29.5053 7.91209C29.2872 7.47253 29.2872 7.03297 29.2872 6.59341C29.2872 5.93407 29.5053 5.49451 29.7234 5.27473C29.9415 5.05494 30.3777 4.61539 30.8138 4.39561C31.25 4.17582 31.6862 3.95604 32.1223 3.95604C32.5585 3.95604 33.2128 3.73626 33.6489 3.73626C34.0851 3.73626 34.7394 3.73626 35.1755 3.95604C35.6117 3.95604 36.0479 4.17582 36.484 4.39561C36.9202 4.61539 37.1383 5.05494 37.3564 5.27473C37.5745 5.71429 37.7926 6.15385 37.7926 6.81319H35.3936C35.3936 6.37363 34.9575 5.93407 34.7394 5.71429C34.0851 5.49451 33.6489 5.27473 33.2128 5.27473C32.9947 5.27473 32.7766 5.27473 32.5585 5.27473C32.3404 5.27473 32.1223 5.27473 31.9043 5.49451C31.6862 5.49451 31.4681 5.71429 31.4681 5.71429C31.25 5.93407 31.25 5.93407 31.25 6.15385C31.25 6.37363 31.25 6.59341 31.4681 6.81319C31.6862 7.03297 31.9043 7.03297 32.1223 7.25275C32.3404 7.25275 32.7766 7.47253 33.2128 7.47253C33.6489 7.47253 34.0851 7.69231 34.5213 7.69231C34.9574 7.69231 35.3936 7.91209 35.6117 8.13187C36.0479 8.35165 36.266 8.35165 36.7021 8.57143C37.1383 8.79121 37.3564 9.01099 37.3564 9.45055C37.5745 9.89011 37.5745 10.1099 37.5745 10.7692C37.5745 11.4286 37.3564 11.8681 37.1383 12.3077C36.9202 12.7473 36.484 12.967 36.0479 13.4066C35.8298 13.8462 35.3936 14.0659 34.9574 14.0659C34.5213 14.0659 33.867 14.2857 33.4309 14.2857C32.7766 14.2857 32.1223 14.2857 31.6862 14.0659C31.25 13.8462 30.5957 13.6264 30.3777 13.4066C29.9415 13.1868 29.7234 12.7473 29.5053 12.3077C29.0691 11.8681 28.8511 11.4286 28.8511 10.7692H31.0319ZM38.4468 3.73626H40.1915V0.87912H42.3723V3.95604H44.3351V5.71429H42.3723V11.2088C42.3723 11.4286 42.3723 11.6484 42.3723 11.8681C42.3723 12.0879 42.3723 12.0879 42.5904 12.3077C42.8085 12.5275 42.8085 12.5275 42.8085 12.5275C43.0266 12.5275 43.2447 12.5275 43.4628 12.5275C43.6809 12.5275 43.6809 12.5275 43.8989 12.5275C44.117 12.5275 44.117 12.5275 44.3351 12.5275V14.0659C44.117 14.0659 43.8989 14.0659 43.6809 14.0659C43.4628 14.0659 43.2447 14.0659 43.0266 14.0659C42.3723 14.0659 41.9362 14.0659 41.7181 13.8462C41.2819 13.8462 41.0638 13.6264 40.8457 13.4066C40.6277 13.1868 40.4096 12.967 40.4096 12.5275C40.4096 12.3077 40.1915 11.8681 40.1915 11.4286V5.49451H38.4468V3.73626ZM45.8617 3.73626H48.0426V5.27473C48.2606 4.61538 48.6968 4.17582 49.3511 3.95604C50.0053 3.73626 50.4415 3.51648 51.0957 3.51648C51.9681 3.51648 52.6223 3.73626 53.2766 3.95604C53.9309 4.17582 54.367 4.61538 54.8032 5.05494C55.2394 5.4945 55.4575 6.15385 55.6755 6.81319C55.8936 7.47253 55.8936 8.13187 55.8936 9.01099C55.8936 9.67033 55.8936 10.3297 55.6755 10.989C55.4575 11.6484 55.2394 12.0879 54.8032 12.7473C54.367 13.1868 53.9309 13.6264 53.4947 13.8462C52.8404 14.0659 52.4043 14.2857 51.5319 14.2857C51.3138 14.2857 50.8777 14.2857 50.6596 14.2857C50.4415 14.2857 50.0053 14.0659 49.7872 14.0659C49.5691 13.8462 49.133 13.8462 48.9149 13.6264C48.6968 13.4066 48.4787 13.1868 48.2606 12.967V18.022H46.0798V3.73626H45.8617ZM53.7128 9.01099C53.7128 8.57143 53.7128 8.13187 53.4947 7.69231C53.2766 7.25275 53.2766 6.81319 53.0585 6.59341C52.8404 6.37363 52.6223 5.93407 52.1862 5.71429C51.75 5.49451 51.5319 5.49451 50.8777 5.49451C50.0053 5.49451 49.133 5.71429 48.6968 6.37363C48.2606 7.03297 48.0426 7.91209 48.0426 9.01099C48.0426 9.45055 48.0426 10.1099 48.2606 10.3297C48.4787 10.7692 48.4787 11.2088 48.9149 11.4286C49.133 11.6484 49.3511 12.0879 49.7872 12.0879C50.2234 12.3077 50.4415 12.3077 50.8777 12.3077C51.3138 12.3077 51.75 12.3077 52.1862 12.0879C52.6223 11.8681 52.8404 11.6484 53.0585 11.2088C53.2766 10.7692 53.4947 10.5495 53.4947 10.1099C53.4947 9.89011 53.7128 9.45055 53.7128 9.01099ZM57.6383 0H59.8192V2.1978H57.6383V0ZM57.6383 3.73626H59.8192V14.0659H57.6383V3.73626ZM61.7819 0H63.9628V14.0659H61.7819V0ZM70.7234 14.2857C69.8511 14.2857 69.1968 14.0659 68.5426 13.8462C67.8883 13.6264 67.4521 13.1868 67.016 12.7473C66.5798 12.3077 66.1436 11.6484 65.9255 10.989C65.7075 10.3297 65.4894 9.67033 65.4894 8.79121C65.4894 7.91209 65.7075 7.25275 65.9255 6.59341C66.1436 5.93407 66.5798 5.27472 67.016 4.83516C67.4521 4.3956 67.8883 3.95604 68.5426 3.73626C69.1968 3.51648 69.8511 3.2967 70.7234 3.2967C71.5957 3.2967 72.25 3.51648 72.9043 3.73626C73.5585 3.95604 73.9947 4.3956 74.4309 4.83516C74.867 5.27472 75.3032 5.93407 75.5213 6.59341C75.7394 7.25275 75.9575 7.91209 75.9575 8.79121C75.9575 9.67033 75.7394 10.3297 75.5213 10.989C75.3032 11.6484 74.867 12.3077 74.4309 12.7473C73.9947 13.1868 73.5585 13.6264 72.9043 13.8462C72.25 14.0659 71.5957 14.2857 70.7234 14.2857ZM70.7234 12.5275C71.1596 12.5275 71.5957 12.5275 72.0319 12.3077C72.4681 12.0879 72.6862 11.8681 72.9043 11.4286C73.1223 10.989 73.3404 10.7692 73.3404 10.3297C73.3404 9.89011 73.5585 9.45055 73.5585 9.01099C73.5585 8.57143 73.5585 8.13187 73.3404 7.69231C73.3404 7.25275 73.1223 6.81319 72.9043 6.59341C72.6862 6.37363 72.4681 5.93407 72.0319 5.71429C71.5957 5.49451 71.1596 5.49451 70.7234 5.49451C70.2872 5.49451 69.8511 5.49451 69.4149 5.71429C68.9787 5.93407 68.7606 6.15385 68.5426 6.59341C68.3245 7.03297 68.1064 7.25275 68.1064 7.69231C68.1064 8.13187 67.8883 8.57143 67.8883 9.01099C67.8883 9.45055 67.8883 9.89011 68.1064 10.3297C68.1064 10.7692 68.3245 11.2088 68.5426 11.4286C68.7606 11.8681 68.9787 12.0879 69.4149 12.3077C69.8511 12.3077 70.2872 12.5275 70.7234 12.5275ZM76.6117 3.73626H78.3564V0.87912H80.5372V3.95604H82.5V5.71429H80.5372V11.2088C80.5372 11.4286 80.5372 11.6484 80.5372 11.8681C80.5372 12.0879 80.5372 12.0879 80.7553 12.3077C80.9734 12.5275 80.9734 12.5275 80.9734 12.5275C81.1915 12.5275 81.4096 12.5275 81.6277 12.5275C81.8457 12.5275 81.8458 12.5275 82.0638 12.5275C82.2819 12.5275 82.2819 12.5275 82.5 12.5275V14.0659C82.2819 14.0659 82.0638 14.0659 81.8457 14.0659C81.6277 14.0659 81.4096 14.0659 81.1915 14.0659C80.5372 14.0659 80.1011 14.0659 79.883 13.8462C79.4468 13.8462 79.2287 13.6264 79.0106 13.4066C78.7926 13.1868 78.5745 12.967 78.5745 12.5275C78.5745 12.3077 78.3564 11.8681 78.3564 11.4286V5.49451H76.6117V3.73626Z" fill="#191919"/>
</svg>
